{"glyphs":{"0":{"ha":683,"x_min":74,"x_max":610,"o":"m 342 -14 q 74 318 74 -14 l 74 807 q 342 1136 74 1136 q 610 807 610 1136 l 610 318 q 548 74 610 161 q 342 -14 486 -14 m 342 67 q 469 132 432 67 q 506 310 506 197 l 506 814 q 469 992 506 928 q 342 1056 432 1056 q 214 991 251 1056 q 176 814 176 926 l 176 310 q 342 67 176 67 z "},"1":{"ha":593,"x_min":122,"x_max":399,"o":"m 296 989 q 122 915 275 958 l 122 997 q 228 1044 172 1011 q 317 1125 283 1078 l 399 1125 l 399 0 l 296 0 l 296 989 z "},"2":{"ha":674,"x_min":68,"x_max":601,"o":"m 68 75 l 371 539 q 381 554 376 547 q 389 565 386 561 q 473 715 446 654 q 500 858 500 776 q 463 1001 500 950 q 350 1051 425 1051 q 215 990 253 1051 q 178 817 178 928 l 178 792 l 76 792 l 76 819 q 141 1057 76 978 q 346 1136 206 1136 q 536 1062 471 1136 q 601 850 601 988 q 583 729 601 786 q 540 627 565 672 q 468 511 514 582 l 188 86 l 578 86 l 578 0 l 68 0 l 68 75 z "},"3":{"ha":664,"x_min":81,"x_max":599,"o":"m 331 -14 q 142 58 203 -14 q 81 260 81 131 l 81 288 l 179 288 l 179 264 q 215 119 181 169 q 331 69 250 69 q 453 125 413 69 q 494 306 494 181 q 326 544 494 539 l 299 544 l 299 642 l 326 642 q 456 692 417 642 q 494 856 494 742 q 460 1002 494 950 q 342 1054 425 1054 q 219 1007 257 1054 q 179 858 181 960 l 179 839 l 81 839 l 81 865 q 340 1136 81 1136 q 534 1060 469 1136 q 599 856 599 985 q 555 676 599 742 q 438 592 511 610 q 553 503 507 574 q 599 307 599 432 q 533 72 599 157 q 331 -14 468 -14 z "},"4":{"ha":683,"x_min":69,"x_max":639,"o":"m 408 328 l 69 328 l 69 433 l 388 1125 l 510 1125 l 510 422 l 639 422 l 639 328 l 510 328 l 510 0 l 408 0 l 408 328 m 408 422 l 408 986 l 175 422 l 408 422 z "},"5":{"ha":672,"x_min":94,"x_max":606,"o":"m 344 -12 q 153 63 213 -12 q 94 290 94 139 l 196 290 q 230 125 196 181 q 349 69 264 69 q 472 137 440 69 q 504 356 504 204 q 490 520 504 460 q 441 608 475 581 q 350 635 407 635 q 204 542 260 635 l 119 542 l 119 1125 l 557 1125 l 556 1029 l 210 1029 l 204 639 q 376 714 264 714 q 551 626 497 714 q 606 368 606 538 q 544 83 606 179 q 344 -12 483 -12 z "},"6":{"ha":682,"x_min":92,"x_max":618,"o":"m 351 -14 q 155 78 218 -14 q 92 339 92 169 l 92 788 q 153 1044 92 951 q 350 1136 215 1136 q 540 1072 478 1136 q 604 876 601 1007 l 604 853 l 504 853 q 470 1007 504 961 q 354 1053 436 1053 q 193 811 193 1053 l 193 599 q 271 644 222 625 q 375 664 319 664 q 519 629 467 664 q 595 522 572 594 q 618 329 618 449 q 351 -14 618 -14 m 351 71 q 475 127 436 71 q 514 310 514 183 q 503 469 514 413 q 457 556 492 526 q 351 585 422 585 q 263 565 307 585 q 193 521 218 544 l 193 326 q 231 131 193 192 q 351 71 269 71 z "},"7":{"ha":601,"x_min":81,"x_max":524,"o":"m 421 1043 l 81 1043 l 81 1125 l 524 1125 l 524 1075 l 300 0 l 201 0 l 421 1043 z "},"8":{"ha":674,"x_min":74,"x_max":601,"o":"m 338 -14 q 136 68 199 -14 q 74 301 74 150 q 97 450 74 393 q 153 537 119 507 q 235 590 188 567 q 124 685 164 619 q 83 854 83 751 q 144 1060 83 985 q 338 1136 206 1136 q 528 1060 468 1136 q 589 851 589 983 q 439 590 589 651 q 520 537 486 567 q 578 450 554 507 q 601 301 601 393 q 338 -14 601 -14 m 338 636 q 489 856 489 643 q 452 1004 489 954 q 338 1054 415 1054 q 222 1004 258 1054 q 185 856 185 954 q 219 698 185 756 q 338 636 254 640 m 338 68 q 461 125 421 68 q 501 301 501 182 q 338 543 501 531 q 210 474 249 536 q 171 301 171 411 q 213 125 171 182 q 338 68 254 68 z "},"9":{"ha":682,"x_min":76,"x_max":601,"o":"m 346 -14 q 90 250 93 -14 l 90 269 l 190 269 q 224 116 190 161 q 347 71 258 71 q 462 126 424 71 q 500 313 500 182 l 500 525 q 429 478 476 497 q 318 458 382 458 q 174 493 226 458 q 99 601 122 528 q 76 794 76 674 q 141 1047 76 957 q 344 1136 206 1136 q 601 785 601 1136 l 601 336 q 346 -14 601 -14 m 343 538 q 436 557 396 538 q 500 603 476 576 l 500 796 q 463 992 500 932 q 344 1051 426 1051 q 221 994 261 1051 q 181 814 181 936 q 191 653 181 710 q 237 567 201 597 q 343 538 272 538 z "},"\u0000":{"ha":0,"x_min":0,"x_max":0,"o":""},"\r":{"ha":283,"x_min":0,"x_max":0,"o":""}," ":{"ha":283,"x_min":0,"x_max":0,"o":""},"A":{"ha":663,"x_min":38,"x_max":625,"o":"m 275 1125 l 386 1125 l 625 0 l 521 0 l 465 301 l 197 301 l 140 0 l 38 0 l 275 1125 m 451 378 l 332 985 l 213 378 l 451 378 z "},"Á":{"ha":663,"x_min":38,"x_max":625,"o":"m 275 1125 l 386 1125 l 625 0 l 521 0 l 465 301 l 197 301 l 140 0 l 38 0 l 275 1125 m 451 378 l 332 985 l 213 378 l 451 378 m 393 1464 l 494 1464 l 358 1192 l 306 1192 l 393 1464 z "},"Ă":{"ha":663,"x_min":38,"x_max":625,"o":"m 275 1125 l 386 1125 l 625 0 l 521 0 l 465 301 l 197 301 l 140 0 l 38 0 l 275 1125 m 451 378 l 332 985 l 213 378 l 451 378 m 331 1211 q 208 1254 250 1211 q 164 1378 167 1297 l 229 1378 q 331 1272 231 1272 q 435 1378 429 1272 l 499 1378 q 454 1255 497 1299 q 331 1211 411 1211 z "},"Ắ":{"ha":663,"x_min":38,"x_max":625,"o":"m 275 1125 l 386 1125 l 625 0 l 521 0 l 465 301 l 197 301 l 140 0 l 38 0 l 275 1125 m 451 378 l 332 985 l 213 378 l 451 378 m 364 1588 l 467 1588 l 332 1424 l 275 1424 l 364 1588 m 331 1201 q 208 1244 250 1201 q 164 1368 167 1288 l 229 1368 q 331 1263 231 1263 q 435 1368 429 1263 l 499 1368 q 454 1245 497 1289 q 331 1201 411 1201 z "},"Ặ":{"ha":663,"x_min":38,"x_max":625,"o":"m 275 1125 l 386 1125 l 625 0 l 521 0 l 465 301 l 197 301 l 140 0 l 38 0 l 275 1125 m 451 378 l 332 985 l 213 378 l 451 378 m 278 -85 l 386 -85 l 386 -208 l 278 -208 l 278 -85 m 331 1211 q 208 1254 250 1211 q 164 1378 167 1297 l 229 1378 q 331 1272 231 1272 q 435 1378 429 1272 l 499 1378 q 454 1255 497 1299 q 331 1211 411 1211 z "},"Ằ":{"ha":663,"x_min":38,"x_max":625,"o":"m 275 1125 l 386 1125 l 625 0 l 521 0 l 465 301 l 197 301 l 140 0 l 38 0 l 275 1125 m 451 378 l 332 985 l 213 378 l 451 378 m 199 1588 l 301 1588 l 392 1424 l 333 1424 l 199 1588 m 331 1201 q 208 1244 250 1201 q 164 1368 167 1288 l 229 1368 q 331 1263 231 1263 q 435 1368 429 1263 l 499 1368 q 454 1245 497 1289 q 331 1201 411 1201 z "},"Ẳ":{"ha":663,"x_min":38,"x_max":625,"o":"m 275 1125 l 386 1125 l 625 0 l 521 0 l 465 301 l 197 301 l 140 0 l 38 0 l 275 1125 m 451 378 l 332 985 l 213 378 l 451 378 m 300 1413 q 349 1449 333 1432 q 365 1489 365 1467 q 349 1526 365 1514 q 303 1539 332 1539 q 239 1529 269 1539 l 239 1581 q 325 1594 281 1594 q 411 1569 379 1594 q 443 1497 443 1544 q 338 1372 443 1419 l 300 1413 m 331 1211 q 208 1254 250 1211 q 164 1378 167 1297 l 229 1378 q 331 1272 231 1272 q 435 1378 429 1272 l 499 1378 q 454 1255 497 1299 q 331 1211 411 1211 z "},"Ẵ":{"ha":663,"x_min":38,"x_max":625,"o":"m 275 1125 l 386 1125 l 625 0 l 521 0 l 465 301 l 197 301 l 140 0 l 38 0 l 275 1125 m 451 378 l 332 985 l 213 378 l 451 378 m 331 1211 q 208 1254 250 1211 q 164 1378 167 1297 l 229 1378 q 331 1272 231 1272 q 435 1378 429 1272 l 499 1378 q 454 1255 497 1299 q 331 1211 411 1211 m 417 1442 q 374 1451 393 1442 q 326 1479 354 1461 q 288 1501 303 1494 q 258 1508 274 1508 q 214 1453 214 1508 l 151 1453 q 173 1537 151 1499 q 247 1575 194 1575 q 292 1566 271 1575 q 338 1539 313 1557 q 376 1517 361 1524 q 406 1510 390 1510 q 440 1524 429 1510 q 451 1569 451 1538 l 513 1569 q 492 1480 513 1518 q 417 1442 472 1442 z "},"Â":{"ha":663,"x_min":38,"x_max":625,"o":"m 275 1125 l 386 1125 l 625 0 l 521 0 l 465 301 l 197 301 l 140 0 l 38 0 l 275 1125 m 451 378 l 332 985 l 213 378 l 451 378 m 275 1447 l 389 1447 l 508 1200 l 433 1200 l 332 1396 l 231 1200 l 156 1200 l 275 1447 z "},"Ấ":{"ha":663,"x_min":38,"x_max":654,"o":"m 275 1125 l 386 1125 l 625 0 l 521 0 l 465 301 l 197 301 l 140 0 l 38 0 l 275 1125 m 451 378 l 332 985 l 213 378 l 451 378 m 561 1492 l 654 1492 l 556 1332 l 488 1332 l 561 1492 m 275 1403 l 389 1403 l 508 1200 l 433 1200 l 332 1353 l 231 1200 l 156 1200 l 275 1403 z "},"Ậ":{"ha":663,"x_min":38,"x_max":625,"o":"m 275 1125 l 386 1125 l 625 0 l 521 0 l 465 301 l 197 301 l 140 0 l 38 0 l 275 1125 m 451 378 l 332 985 l 213 378 l 451 378 m 275 1403 l 389 1403 l 508 1200 l 433 1200 l 332 1353 l 231 1200 l 156 1200 l 275 1403 m 278 -85 l 386 -85 l 386 -208 l 278 -208 l 278 -85 z "},"Ầ":{"ha":663,"x_min":38,"x_max":625,"o":"m 275 1125 l 386 1125 l 625 0 l 521 0 l 465 301 l 197 301 l 140 0 l 38 0 l 275 1125 m 451 378 l 332 985 l 213 378 l 451 378 m 424 1492 l 517 1492 l 590 1332 l 524 1332 l 424 1492 m 275 1403 l 389 1403 l 508 1200 l 433 1200 l 332 1353 l 231 1200 l 156 1200 l 275 1403 z "},"Ẩ":{"ha":663,"x_min":38,"x_max":625,"o":"m 275 1125 l 386 1125 l 625 0 l 521 0 l 465 301 l 197 301 l 140 0 l 38 0 l 275 1125 m 451 378 l 332 985 l 213 378 l 451 378 m 475 1360 q 524 1397 508 1379 q 540 1438 540 1414 q 524 1474 540 1461 q 478 1486 507 1486 q 414 1476 444 1486 l 414 1529 q 500 1542 458 1542 q 586 1517 554 1542 q 618 1444 618 1492 q 590 1371 618 1400 q 513 1319 563 1342 l 475 1360 m 275 1403 l 389 1403 l 508 1200 l 433 1200 l 332 1353 l 231 1200 l 156 1200 l 275 1403 z "},"Ẫ":{"ha":663,"x_min":38,"x_max":625,"o":"m 275 1125 l 386 1125 l 625 0 l 521 0 l 465 301 l 197 301 l 140 0 l 38 0 l 275 1125 m 451 378 l 332 985 l 213 378 l 451 378 m 275 1403 l 389 1403 l 508 1200 l 433 1200 l 332 1353 l 231 1200 l 156 1200 l 275 1403 m 417 1469 q 374 1479 393 1469 q 326 1507 354 1489 q 288 1529 303 1522 q 258 1536 274 1536 q 214 1481 214 1536 l 151 1481 q 173 1565 151 1526 q 247 1603 194 1603 q 292 1594 271 1603 q 338 1567 313 1585 q 376 1544 361 1551 q 406 1538 390 1538 q 440 1551 429 1538 q 451 1597 451 1565 l 513 1597 q 492 1508 513 1546 q 417 1469 472 1469 z "},"Ȁ":{"ha":663,"x_min":38,"x_max":625,"o":"m 275 1125 l 386 1125 l 625 0 l 521 0 l 465 301 l 197 301 l 140 0 l 38 0 l 275 1125 m 451 378 l 332 985 l 213 378 l 451 378 m 94 1447 l 203 1447 l 281 1231 l 228 1231 l 94 1447 m 283 1447 l 374 1447 l 431 1231 l 379 1231 l 283 1447 z "},"Ä":{"ha":663,"x_min":38,"x_max":625,"o":"m 275 1125 l 386 1125 l 625 0 l 521 0 l 465 301 l 197 301 l 140 0 l 38 0 l 275 1125 m 451 378 l 332 985 l 213 378 l 451 378 m 167 1447 l 271 1447 l 271 1324 l 167 1324 l 167 1447 m 396 1447 l 500 1447 l 500 1324 l 396 1324 l 396 1447 z "},"Ạ":{"ha":663,"x_min":38,"x_max":625,"o":"m 275 1125 l 386 1125 l 625 0 l 521 0 l 465 301 l 197 301 l 140 0 l 38 0 l 275 1125 m 451 378 l 332 985 l 213 378 l 451 378 m 278 -85 l 386 -85 l 386 -208 l 278 -208 l 278 -85 z "},"À":{"ha":663,"x_min":38,"x_max":625,"o":"m 275 1125 l 386 1125 l 625 0 l 521 0 l 465 301 l 197 301 l 140 0 l 38 0 l 275 1125 m 451 378 l 332 985 l 213 378 l 451 378 m 178 1464 l 281 1464 l 357 1192 l 306 1192 l 178 1464 z "},"Ả":{"ha":663,"x_min":38,"x_max":625,"o":"m 275 1125 l 386 1125 l 625 0 l 521 0 l 465 301 l 197 301 l 140 0 l 38 0 l 275 1125 m 451 378 l 332 985 l 213 378 l 451 378 m 294 1267 q 352 1303 333 1286 q 371 1344 371 1321 q 299 1394 371 1394 q 233 1386 268 1394 l 233 1439 q 322 1449 276 1449 q 415 1424 382 1449 q 447 1351 447 1400 q 417 1279 447 1307 q 332 1226 388 1251 l 294 1267 z "},"Ȃ":{"ha":663,"x_min":38,"x_max":625,"o":"m 275 1125 l 386 1125 l 625 0 l 521 0 l 465 301 l 197 301 l 140 0 l 38 0 l 275 1125 m 451 378 l 332 985 l 213 378 l 451 378 m 164 1274 q 208 1402 167 1357 q 332 1447 250 1447 q 456 1402 415 1447 q 500 1274 497 1357 l 435 1274 q 407 1359 433 1333 q 332 1385 381 1385 q 257 1359 283 1385 q 229 1274 231 1333 l 164 1274 z "},"Ā":{"ha":663,"x_min":38,"x_max":625,"o":"m 275 1125 l 386 1125 l 625 0 l 521 0 l 465 301 l 197 301 l 140 0 l 38 0 l 275 1125 m 451 378 l 332 985 l 213 378 l 451 378 m 207 1356 l 457 1356 l 457 1286 l 207 1286 l 207 1356 z "},"Ą":{"ha":663,"x_min":38,"x_max":643,"o":"m 275 1125 l 386 1125 l 625 0 l 521 0 l 465 301 l 197 301 l 140 0 l 38 0 l 275 1125 m 451 378 l 332 985 l 213 378 l 451 378 m 588 -294 q 471 -267 514 -294 q 428 -181 428 -240 q 465 -77 428 -126 q 554 0 501 -28 l 608 0 q 506 -169 506 -97 q 535 -224 506 -207 q 611 -240 565 -240 q 643 -237 624 -240 l 628 -292 q 588 -294 606 -294 z "},"Å":{"ha":663,"x_min":38,"x_max":625,"o":"m 275 1125 l 386 1125 l 625 0 l 521 0 l 465 301 l 197 301 l 140 0 l 38 0 l 275 1125 m 451 378 l 332 985 l 213 378 l 451 378 m 332 1196 q 237 1231 275 1196 q 199 1328 199 1265 q 237 1425 199 1390 q 332 1460 275 1460 q 427 1425 389 1460 q 465 1328 465 1390 q 427 1231 465 1265 q 332 1196 389 1196 m 332 1251 q 387 1271 365 1251 q 408 1328 408 1290 q 387 1386 408 1367 q 332 1406 365 1406 q 277 1386 299 1406 q 256 1328 256 1367 q 277 1271 256 1290 q 332 1251 299 1251 z "},"Ǻ":{"ha":663,"x_min":38,"x_max":625,"o":"m 275 1125 l 386 1125 l 625 0 l 521 0 l 465 301 l 197 301 l 140 0 l 38 0 l 275 1125 m 451 378 l 332 985 l 213 378 l 451 378 m 332 1196 q 237 1231 275 1196 q 199 1328 199 1265 q 237 1425 199 1390 q 332 1460 275 1460 q 427 1425 389 1460 q 465 1328 465 1390 q 427 1231 465 1265 q 332 1196 389 1196 m 332 1251 q 387 1271 365 1251 q 408 1328 408 1290 q 387 1386 408 1367 q 332 1406 365 1406 q 277 1386 299 1406 q 256 1328 256 1367 q 277 1271 256 1290 q 332 1251 299 1251 m 393 1799 l 494 1799 l 358 1526 l 306 1526 l 393 1799 z "},"Ã":{"ha":663,"x_min":38,"x_max":625,"o":"m 275 1125 l 386 1125 l 625 0 l 521 0 l 465 301 l 197 301 l 140 0 l 38 0 l 275 1125 m 451 378 l 332 985 l 213 378 l 451 378 m 417 1283 q 374 1293 393 1283 q 326 1321 354 1303 q 288 1343 303 1336 q 258 1350 274 1350 q 214 1294 214 1350 l 151 1294 q 173 1378 151 1340 q 247 1417 194 1417 q 292 1408 271 1417 q 338 1381 313 1399 q 376 1358 361 1365 q 406 1351 390 1351 q 440 1365 429 1351 q 451 1411 451 1379 l 513 1411 q 492 1322 513 1360 q 417 1283 472 1283 z "},"Æ":{"ha":876,"x_min":-40,"x_max":832,"o":"m 411 1125 l 832 1125 l 832 1040 l 532 1040 l 532 626 l 747 626 l 747 546 l 532 546 l 532 83 l 832 83 l 832 0 l 425 0 l 425 301 l 189 301 l 72 0 l -40 0 l 411 1125 m 425 382 l 425 946 l 218 382 l 425 382 z "},"Ǽ":{"ha":876,"x_min":-40,"x_max":832,"o":"m 411 1125 l 832 1125 l 832 1040 l 532 1040 l 532 626 l 747 626 l 747 546 l 532 546 l 532 83 l 832 83 l 832 0 l 425 0 l 425 301 l 189 301 l 72 0 l -40 0 l 411 1125 m 425 382 l 425 946 l 218 382 l 425 382 m 539 1464 l 640 1464 l 504 1192 l 451 1192 l 539 1464 z "},"B":{"ha":697,"x_min":99,"x_max":642,"o":"m 99 1125 l 340 1125 q 551 1052 488 1125 q 615 844 615 979 q 582 688 615 753 q 472 607 549 622 q 603 506 564 582 q 642 325 642 429 q 583 87 642 174 q 376 0 524 0 l 99 0 l 99 1125 m 357 640 q 483 692 447 640 q 519 844 519 744 q 501 958 519 915 q 435 1022 482 1001 q 304 1043 389 1043 l 204 1043 l 204 640 l 357 640 m 356 79 q 467 105 428 79 q 523 183 507 131 q 539 325 539 236 q 358 558 539 558 l 204 558 l 204 79 l 356 79 z "},"Ḃ":{"ha":697,"x_min":99,"x_max":642,"o":"m 99 1125 l 340 1125 q 551 1052 488 1125 q 615 844 615 979 q 582 688 615 753 q 472 607 549 622 q 603 506 564 582 q 642 325 642 429 q 583 87 642 174 q 376 0 524 0 l 99 0 l 99 1125 m 357 640 q 483 692 447 640 q 519 844 519 744 q 501 958 519 915 q 435 1022 482 1001 q 304 1043 389 1043 l 204 1043 l 204 640 l 357 640 m 356 79 q 467 105 428 79 q 523 183 507 131 q 539 325 539 236 q 358 558 539 558 l 204 558 l 204 79 l 356 79 m 294 1411 l 403 1411 l 403 1258 l 294 1258 l 294 1411 z "},"C":{"ha":693,"x_min":75,"x_max":626,"o":"m 360 -14 q 138 79 201 -14 q 75 338 75 172 l 75 785 q 138 1045 75 954 q 360 1136 201 1136 q 565 1054 504 1136 q 626 817 626 972 l 626 749 l 526 749 l 526 814 q 514 945 526 894 q 465 1024 501 996 q 361 1051 429 1051 q 249 1021 288 1051 q 196 937 210 990 q 182 800 182 883 l 182 321 q 222 131 182 190 q 361 71 261 71 q 493 131 460 71 q 526 315 526 192 l 526 389 l 626 389 l 626 322 q 567 74 626 161 q 360 -14 507 -14 z "},"Ć":{"ha":693,"x_min":75,"x_max":626,"o":"m 360 -14 q 138 79 201 -14 q 75 338 75 172 l 75 785 q 138 1045 75 954 q 360 1136 201 1136 q 565 1054 504 1136 q 626 817 626 972 l 626 749 l 526 749 l 526 814 q 514 945 526 894 q 465 1024 501 996 q 361 1051 429 1051 q 249 1021 288 1051 q 196 937 210 990 q 182 800 182 883 l 182 321 q 222 131 182 190 q 361 71 261 71 q 493 131 460 71 q 526 315 526 192 l 526 389 l 626 389 l 626 322 q 567 74 626 161 q 360 -14 507 -14 m 408 1464 l 510 1464 l 374 1192 l 321 1192 l 408 1464 z "},"Č":{"ha":693,"x_min":75,"x_max":626,"o":"m 360 -14 q 138 79 201 -14 q 75 338 75 172 l 75 785 q 138 1045 75 954 q 360 1136 201 1136 q 565 1054 504 1136 q 626 817 626 972 l 626 749 l 526 749 l 526 814 q 514 945 526 894 q 465 1024 501 996 q 361 1051 429 1051 q 249 1021 288 1051 q 196 937 210 990 q 182 800 182 883 l 182 321 q 222 131 182 190 q 361 71 261 71 q 493 131 460 71 q 526 315 526 192 l 526 389 l 626 389 l 626 322 q 567 74 626 161 q 360 -14 507 -14 m 183 1447 l 265 1447 l 347 1281 l 429 1447 l 511 1447 l 392 1215 l 303 1215 l 183 1447 z "},"Ç":{"ha":693,"x_min":75,"x_max":626,"o":"m 526 749 l 526 814 q 514 945 526 894 q 465 1024 501 996 q 361 1051 429 1051 q 249 1021 288 1051 q 196 937 210 990 q 182 800 182 883 l 182 321 q 222 131 182 190 q 361 71 261 71 q 493 131 460 71 q 526 315 526 192 l 526 389 l 626 389 l 626 322 q 570 78 626 164 q 374 -14 514 -8 l 374 -69 q 468 -99 435 -71 q 501 -174 501 -126 q 463 -256 501 -228 q 353 -283 424 -283 q 288 -276 322 -283 l 288 -224 q 332 -229 308 -229 q 424 -172 424 -229 q 319 -100 424 -112 l 319 -12 q 129 92 183 0 q 75 338 75 183 l 75 785 q 138 1045 75 954 q 360 1136 201 1136 q 565 1054 504 1136 q 626 817 626 972 l 626 749 l 526 749 z "},"Ĉ":{"ha":693,"x_min":75,"x_max":626,"o":"m 360 -14 q 138 79 201 -14 q 75 338 75 172 l 75 785 q 138 1045 75 954 q 360 1136 201 1136 q 565 1054 504 1136 q 626 817 626 972 l 626 749 l 526 749 l 526 814 q 514 945 526 894 q 465 1024 501 996 q 361 1051 429 1051 q 249 1021 288 1051 q 196 937 210 990 q 182 800 182 883 l 182 321 q 222 131 182 190 q 361 71 261 71 q 493 131 460 71 q 526 315 526 192 l 526 389 l 626 389 l 626 322 q 567 74 626 161 q 360 -14 507 -14 m 290 1447 l 404 1447 l 524 1200 l 449 1200 l 347 1396 l 246 1200 l 171 1200 l 290 1447 z "},"Ċ":{"ha":693,"x_min":75,"x_max":626,"o":"m 360 -14 q 138 79 201 -14 q 75 338 75 172 l 75 785 q 138 1045 75 954 q 360 1136 201 1136 q 565 1054 504 1136 q 626 817 626 972 l 626 749 l 526 749 l 526 814 q 514 945 526 894 q 465 1024 501 996 q 361 1051 429 1051 q 249 1021 288 1051 q 196 937 210 990 q 182 800 182 883 l 182 321 q 222 131 182 190 q 361 71 261 71 q 493 131 460 71 q 526 315 526 192 l 526 389 l 626 389 l 626 322 q 567 74 626 161 q 360 -14 507 -14 m 293 1411 l 401 1411 l 401 1258 l 293 1258 l 293 1411 z "},"D":{"ha":724,"x_min":99,"x_max":649,"o":"m 99 1125 l 343 1125 q 579 1040 510 1125 q 649 794 649 954 l 649 347 q 581 90 649 179 q 353 0 514 0 l 99 0 l 99 1125 m 346 79 q 473 115 431 79 q 528 209 515 150 q 540 364 540 268 l 540 783 q 525 930 540 875 q 467 1014 510 985 q 342 1043 424 1043 l 204 1043 l 204 79 l 346 79 z "},"Ǳ":{"ha":1289,"x_min":99,"x_max":1261,"o":"m 99 1125 l 343 1125 q 579 1040 510 1125 q 649 794 649 954 l 649 347 q 581 90 649 179 q 353 0 514 0 l 99 0 l 99 1125 m 346 79 q 473 115 431 79 q 528 209 515 150 q 540 364 540 268 l 540 783 q 525 930 540 875 q 467 1014 510 985 q 342 1043 424 1043 l 204 1043 l 204 79 l 346 79 m 771 79 l 1147 1046 l 801 1046 l 801 1125 l 1261 1125 l 1261 1069 l 875 79 l 1261 79 l 1261 0 l 771 0 l 771 79 z "},"Ǆ":{"ha":1289,"x_min":99,"x_max":1261,"o":"m 99 1125 l 343 1125 q 579 1040 510 1125 q 649 794 649 954 l 649 347 q 581 90 649 179 q 353 0 514 0 l 99 0 l 99 1125 m 346 79 q 473 115 431 79 q 528 209 515 150 q 540 364 540 268 l 540 783 q 525 930 540 875 q 467 1014 510 985 q 342 1043 424 1043 l 204 1043 l 204 79 l 346 79 m 771 79 l 1147 1046 l 801 1046 l 801 1125 l 1261 1125 l 1261 1069 l 875 79 l 1261 79 l 1261 0 l 771 0 l 771 79 m 843 1447 l 925 1447 l 1007 1281 l 1089 1447 l 1171 1447 l 1051 1215 l 963 1215 l 843 1447 z "},"Ð":{"ha":757,"x_min":15,"x_max":649,"o":"m 99 557 l 15 557 l 15 622 l 99 622 l 99 1125 l 343 1125 q 579 1040 510 1125 q 649 794 649 954 l 649 347 q 581 90 649 179 q 353 0 514 0 l 99 0 l 99 557 m 346 79 q 473 115 431 79 q 528 209 515 150 q 540 364 540 268 l 540 783 q 525 930 540 875 q 467 1014 510 985 q 342 1043 424 1043 l 204 1043 l 204 622 l 317 622 l 317 557 l 204 557 l 204 79 l 346 79 z "},"Ď":{"ha":724,"x_min":99,"x_max":649,"o":"m 99 1125 l 343 1125 q 579 1040 510 1125 q 649 794 649 954 l 649 347 q 581 90 649 179 q 353 0 514 0 l 99 0 l 99 1125 m 346 79 q 473 115 431 79 q 528 209 515 150 q 540 364 540 268 l 540 783 q 525 930 540 875 q 467 1014 510 985 q 342 1043 424 1043 l 204 1043 l 204 79 l 346 79 m 199 1447 l 281 1447 l 363 1281 l 444 1447 l 526 1447 l 407 1215 l 318 1215 l 199 1447 z "},"Đ":{"ha":725,"x_min":18,"x_max":650,"o":"m 99 557 l 18 557 l 18 622 l 99 622 l 99 1125 l 346 1125 q 581 1040 511 1125 q 650 794 650 954 l 650 347 q 582 90 650 179 q 354 0 514 0 l 99 0 l 99 557 m 347 79 q 474 115 432 79 q 530 209 517 150 q 543 364 543 268 l 543 783 q 528 930 543 875 q 469 1014 513 985 q 343 1043 425 1043 l 206 1043 l 206 622 l 319 622 l 319 557 l 206 557 l 206 79 l 347 79 z "},"Ḋ":{"ha":724,"x_min":99,"x_max":649,"o":"m 99 1125 l 343 1125 q 579 1040 510 1125 q 649 794 649 954 l 649 347 q 581 90 649 179 q 353 0 514 0 l 99 0 l 99 1125 m 346 79 q 473 115 431 79 q 528 209 515 150 q 540 364 540 268 l 540 783 q 525 930 540 875 q 467 1014 510 985 q 342 1043 424 1043 l 204 1043 l 204 79 l 346 79 m 308 1411 l 417 1411 l 417 1258 l 308 1258 l 308 1411 z "},"ǲ":{"ha":1186,"x_min":99,"x_max":1149,"o":"m 99 1125 l 343 1125 q 579 1040 510 1125 q 649 794 649 954 l 649 347 q 581 90 649 179 q 353 0 514 0 l 99 0 l 99 1125 m 346 79 q 473 115 431 79 q 528 209 515 150 q 540 364 540 268 l 540 783 q 525 930 540 875 q 467 1014 510 985 q 342 1043 424 1043 l 204 1043 l 204 79 l 346 79 m 768 71 l 1042 725 l 797 725 l 797 803 l 1149 803 l 1149 742 l 876 78 l 1144 78 l 1144 0 l 768 0 l 768 71 z "},"ǅ":{"ha":1186,"x_min":99,"x_max":1149,"o":"m 99 1125 l 343 1125 q 579 1040 510 1125 q 649 794 649 954 l 649 347 q 581 90 649 179 q 353 0 514 0 l 99 0 l 99 1125 m 346 79 q 473 115 431 79 q 528 209 515 150 q 540 364 540 268 l 540 783 q 525 930 540 875 q 467 1014 510 985 q 342 1043 424 1043 l 204 1043 l 204 79 l 346 79 m 768 71 l 1042 725 l 797 725 l 797 803 l 1149 803 l 1149 742 l 876 78 l 1144 78 l 1144 0 l 768 0 l 768 71 m 792 1125 l 874 1125 l 956 958 l 1038 1125 l 1119 1125 l 1000 893 l 911 893 l 792 1125 z "},"E":{"ha":553,"x_min":97,"x_max":507,"o":"m 97 1125 l 504 1125 l 504 1043 l 204 1043 l 204 621 l 449 621 l 449 543 l 204 543 l 204 79 l 507 79 l 507 0 l 97 0 l 97 1125 z "},"É":{"ha":553,"x_min":97,"x_max":507,"o":"m 97 1125 l 504 1125 l 504 1043 l 204 1043 l 204 621 l 449 621 l 449 543 l 204 543 l 204 79 l 507 79 l 507 0 l 97 0 l 97 1125 m 367 1464 l 468 1464 l 332 1192 l 279 1192 l 367 1464 z "},"Ĕ":{"ha":553,"x_min":97,"x_max":507,"o":"m 97 1125 l 504 1125 l 504 1043 l 204 1043 l 204 621 l 449 621 l 449 543 l 204 543 l 204 79 l 507 79 l 507 0 l 97 0 l 97 1125 m 304 1211 q 182 1254 224 1211 q 138 1378 140 1297 l 203 1378 q 304 1272 204 1272 q 408 1378 403 1272 l 472 1378 q 428 1255 471 1299 q 304 1211 385 1211 z "},"Ě":{"ha":553,"x_min":97,"x_max":507,"o":"m 97 1125 l 504 1125 l 504 1043 l 204 1043 l 204 621 l 449 621 l 449 543 l 204 543 l 204 79 l 507 79 l 507 0 l 97 0 l 97 1125 m 142 1447 l 224 1447 l 306 1281 l 388 1447 l 469 1447 l 350 1215 l 261 1215 l 142 1447 z "},"Ê":{"ha":553,"x_min":97,"x_max":507,"o":"m 97 1125 l 504 1125 l 504 1043 l 204 1043 l 204 621 l 449 621 l 449 543 l 204 543 l 204 79 l 507 79 l 507 0 l 97 0 l 97 1125 m 249 1447 l 363 1447 l 482 1200 l 407 1200 l 306 1396 l 204 1200 l 129 1200 l 249 1447 z "},"Ế":{"ha":553,"x_min":97,"x_max":628,"o":"m 97 1125 l 504 1125 l 504 1043 l 204 1043 l 204 621 l 449 621 l 449 543 l 204 543 l 204 79 l 507 79 l 507 0 l 97 0 l 97 1125 m 535 1492 l 628 1492 l 529 1332 l 461 1332 l 535 1492 m 249 1403 l 363 1403 l 482 1200 l 407 1200 l 306 1353 l 204 1200 l 129 1200 l 249 1403 z "},"Ệ":{"ha":553,"x_min":97,"x_max":507,"o":"m 97 1125 l 504 1125 l 504 1043 l 204 1043 l 204 621 l 449 621 l 449 543 l 204 543 l 204 79 l 507 79 l 507 0 l 97 0 l 97 1125 m 249 1403 l 363 1403 l 482 1200 l 407 1200 l 306 1353 l 204 1200 l 129 1200 l 249 1403 m 240 -85 l 349 -85 l 349 -208 l 240 -208 l 240 -85 z "},"Ề":{"ha":553,"x_min":97,"x_max":564,"o":"m 97 1125 l 504 1125 l 504 1043 l 204 1043 l 204 621 l 449 621 l 449 543 l 204 543 l 204 79 l 507 79 l 507 0 l 97 0 l 97 1125 m 397 1492 l 490 1492 l 564 1332 l 497 1332 l 397 1492 m 249 1403 l 363 1403 l 482 1200 l 407 1200 l 306 1353 l 204 1200 l 129 1200 l 249 1403 z "},"Ể":{"ha":553,"x_min":97,"x_max":592,"o":"m 97 1125 l 504 1125 l 504 1043 l 204 1043 l 204 621 l 449 621 l 449 543 l 204 543 l 204 79 l 507 79 l 507 0 l 97 0 l 97 1125 m 449 1360 q 498 1397 482 1379 q 514 1438 514 1414 q 497 1474 514 1461 q 451 1486 481 1486 q 388 1476 418 1486 l 388 1529 q 474 1542 432 1542 q 560 1517 528 1542 q 592 1444 592 1492 q 564 1371 592 1400 q 486 1319 536 1342 l 449 1360 m 249 1403 l 363 1403 l 482 1200 l 407 1200 l 306 1353 l 204 1200 l 129 1200 l 249 1403 z "},"Ễ":{"ha":553,"x_min":97,"x_max":507,"o":"m 97 1125 l 504 1125 l 504 1043 l 204 1043 l 204 621 l 449 621 l 449 543 l 204 543 l 204 79 l 507 79 l 507 0 l 97 0 l 97 1125 m 249 1403 l 363 1403 l 482 1200 l 407 1200 l 306 1353 l 204 1200 l 129 1200 l 249 1403 m 390 1469 q 347 1479 367 1469 q 300 1507 328 1489 q 262 1529 276 1522 q 232 1536 247 1536 q 188 1481 188 1536 l 125 1481 q 147 1565 125 1526 q 221 1603 168 1603 q 265 1594 244 1603 q 311 1567 286 1585 q 349 1544 335 1551 q 379 1538 364 1538 q 414 1551 403 1538 q 425 1597 425 1565 l 486 1597 q 466 1508 486 1546 q 390 1469 446 1469 z "},"Ȅ":{"ha":553,"x_min":68,"x_max":507,"o":"m 97 1125 l 504 1125 l 504 1043 l 204 1043 l 204 621 l 449 621 l 449 543 l 204 543 l 204 79 l 507 79 l 507 0 l 97 0 l 97 1125 m 68 1447 l 176 1447 l 254 1231 l 201 1231 l 68 1447 m 257 1447 l 347 1447 l 404 1231 l 353 1231 l 257 1447 z "},"Ë":{"ha":553,"x_min":97,"x_max":507,"o":"m 97 1125 l 504 1125 l 504 1043 l 204 1043 l 204 621 l 449 621 l 449 543 l 204 543 l 204 79 l 507 79 l 507 0 l 97 0 l 97 1125 m 140 1447 l 244 1447 l 244 1324 l 140 1324 l 140 1447 m 369 1447 l 474 1447 l 474 1324 l 369 1324 l 369 1447 z "},"Ė":{"ha":553,"x_min":97,"x_max":507,"o":"m 97 1125 l 504 1125 l 504 1043 l 204 1043 l 204 621 l 449 621 l 449 543 l 204 543 l 204 79 l 507 79 l 507 0 l 97 0 l 97 1125 m 251 1411 l 360 1411 l 360 1258 l 251 1258 l 251 1411 z "},"Ẹ":{"ha":553,"x_min":97,"x_max":507,"o":"m 97 1125 l 504 1125 l 504 1043 l 204 1043 l 204 621 l 449 621 l 449 543 l 204 543 l 204 79 l 507 79 l 507 0 l 97 0 l 97 1125 m 240 -85 l 349 -85 l 349 -208 l 240 -208 l 240 -85 z "},"È":{"ha":553,"x_min":97,"x_max":507,"o":"m 97 1125 l 504 1125 l 504 1043 l 204 1043 l 204 621 l 449 621 l 449 543 l 204 543 l 204 79 l 507 79 l 507 0 l 97 0 l 97 1125 m 151 1464 l 254 1464 l 331 1192 l 279 1192 l 151 1464 z "},"Ẻ":{"ha":553,"x_min":97,"x_max":507,"o":"m 97 1125 l 504 1125 l 504 1043 l 204 1043 l 204 621 l 449 621 l 449 543 l 204 543 l 204 79 l 507 79 l 507 0 l 97 0 l 97 1125 m 268 1267 q 326 1303 307 1286 q 344 1344 344 1321 q 272 1394 344 1394 q 207 1386 242 1394 l 207 1439 q 296 1449 250 1449 q 388 1424 356 1449 q 421 1351 421 1400 q 391 1279 421 1307 q 306 1226 361 1251 l 268 1267 z "},"Ȇ":{"ha":553,"x_min":97,"x_max":507,"o":"m 97 1125 l 504 1125 l 504 1043 l 204 1043 l 204 621 l 449 621 l 449 543 l 204 543 l 204 79 l 507 79 l 507 0 l 97 0 l 97 1125 m 138 1274 q 182 1402 140 1357 q 306 1447 224 1447 q 430 1402 389 1447 q 474 1274 471 1357 l 408 1274 q 381 1359 407 1333 q 306 1385 354 1385 q 231 1359 257 1385 q 203 1274 204 1333 l 138 1274 z "},"Ē":{"ha":553,"x_min":97,"x_max":507,"o":"m 97 1125 l 504 1125 l 504 1043 l 204 1043 l 204 621 l 449 621 l 449 543 l 204 543 l 204 79 l 507 79 l 507 0 l 97 0 l 97 1125 m 181 1356 l 431 1356 l 431 1286 l 181 1286 l 181 1356 z "},"Ę":{"ha":553,"x_min":97,"x_max":507,"o":"m 97 1125 l 504 1125 l 504 1043 l 204 1043 l 204 621 l 449 621 l 449 543 l 204 543 l 204 79 l 507 79 l 507 0 l 97 0 l 97 1125 m 444 -294 q 328 -267 371 -294 q 285 -181 285 -240 q 322 -77 285 -126 q 411 0 358 -28 l 465 0 q 363 -169 363 -97 q 392 -224 363 -207 q 468 -240 422 -240 q 500 -237 481 -240 l 485 -292 q 444 -294 463 -294 z "},"Ẽ":{"ha":553,"x_min":97,"x_max":507,"o":"m 97 1125 l 504 1125 l 504 1043 l 204 1043 l 204 621 l 449 621 l 449 543 l 204 543 l 204 79 l 507 79 l 507 0 l 97 0 l 97 1125 m 390 1283 q 347 1293 367 1283 q 300 1321 328 1303 q 262 1343 276 1336 q 232 1350 247 1350 q 188 1294 188 1350 l 125 1294 q 147 1378 125 1340 q 221 1417 168 1417 q 265 1408 244 1417 q 311 1381 286 1399 q 349 1358 335 1365 q 379 1351 364 1351 q 414 1365 403 1351 q 425 1411 425 1379 l 486 1411 q 466 1322 486 1360 q 390 1283 446 1283 z "},"F":{"ha":536,"x_min":99,"x_max":503,"o":"m 99 1125 l 503 1125 l 503 1046 l 204 1046 l 204 622 l 453 622 l 453 544 l 204 544 l 204 0 l 99 0 l 99 1125 z "},"Ḟ":{"ha":536,"x_min":99,"x_max":503,"o":"m 99 1125 l 503 1125 l 503 1046 l 204 1046 l 204 622 l 453 622 l 453 544 l 204 544 l 204 0 l 99 0 l 99 1125 m 215 1411 l 324 1411 l 324 1258 l 215 1258 l 215 1411 z "},"G":{"ha":721,"x_min":75,"x_max":636,"o":"m 353 -15 q 138 77 201 -15 q 75 343 75 169 l 75 782 q 138 1047 75 957 q 360 1136 200 1136 q 569 1055 506 1136 q 632 813 632 974 l 632 774 l 532 774 l 532 813 q 496 995 532 939 q 361 1051 460 1051 q 248 1019 288 1051 q 195 933 208 988 q 182 793 182 878 l 182 331 q 220 135 182 199 q 363 71 258 71 q 500 135 461 71 q 539 333 539 200 l 539 465 l 372 465 l 372 544 l 636 544 l 636 0 l 568 0 l 556 128 q 483 22 532 60 q 353 -15 435 -15 z "},"Ǵ":{"ha":721,"x_min":75,"x_max":636,"o":"m 353 -15 q 138 77 201 -15 q 75 343 75 169 l 75 782 q 138 1047 75 957 q 360 1136 200 1136 q 569 1055 506 1136 q 632 813 632 974 l 632 774 l 532 774 l 532 813 q 496 995 532 939 q 361 1051 460 1051 q 248 1019 288 1051 q 195 933 208 988 q 182 793 182 878 l 182 331 q 220 135 182 199 q 363 71 258 71 q 500 135 461 71 q 539 333 539 200 l 539 465 l 372 465 l 372 544 l 636 544 l 636 0 l 568 0 l 556 128 q 483 22 532 60 q 353 -15 435 -15 m 422 1464 l 524 1464 l 388 1192 l 335 1192 l 422 1464 z "},"Ğ":{"ha":721,"x_min":75,"x_max":636,"o":"m 353 -15 q 138 77 201 -15 q 75 343 75 169 l 75 782 q 138 1047 75 957 q 360 1136 200 1136 q 569 1055 506 1136 q 632 813 632 974 l 632 774 l 532 774 l 532 813 q 496 995 532 939 q 361 1051 460 1051 q 248 1019 288 1051 q 195 933 208 988 q 182 793 182 878 l 182 331 q 220 135 182 199 q 363 71 258 71 q 500 135 461 71 q 539 333 539 200 l 539 465 l 372 465 l 372 544 l 636 544 l 636 0 l 568 0 l 556 128 q 483 22 532 60 q 353 -15 435 -15 m 360 1211 q 238 1254 279 1211 q 193 1378 196 1297 l 258 1378 q 360 1272 260 1272 q 464 1378 458 1272 l 528 1378 q 483 1255 526 1299 q 360 1211 440 1211 z "},"Ǧ":{"ha":721,"x_min":75,"x_max":636,"o":"m 353 -15 q 138 77 201 -15 q 75 343 75 169 l 75 782 q 138 1047 75 957 q 360 1136 200 1136 q 569 1055 506 1136 q 632 813 632 974 l 632 774 l 532 774 l 532 813 q 496 995 532 939 q 361 1051 460 1051 q 248 1019 288 1051 q 195 933 208 988 q 182 793 182 878 l 182 331 q 220 135 182 199 q 363 71 258 71 q 500 135 461 71 q 539 333 539 200 l 539 465 l 372 465 l 372 544 l 636 544 l 636 0 l 568 0 l 556 128 q 483 22 532 60 q 353 -15 435 -15 m 197 1447 l 279 1447 l 361 1281 l 443 1447 l 525 1447 l 406 1215 l 317 1215 l 197 1447 z "},"Ĝ":{"ha":721,"x_min":75,"x_max":636,"o":"m 353 -15 q 138 77 201 -15 q 75 343 75 169 l 75 782 q 138 1047 75 957 q 360 1136 200 1136 q 569 1055 506 1136 q 632 813 632 974 l 632 774 l 532 774 l 532 813 q 496 995 532 939 q 361 1051 460 1051 q 248 1019 288 1051 q 195 933 208 988 q 182 793 182 878 l 182 331 q 220 135 182 199 q 363 71 258 71 q 500 135 461 71 q 539 333 539 200 l 539 465 l 372 465 l 372 544 l 636 544 l 636 0 l 568 0 l 556 128 q 483 22 532 60 q 353 -15 435 -15 m 304 1447 l 418 1447 l 538 1200 l 463 1200 l 361 1396 l 260 1200 l 185 1200 l 304 1447 z "},"Ģ":{"ha":721,"x_min":75,"x_max":636,"o":"m 353 -15 q 138 77 201 -15 q 75 343 75 169 l 75 782 q 138 1047 75 957 q 360 1136 200 1136 q 569 1055 506 1136 q 632 813 632 974 l 632 774 l 532 774 l 532 813 q 496 995 532 939 q 361 1051 460 1051 q 248 1019 288 1051 q 195 933 208 988 q 182 793 182 878 l 182 331 q 220 135 182 199 q 363 71 258 71 q 500 135 461 71 q 539 333 539 200 l 539 465 l 372 465 l 372 544 l 636 544 l 636 0 l 568 0 l 556 128 q 483 22 532 60 q 353 -15 435 -15 m 301 -312 q 367 -207 367 -285 l 307 -207 l 307 -85 l 421 -85 l 419 -193 q 400 -304 419 -265 q 326 -358 381 -343 l 301 -312 z "},"Ġ":{"ha":721,"x_min":75,"x_max":636,"o":"m 353 -15 q 138 77 201 -15 q 75 343 75 169 l 75 782 q 138 1047 75 957 q 360 1136 200 1136 q 569 1055 506 1136 q 632 813 632 974 l 632 774 l 532 774 l 532 813 q 496 995 532 939 q 361 1051 460 1051 q 248 1019 288 1051 q 195 933 208 988 q 182 793 182 878 l 182 331 q 220 135 182 199 q 363 71 258 71 q 500 135 461 71 q 539 333 539 200 l 539 465 l 372 465 l 372 544 l 636 544 l 636 0 l 568 0 l 556 128 q 483 22 532 60 q 353 -15 435 -15 m 307 1411 l 415 1411 l 415 1258 l 307 1258 l 307 1411 z "},"H":{"ha":763,"x_min":97,"x_max":664,"o":"m 97 1125 l 204 1125 l 204 626 l 558 626 l 558 1125 l 664 1125 l 664 0 l 558 0 l 558 547 l 204 547 l 204 0 l 97 0 l 97 1125 z "},"Ħ":{"ha":763,"x_min":40,"x_max":722,"o":"m 97 878 l 40 878 l 40 936 l 97 936 l 97 1125 l 204 1125 l 204 936 l 558 936 l 558 1125 l 664 1125 l 664 936 l 722 936 l 722 878 l 664 878 l 664 0 l 558 0 l 558 547 l 204 547 l 204 0 l 97 0 l 97 878 m 558 626 l 558 878 l 204 878 l 204 626 l 558 626 z "},"Ĥ":{"ha":763,"x_min":97,"x_max":664,"o":"m 97 1125 l 204 1125 l 204 626 l 558 626 l 558 1125 l 664 1125 l 664 0 l 558 0 l 558 547 l 204 547 l 204 0 l 97 0 l 97 1125 m 325 1447 l 439 1447 l 558 1200 l 483 1200 l 382 1396 l 281 1200 l 206 1200 l 325 1447 z "},"I":{"ha":308,"x_min":101,"x_max":207,"o":"m 101 1125 l 207 1125 l 207 0 l 101 0 l 101 1125 z "},"Ĳ":{"ha":696,"x_min":101,"x_max":597,"o":"m 101 1125 l 207 1125 l 207 0 l 101 0 l 101 1125 m 319 31 q 434 45 399 31 q 481 99 469 60 q 492 226 492 138 l 492 1125 l 597 1125 l 597 221 q 580 64 597 121 q 514 -21 563 7 q 371 -49 465 -49 l 319 -49 l 319 31 z "},"Í":{"ha":308,"x_min":101,"x_max":317,"o":"m 101 1125 l 207 1125 l 207 0 l 101 0 l 101 1125 m 215 1464 l 317 1464 l 181 1192 l 128 1192 l 215 1464 z "},"Ĭ":{"ha":308,"x_min":-14,"x_max":321,"o":"m 101 1125 l 207 1125 l 207 0 l 101 0 l 101 1125 m 153 1211 q 31 1254 72 1211 q -14 1378 -11 1297 l 51 1378 q 153 1272 53 1272 q 257 1378 251 1272 l 321 1378 q 276 1255 319 1299 q 153 1211 233 1211 z "},"Î":{"ha":308,"x_min":-22,"x_max":331,"o":"m 101 1125 l 207 1125 l 207 0 l 101 0 l 101 1125 m 97 1447 l 211 1447 l 331 1200 l 256 1200 l 154 1396 l 53 1200 l -22 1200 l 97 1447 z "},"Ȉ":{"ha":308,"x_min":-83,"x_max":253,"o":"m 101 1125 l 207 1125 l 207 0 l 101 0 l 101 1125 m -83 1447 l 25 1447 l 103 1231 l 50 1231 l -83 1447 m 106 1447 l 196 1447 l 253 1231 l 201 1231 l 106 1447 z "},"Ï":{"ha":308,"x_min":-11,"x_max":322,"o":"m 101 1125 l 207 1125 l 207 0 l 101 0 l 101 1125 m -11 1447 l 93 1447 l 93 1324 l -11 1324 l -11 1447 m 218 1447 l 322 1447 l 322 1324 l 218 1324 l 218 1447 z "},"İ":{"ha":308,"x_min":100,"x_max":208,"o":"m 101 1125 l 207 1125 l 207 0 l 101 0 l 101 1125 m 100 1411 l 208 1411 l 208 1258 l 100 1258 l 100 1411 z "},"Ị":{"ha":308,"x_min":100,"x_max":208,"o":"m 101 1125 l 207 1125 l 207 0 l 101 0 l 101 1125 m 100 -85 l 208 -85 l 208 -208 l 100 -208 l 100 -85 z "},"Ì":{"ha":308,"x_min":0,"x_max":207,"o":"m 101 1125 l 207 1125 l 207 0 l 101 0 l 101 1125 m 0 1464 l 103 1464 l 179 1192 l 128 1192 l 0 1464 z "},"Ỉ":{"ha":308,"x_min":56,"x_max":269,"o":"m 101 1125 l 207 1125 l 207 0 l 101 0 l 101 1125 m 117 1267 q 174 1303 156 1286 q 193 1344 193 1321 q 121 1394 193 1394 q 56 1386 90 1394 l 56 1439 q 144 1449 99 1449 q 237 1424 204 1449 q 269 1351 269 1400 q 240 1279 269 1307 q 154 1226 210 1251 l 117 1267 z "},"Ȋ":{"ha":308,"x_min":-14,"x_max":322,"o":"m 101 1125 l 207 1125 l 207 0 l 101 0 l 101 1125 m -14 1274 q 31 1402 -11 1357 q 154 1447 72 1447 q 278 1402 238 1447 q 322 1274 319 1357 l 257 1274 q 229 1359 256 1333 q 154 1385 203 1385 q 79 1359 106 1385 q 51 1274 53 1333 l -14 1274 z "},"Ī":{"ha":308,"x_min":29,"x_max":279,"o":"m 101 1125 l 207 1125 l 207 0 l 101 0 l 101 1125 m 29 1356 l 279 1356 l 279 1286 l 29 1286 l 29 1356 z "},"Į":{"ha":308,"x_min":1,"x_max":217,"o":"m 101 1125 l 207 1125 l 207 0 l 101 0 l 101 1125 m 161 -294 q 44 -267 88 -294 q 1 -181 1 -240 q 38 -77 1 -126 q 128 0 75 -28 l 182 0 q 79 -169 79 -97 q 109 -224 79 -207 q 185 -240 139 -240 q 217 -237 197 -240 l 201 -292 q 161 -294 179 -294 z "},"Ĩ":{"ha":308,"x_min":-26,"x_max":335,"o":"m 101 1125 l 207 1125 l 207 0 l 101 0 l 101 1125 m 239 1283 q 196 1293 215 1283 q 149 1321 176 1303 q 110 1343 125 1336 q 81 1350 96 1350 q 36 1294 36 1350 l -26 1294 q -5 1378 -26 1340 q 69 1417 17 1417 q 114 1408 93 1417 q 160 1381 135 1399 q 198 1358 183 1365 q 228 1351 213 1351 q 263 1365 251 1351 q 274 1411 274 1379 l 335 1411 q 315 1322 335 1360 q 239 1283 294 1283 z "},"J":{"ha":388,"x_min":11,"x_max":289,"o":"m 11 31 q 126 45 90 31 q 172 99 161 60 q 183 226 183 138 l 183 1125 l 289 1125 l 289 221 q 272 64 289 121 q 206 -21 254 7 q 63 -49 157 -49 l 11 -49 l 11 31 z "},"Ĵ":{"ha":388,"x_min":11,"x_max":413,"o":"m 11 31 q 126 45 90 31 q 172 99 161 60 q 183 226 183 138 l 183 1125 l 289 1125 l 289 221 q 272 64 289 121 q 206 -21 254 7 q 63 -49 157 -49 l 11 -49 l 11 31 m 179 1447 l 293 1447 l 413 1200 l 338 1200 l 236 1396 l 135 1200 l 60 1200 l 179 1447 z "},"K":{"ha":657,"x_min":97,"x_max":656,"o":"m 97 1125 l 204 1125 l 204 531 l 504 1125 l 606 1125 l 375 642 l 656 0 l 551 0 l 304 563 l 204 379 l 204 0 l 97 0 l 97 1125 z "},"Ķ":{"ha":657,"x_min":97,"x_max":656,"o":"m 97 1125 l 204 1125 l 204 531 l 504 1125 l 606 1125 l 375 642 l 656 0 l 551 0 l 304 563 l 204 379 l 204 0 l 97 0 l 97 1125 m 269 -312 q 335 -207 335 -285 l 275 -207 l 275 -85 l 389 -85 l 388 -193 q 368 -304 388 -265 q 294 -358 349 -343 l 269 -312 z "},"L":{"ha":531,"x_min":99,"x_max":524,"o":"m 99 1125 l 204 1125 l 204 79 l 524 79 l 524 0 l 99 0 l 99 1125 z "},"Ǉ":{"ha":918,"x_min":99,"x_max":819,"o":"m 99 1125 l 204 1125 l 204 79 l 524 79 l 524 0 l 99 0 l 99 1125 m 542 31 q 656 45 621 31 q 703 99 692 60 q 714 226 714 138 l 714 1125 l 819 1125 l 819 221 q 802 64 819 121 q 736 -21 785 7 q 593 -49 688 -49 l 542 -49 l 542 31 z "},"Ĺ":{"ha":531,"x_min":99,"x_max":524,"o":"m 99 1125 l 204 1125 l 204 79 l 524 79 l 524 0 l 99 0 l 99 1125 m 213 1464 l 314 1464 l 178 1192 l 125 1192 l 213 1464 z "},"Ľ":{"ha":531,"x_min":99,"x_max":524,"o":"m 99 1125 l 204 1125 l 204 79 l 524 79 l 524 0 l 99 0 l 99 1125 m 406 857 q 457 905 442 878 q 472 974 472 932 l 411 974 l 411 1125 l 524 1125 l 524 985 q 501 878 524 917 q 426 813 479 839 l 406 857 z "},"Ļ":{"ha":531,"x_min":99,"x_max":524,"o":"m 99 1125 l 204 1125 l 204 79 l 524 79 l 524 0 l 99 0 l 99 1125 m 251 -312 q 317 -207 317 -285 l 257 -207 l 257 -85 l 371 -85 l 369 -193 q 350 -304 369 -265 q 276 -358 331 -343 l 251 -312 z "},"Ŀ":{"ha":531,"x_min":99,"x_max":524,"o":"m 99 1125 l 204 1125 l 204 79 l 524 79 l 524 0 l 99 0 l 99 1125 m 375 658 l 457 658 l 457 536 l 375 536 l 375 658 z "},"ǈ":{"ha":826,"x_min":99,"x_max":739,"o":"m 99 1125 l 204 1125 l 204 79 l 524 79 l 524 0 l 99 0 l 99 1125 m 638 1051 l 739 1051 l 739 914 l 638 914 l 638 1051 m 561 -211 q 507 -206 522 -211 l 507 -128 q 542 -131 518 -131 q 618 -101 599 -131 q 638 -19 638 -71 l 638 803 l 739 803 l 739 -28 q 561 -211 739 -211 z "},"Ł":{"ha":531,"x_min":0,"x_max":524,"o":"m 99 550 l 0 499 l 0 582 l 99 635 l 99 1125 l 204 1125 l 204 692 l 364 776 l 364 693 l 204 608 l 204 79 l 524 79 l 524 0 l 99 0 l 99 550 z "},"M":{"ha":893,"x_min":89,"x_max":804,"o":"m 117 1125 l 222 1125 l 444 149 l 671 1125 l 776 1125 l 804 0 l 717 0 l 694 896 l 479 0 l 411 0 l 199 894 l 176 0 l 89 0 l 117 1125 z "},"Ṁ":{"ha":893,"x_min":89,"x_max":804,"o":"m 117 1125 l 222 1125 l 444 149 l 671 1125 l 776 1125 l 804 0 l 717 0 l 694 896 l 479 0 l 411 0 l 199 894 l 176 0 l 89 0 l 117 1125 m 392 1411 l 500 1411 l 500 1258 l 392 1258 l 392 1411 z "},"N":{"ha":722,"x_min":99,"x_max":625,"o":"m 99 1125 l 175 1125 l 533 251 l 533 1125 l 625 1125 l 625 0 l 550 0 l 190 883 l 190 0 l 99 0 l 99 1125 z "},"Ǌ":{"ha":1110,"x_min":99,"x_max":1011,"o":"m 99 1125 l 175 1125 l 533 251 l 533 1125 l 625 1125 l 625 0 l 550 0 l 190 883 l 190 0 l 99 0 l 99 1125 m 733 31 q 848 45 813 31 q 894 99 883 60 q 906 226 906 138 l 906 1125 l 1011 1125 l 1011 221 q 994 64 1011 121 q 928 -21 976 7 q 785 -49 879 -49 l 733 -49 l 733 31 z "},"Ń":{"ha":722,"x_min":99,"x_max":625,"o":"m 99 1125 l 175 1125 l 533 251 l 533 1125 l 625 1125 l 625 0 l 550 0 l 190 883 l 190 0 l 99 0 l 99 1125 m 422 1464 l 524 1464 l 388 1192 l 335 1192 l 422 1464 z "},"Ň":{"ha":722,"x_min":99,"x_max":625,"o":"m 99 1125 l 175 1125 l 533 251 l 533 1125 l 625 1125 l 625 0 l 550 0 l 190 883 l 190 0 l 99 0 l 99 1125 m 197 1447 l 279 1447 l 361 1281 l 443 1447 l 525 1447 l 406 1215 l 317 1215 l 197 1447 z "},"Ņ":{"ha":722,"x_min":99,"x_max":625,"o":"m 99 1125 l 175 1125 l 533 251 l 533 1125 l 625 1125 l 625 0 l 550 0 l 190 883 l 190 0 l 99 0 l 99 1125 m 301 -312 q 367 -207 367 -285 l 307 -207 l 307 -85 l 421 -85 l 419 -193 q 400 -304 419 -265 q 326 -358 381 -343 l 301 -312 z "},"Ŋ":{"ha":743,"x_min":99,"x_max":625,"o":"m 388 -144 q 483 -132 451 -144 q 526 -91 515 -119 q 536 -7 536 -62 l 536 32 l 185 883 l 185 0 l 99 0 l 99 1125 l 175 1125 l 539 251 l 539 1125 l 625 1125 l 625 0 q 584 -166 625 -114 q 433 -218 543 -218 l 388 -218 l 388 -144 z "},"ǋ":{"ha":1018,"x_min":99,"x_max":931,"o":"m 99 1125 l 175 1125 l 533 251 l 533 1125 l 625 1125 l 625 0 l 550 0 l 190 883 l 190 0 l 99 0 l 99 1125 m 829 1051 l 931 1051 l 931 914 l 829 914 l 829 1051 m 753 -211 q 699 -206 714 -211 l 699 -128 q 733 -131 710 -131 q 810 -101 790 -131 q 829 -19 829 -71 l 829 803 l 931 803 l 931 -28 q 753 -211 931 -211 z "},"Ñ":{"ha":722,"x_min":99,"x_max":625,"o":"m 99 1125 l 175 1125 l 533 251 l 533 1125 l 625 1125 l 625 0 l 550 0 l 190 883 l 190 0 l 99 0 l 99 1125 m 446 1283 q 403 1293 422 1283 q 356 1321 383 1303 q 317 1343 332 1336 q 288 1350 303 1350 q 243 1294 243 1350 l 181 1294 q 202 1378 181 1340 q 276 1417 224 1417 q 321 1408 300 1417 q 367 1381 342 1399 q 405 1358 390 1365 q 435 1351 419 1351 q 469 1365 458 1351 q 481 1411 481 1379 l 542 1411 q 522 1322 542 1360 q 446 1283 501 1283 z "},"O":{"ha":729,"x_min":75,"x_max":653,"o":"m 365 -14 q 141 76 207 -14 q 75 332 75 167 l 75 799 q 142 1049 75 963 q 365 1136 208 1136 q 586 1049 519 1136 q 653 799 653 961 l 653 331 q 588 76 653 165 q 365 -14 522 -14 m 365 71 q 507 131 468 71 q 546 308 546 192 l 546 818 q 508 993 546 935 q 365 1051 469 1051 q 221 994 260 1051 q 182 818 182 936 l 182 308 q 221 131 182 190 q 365 71 260 71 z "},"Ó":{"ha":729,"x_min":75,"x_max":653,"o":"m 365 -14 q 141 76 207 -14 q 75 332 75 167 l 75 799 q 142 1049 75 963 q 365 1136 208 1136 q 586 1049 519 1136 q 653 799 653 961 l 653 331 q 588 76 653 165 q 365 -14 522 -14 m 365 71 q 507 131 468 71 q 546 308 546 192 l 546 818 q 508 993 546 935 q 365 1051 469 1051 q 221 994 260 1051 q 182 818 182 936 l 182 308 q 221 131 182 190 q 365 71 260 71 m 426 1464 l 528 1464 l 392 1192 l 339 1192 l 426 1464 z "},"Ŏ":{"ha":729,"x_min":75,"x_max":653,"o":"m 365 -14 q 141 76 207 -14 q 75 332 75 167 l 75 799 q 142 1049 75 963 q 365 1136 208 1136 q 586 1049 519 1136 q 653 799 653 961 l 653 331 q 588 76 653 165 q 365 -14 522 -14 m 365 71 q 507 131 468 71 q 546 308 546 192 l 546 818 q 508 993 546 935 q 365 1051 469 1051 q 221 994 260 1051 q 182 818 182 936 l 182 308 q 221 131 182 190 q 365 71 260 71 m 364 1211 q 242 1254 283 1211 q 197 1378 200 1297 l 263 1378 q 364 1272 264 1272 q 468 1378 463 1272 l 532 1378 q 488 1255 531 1299 q 364 1211 444 1211 z "},"Ô":{"ha":729,"x_min":75,"x_max":653,"o":"m 365 -14 q 141 76 207 -14 q 75 332 75 167 l 75 799 q 142 1049 75 963 q 365 1136 208 1136 q 586 1049 519 1136 q 653 799 653 961 l 653 331 q 588 76 653 165 q 365 -14 522 -14 m 365 71 q 507 131 468 71 q 546 308 546 192 l 546 818 q 508 993 546 935 q 365 1051 469 1051 q 221 994 260 1051 q 182 818 182 936 l 182 308 q 221 131 182 190 q 365 71 260 71 m 308 1447 l 422 1447 l 542 1200 l 467 1200 l 365 1396 l 264 1200 l 189 1200 l 308 1447 z "},"Ố":{"ha":729,"x_min":75,"x_max":688,"o":"m 365 -14 q 141 76 207 -14 q 75 332 75 167 l 75 799 q 142 1049 75 963 q 365 1136 208 1136 q 586 1049 519 1136 q 653 799 653 961 l 653 331 q 588 76 653 165 q 365 -14 522 -14 m 365 71 q 507 131 468 71 q 546 308 546 192 l 546 818 q 508 993 546 935 q 365 1051 469 1051 q 221 994 260 1051 q 182 818 182 936 l 182 308 q 221 131 182 190 q 365 71 260 71 m 594 1492 l 688 1492 l 589 1332 l 521 1332 l 594 1492 m 308 1403 l 422 1403 l 542 1200 l 467 1200 l 365 1353 l 264 1200 l 189 1200 l 308 1403 z "},"Ộ":{"ha":729,"x_min":75,"x_max":653,"o":"m 365 -14 q 141 76 207 -14 q 75 332 75 167 l 75 799 q 142 1049 75 963 q 365 1136 208 1136 q 586 1049 519 1136 q 653 799 653 961 l 653 331 q 588 76 653 165 q 365 -14 522 -14 m 365 71 q 507 131 468 71 q 546 308 546 192 l 546 818 q 508 993 546 935 q 365 1051 469 1051 q 221 994 260 1051 q 182 818 182 936 l 182 308 q 221 131 182 190 q 365 71 260 71 m 308 1403 l 422 1403 l 542 1200 l 467 1200 l 365 1353 l 264 1200 l 189 1200 l 308 1403 m 311 -85 l 419 -85 l 419 -208 l 311 -208 l 311 -85 z "},"Ồ":{"ha":729,"x_min":75,"x_max":653,"o":"m 365 -14 q 141 76 207 -14 q 75 332 75 167 l 75 799 q 142 1049 75 963 q 365 1136 208 1136 q 586 1049 519 1136 q 653 799 653 961 l 653 331 q 588 76 653 165 q 365 -14 522 -14 m 365 71 q 507 131 468 71 q 546 308 546 192 l 546 818 q 508 993 546 935 q 365 1051 469 1051 q 221 994 260 1051 q 182 818 182 936 l 182 308 q 221 131 182 190 q 365 71 260 71 m 457 1492 l 550 1492 l 624 1332 l 557 1332 l 457 1492 m 308 1403 l 422 1403 l 542 1200 l 467 1200 l 365 1353 l 264 1200 l 189 1200 l 308 1403 z "},"Ổ":{"ha":729,"x_min":75,"x_max":653,"o":"m 365 -14 q 141 76 207 -14 q 75 332 75 167 l 75 799 q 142 1049 75 963 q 365 1136 208 1136 q 586 1049 519 1136 q 653 799 653 961 l 653 331 q 588 76 653 165 q 365 -14 522 -14 m 365 71 q 507 131 468 71 q 546 308 546 192 l 546 818 q 508 993 546 935 q 365 1051 469 1051 q 221 994 260 1051 q 182 818 182 936 l 182 308 q 221 131 182 190 q 365 71 260 71 m 508 1360 q 558 1397 542 1379 q 574 1438 574 1414 q 557 1474 574 1461 q 511 1486 540 1486 q 447 1476 478 1486 l 447 1529 q 533 1542 492 1542 q 619 1517 588 1542 q 651 1444 651 1492 q 624 1371 651 1400 q 546 1319 596 1342 l 508 1360 m 308 1403 l 422 1403 l 542 1200 l 467 1200 l 365 1353 l 264 1200 l 189 1200 l 308 1403 z "},"Ỗ":{"ha":729,"x_min":75,"x_max":653,"o":"m 365 -14 q 141 76 207 -14 q 75 332 75 167 l 75 799 q 142 1049 75 963 q 365 1136 208 1136 q 586 1049 519 1136 q 653 799 653 961 l 653 331 q 588 76 653 165 q 365 -14 522 -14 m 365 71 q 507 131 468 71 q 546 308 546 192 l 546 818 q 508 993 546 935 q 365 1051 469 1051 q 221 994 260 1051 q 182 818 182 936 l 182 308 q 221 131 182 190 q 365 71 260 71 m 308 1403 l 422 1403 l 542 1200 l 467 1200 l 365 1353 l 264 1200 l 189 1200 l 308 1403 m 450 1469 q 407 1479 426 1469 q 360 1507 388 1489 q 322 1529 336 1522 q 292 1536 307 1536 q 247 1481 247 1536 l 185 1481 q 206 1565 185 1526 q 281 1603 228 1603 q 325 1594 304 1603 q 371 1567 346 1585 q 409 1544 394 1551 q 439 1538 424 1538 q 474 1551 463 1538 q 485 1597 485 1565 l 546 1597 q 526 1508 546 1546 q 450 1469 506 1469 z "},"Ȍ":{"ha":729,"x_min":75,"x_max":653,"o":"m 365 -14 q 141 76 207 -14 q 75 332 75 167 l 75 799 q 142 1049 75 963 q 365 1136 208 1136 q 586 1049 519 1136 q 653 799 653 961 l 653 331 q 588 76 653 165 q 365 -14 522 -14 m 365 71 q 507 131 468 71 q 546 308 546 192 l 546 818 q 508 993 546 935 q 365 1051 469 1051 q 221 994 260 1051 q 182 818 182 936 l 182 308 q 221 131 182 190 q 365 71 260 71 m 128 1447 l 236 1447 l 314 1231 l 261 1231 l 128 1447 m 317 1447 l 407 1447 l 464 1231 l 413 1231 l 317 1447 z "},"Ö":{"ha":729,"x_min":75,"x_max":653,"o":"m 365 -14 q 141 76 207 -14 q 75 332 75 167 l 75 799 q 142 1049 75 963 q 365 1136 208 1136 q 586 1049 519 1136 q 653 799 653 961 l 653 331 q 588 76 653 165 q 365 -14 522 -14 m 365 71 q 507 131 468 71 q 546 308 546 192 l 546 818 q 508 993 546 935 q 365 1051 469 1051 q 221 994 260 1051 q 182 818 182 936 l 182 308 q 221 131 182 190 q 365 71 260 71 m 200 1447 l 304 1447 l 304 1324 l 200 1324 l 200 1447 m 429 1447 l 533 1447 l 533 1324 l 429 1324 l 429 1447 z "},"Ȫ":{"ha":729,"x_min":75,"x_max":653,"o":"m 365 -14 q 141 76 207 -14 q 75 332 75 167 l 75 799 q 142 1049 75 963 q 365 1136 208 1136 q 586 1049 519 1136 q 653 799 653 961 l 653 331 q 588 76 653 165 q 365 -14 522 -14 m 365 71 q 507 131 468 71 q 546 308 546 192 l 546 818 q 508 993 546 935 q 365 1051 469 1051 q 221 994 260 1051 q 182 818 182 936 l 182 308 q 221 131 182 190 q 365 71 260 71 m 200 1447 l 304 1447 l 304 1324 l 200 1324 l 200 1447 m 429 1447 l 533 1447 l 533 1324 l 429 1324 l 429 1447 m 240 1678 l 490 1678 l 490 1608 l 240 1608 l 240 1678 z "},"Ȱ":{"ha":729,"x_min":75,"x_max":653,"o":"m 365 -14 q 141 76 207 -14 q 75 332 75 167 l 75 799 q 142 1049 75 963 q 365 1136 208 1136 q 586 1049 519 1136 q 653 799 653 961 l 653 331 q 588 76 653 165 q 365 -14 522 -14 m 365 71 q 507 131 468 71 q 546 308 546 192 l 546 818 q 508 993 546 935 q 365 1051 469 1051 q 221 994 260 1051 q 182 818 182 936 l 182 308 q 221 131 182 190 q 365 71 260 71 m 311 1411 l 419 1411 l 419 1258 l 311 1258 l 311 1411 m 240 1642 l 490 1642 l 490 1572 l 240 1572 l 240 1642 z "},"Ọ":{"ha":729,"x_min":75,"x_max":653,"o":"m 365 -14 q 141 76 207 -14 q 75 332 75 167 l 75 799 q 142 1049 75 963 q 365 1136 208 1136 q 586 1049 519 1136 q 653 799 653 961 l 653 331 q 588 76 653 165 q 365 -14 522 -14 m 365 71 q 507 131 468 71 q 546 308 546 192 l 546 818 q 508 993 546 935 q 365 1051 469 1051 q 221 994 260 1051 q 182 818 182 936 l 182 308 q 221 131 182 190 q 365 71 260 71 m 311 -85 l 419 -85 l 419 -208 l 311 -208 l 311 -85 z "},"Ò":{"ha":729,"x_min":75,"x_max":653,"o":"m 365 -14 q 141 76 207 -14 q 75 332 75 167 l 75 799 q 142 1049 75 963 q 365 1136 208 1136 q 586 1049 519 1136 q 653 799 653 961 l 653 331 q 588 76 653 165 q 365 -14 522 -14 m 365 71 q 507 131 468 71 q 546 308 546 192 l 546 818 q 508 993 546 935 q 365 1051 469 1051 q 221 994 260 1051 q 182 818 182 936 l 182 308 q 221 131 182 190 q 365 71 260 71 m 211 1464 l 314 1464 l 390 1192 l 339 1192 l 211 1464 z "},"Ỏ":{"ha":729,"x_min":75,"x_max":653,"o":"m 365 -14 q 141 76 207 -14 q 75 332 75 167 l 75 799 q 142 1049 75 963 q 365 1136 208 1136 q 586 1049 519 1136 q 653 799 653 961 l 653 331 q 588 76 653 165 q 365 -14 522 -14 m 365 71 q 507 131 468 71 q 546 308 546 192 l 546 818 q 508 993 546 935 q 365 1051 469 1051 q 221 994 260 1051 q 182 818 182 936 l 182 308 q 221 131 182 190 q 365 71 260 71 m 328 1267 q 385 1303 367 1286 q 404 1344 404 1321 q 332 1394 404 1394 q 267 1386 301 1394 l 267 1439 q 356 1449 310 1449 q 448 1424 415 1449 q 481 1351 481 1400 q 451 1279 481 1307 q 365 1226 421 1251 l 328 1267 z "},"Ơ":{"ha":729,"x_min":75,"x_max":653,"o":"m 550 1085 q 653 799 653 1007 l 653 331 q 588 76 653 165 q 365 -14 522 -14 q 141 76 207 -14 q 75 332 75 167 l 75 799 q 142 1049 75 963 q 365 1136 208 1136 q 463 1125 415 1136 q 520 1147 503 1125 q 538 1218 538 1169 l 617 1218 q 550 1085 617 1119 m 546 818 q 508 993 546 935 q 365 1051 469 1051 q 221 994 260 1051 q 182 818 182 936 l 182 308 q 221 131 182 190 q 365 71 260 71 q 507 131 468 71 q 546 308 546 192 l 546 818 z "},"Ớ":{"ha":729,"x_min":75,"x_max":653,"o":"m 550 1085 q 653 799 653 1007 l 653 331 q 588 76 653 165 q 365 -14 522 -14 q 141 76 207 -14 q 75 332 75 167 l 75 799 q 142 1049 75 963 q 365 1136 208 1136 q 463 1125 415 1136 q 520 1147 503 1125 q 538 1218 538 1169 l 617 1218 q 550 1085 617 1119 m 546 818 q 508 993 546 935 q 365 1051 469 1051 q 221 994 260 1051 q 182 818 182 936 l 182 308 q 221 131 182 190 q 365 71 260 71 q 507 131 468 71 q 546 308 546 192 l 546 818 m 426 1464 l 528 1464 l 392 1192 l 339 1192 l 426 1464 z "},"Ợ":{"ha":729,"x_min":75,"x_max":653,"o":"m 550 1085 q 653 799 653 1007 l 653 331 q 588 76 653 165 q 365 -14 522 -14 q 141 76 207 -14 q 75 332 75 167 l 75 799 q 142 1049 75 963 q 365 1136 208 1136 q 463 1125 415 1136 q 520 1147 503 1125 q 538 1218 538 1169 l 617 1218 q 550 1085 617 1119 m 546 818 q 508 993 546 935 q 365 1051 469 1051 q 221 994 260 1051 q 182 818 182 936 l 182 308 q 221 131 182 190 q 365 71 260 71 q 507 131 468 71 q 546 308 546 192 l 546 818 m 311 -85 l 419 -85 l 419 -208 l 311 -208 l 311 -85 z "},"Ờ":{"ha":729,"x_min":75,"x_max":653,"o":"m 550 1085 q 653 799 653 1007 l 653 331 q 588 76 653 165 q 365 -14 522 -14 q 141 76 207 -14 q 75 332 75 167 l 75 799 q 142 1049 75 963 q 365 1136 208 1136 q 463 1125 415 1136 q 520 1147 503 1125 q 538 1218 538 1169 l 617 1218 q 550 1085 617 1119 m 546 818 q 508 993 546 935 q 365 1051 469 1051 q 221 994 260 1051 q 182 818 182 936 l 182 308 q 221 131 182 190 q 365 71 260 71 q 507 131 468 71 q 546 308 546 192 l 546 818 m 211 1464 l 314 1464 l 390 1192 l 339 1192 l 211 1464 z "},"Ở":{"ha":729,"x_min":75,"x_max":653,"o":"m 550 1085 q 653 799 653 1007 l 653 331 q 588 76 653 165 q 365 -14 522 -14 q 141 76 207 -14 q 75 332 75 167 l 75 799 q 142 1049 75 963 q 365 1136 208 1136 q 463 1125 415 1136 q 520 1147 503 1125 q 538 1218 538 1169 l 617 1218 q 550 1085 617 1119 m 546 818 q 508 993 546 935 q 365 1051 469 1051 q 221 994 260 1051 q 182 818 182 936 l 182 308 q 221 131 182 190 q 365 71 260 71 q 507 131 468 71 q 546 308 546 192 l 546 818 m 328 1267 q 385 1303 367 1286 q 404 1344 404 1321 q 332 1394 404 1394 q 267 1386 301 1394 l 267 1439 q 356 1449 310 1449 q 448 1424 415 1449 q 481 1351 481 1400 q 451 1279 481 1307 q 365 1226 421 1251 l 328 1267 z "},"Ỡ":{"ha":729,"x_min":75,"x_max":653,"o":"m 550 1085 q 653 799 653 1007 l 653 331 q 588 76 653 165 q 365 -14 522 -14 q 141 76 207 -14 q 75 332 75 167 l 75 799 q 142 1049 75 963 q 365 1136 208 1136 q 463 1125 415 1136 q 520 1147 503 1125 q 538 1218 538 1169 l 617 1218 q 550 1085 617 1119 m 546 818 q 508 993 546 935 q 365 1051 469 1051 q 221 994 260 1051 q 182 818 182 936 l 182 308 q 221 131 182 190 q 365 71 260 71 q 507 131 468 71 q 546 308 546 192 l 546 818 m 450 1283 q 407 1293 426 1283 q 360 1321 388 1303 q 322 1343 336 1336 q 292 1350 307 1350 q 247 1294 247 1350 l 185 1294 q 206 1378 185 1340 q 281 1417 228 1417 q 325 1408 304 1417 q 371 1381 346 1399 q 409 1358 394 1365 q 439 1351 424 1351 q 474 1365 463 1351 q 485 1411 485 1379 l 546 1411 q 526 1322 546 1360 q 450 1283 506 1283 z "},"Ő":{"ha":729,"x_min":75,"x_max":653,"o":"m 365 -14 q 141 76 207 -14 q 75 332 75 167 l 75 799 q 142 1049 75 963 q 365 1136 208 1136 q 586 1049 519 1136 q 653 799 653 961 l 653 331 q 588 76 653 165 q 365 -14 522 -14 m 365 71 q 507 131 468 71 q 546 308 546 192 l 546 818 q 508 993 546 935 q 365 1051 469 1051 q 221 994 260 1051 q 182 818 182 936 l 182 308 q 221 131 182 190 q 365 71 260 71 m 329 1457 l 421 1457 l 329 1235 l 275 1235 l 329 1457 m 494 1457 l 604 1457 l 474 1235 l 418 1235 l 494 1457 z "},"Ȏ":{"ha":729,"x_min":75,"x_max":653,"o":"m 365 -14 q 141 76 207 -14 q 75 332 75 167 l 75 799 q 142 1049 75 963 q 365 1136 208 1136 q 586 1049 519 1136 q 653 799 653 961 l 653 331 q 588 76 653 165 q 365 -14 522 -14 m 365 71 q 507 131 468 71 q 546 308 546 192 l 546 818 q 508 993 546 935 q 365 1051 469 1051 q 221 994 260 1051 q 182 818 182 936 l 182 308 q 221 131 182 190 q 365 71 260 71 m 197 1274 q 242 1402 200 1357 q 365 1447 283 1447 q 490 1402 449 1447 q 533 1274 531 1357 l 468 1274 q 440 1359 467 1333 q 365 1385 414 1385 q 290 1359 317 1385 q 263 1274 264 1333 l 197 1274 z "},"Ō":{"ha":729,"x_min":75,"x_max":653,"o":"m 365 -14 q 141 76 207 -14 q 75 332 75 167 l 75 799 q 142 1049 75 963 q 365 1136 208 1136 q 586 1049 519 1136 q 653 799 653 961 l 653 331 q 588 76 653 165 q 365 -14 522 -14 m 365 71 q 507 131 468 71 q 546 308 546 192 l 546 818 q 508 993 546 935 q 365 1051 469 1051 q 221 994 260 1051 q 182 818 182 936 l 182 308 q 221 131 182 190 q 365 71 260 71 m 240 1356 l 490 1356 l 490 1286 l 240 1286 l 240 1356 z "},"Ǫ":{"ha":729,"x_min":75,"x_max":653,"o":"m 365 1136 q 586 1049 519 1136 q 653 799 653 961 l 653 331 q 605 102 653 189 q 444 -7 557 15 q 349 -169 349 -100 q 378 -224 349 -207 q 454 -240 408 -240 q 486 -237 467 -240 l 471 -292 q 431 -294 449 -294 q 314 -267 357 -294 q 271 -181 271 -240 q 300 -87 271 -132 q 374 -14 329 -43 l 365 -14 q 141 76 207 -14 q 75 332 75 167 l 75 799 q 142 1049 75 963 q 365 1136 208 1136 m 546 818 q 508 993 546 935 q 365 1051 469 1051 q 221 994 260 1051 q 182 818 182 936 l 182 308 q 221 131 182 190 q 365 71 260 71 q 507 131 468 71 q 546 308 546 192 l 546 818 z "},"Ø":{"ha":735,"x_min":75,"x_max":653,"o":"m 536 1093 q 653 799 653 1018 l 653 331 q 588 76 653 165 q 365 -14 522 -14 q 232 8 290 -14 l 196 -121 l 153 -108 l 192 29 q 102 147 129 69 q 75 332 75 224 l 75 799 q 142 1049 75 963 q 365 1136 208 1136 q 496 1114 438 1136 l 531 1236 l 574 1225 l 536 1093 m 182 308 q 190 205 182 249 q 221 132 199 161 l 472 1026 q 365 1051 432 1051 q 221 994 260 1051 q 182 818 182 936 l 182 308 m 546 818 q 538 920 546 878 q 508 992 529 963 l 257 97 q 365 71 299 71 q 507 131 468 71 q 546 308 546 192 l 546 818 z "},"Ǿ":{"ha":735,"x_min":75,"x_max":653,"o":"m 536 1093 q 653 799 653 1018 l 653 331 q 588 76 653 165 q 365 -14 522 -14 q 232 8 290 -14 l 196 -121 l 153 -108 l 192 29 q 102 147 129 69 q 75 332 75 224 l 75 799 q 142 1049 75 963 q 365 1136 208 1136 q 496 1114 438 1136 l 531 1236 l 574 1225 l 536 1093 m 182 308 q 190 205 182 249 q 221 132 199 161 l 472 1026 q 365 1051 432 1051 q 221 994 260 1051 q 182 818 182 936 l 182 308 m 546 818 q 538 920 546 878 q 508 992 529 963 l 257 97 q 365 71 299 71 q 507 131 468 71 q 546 308 546 192 l 546 818 m 429 1464 l 531 1464 l 394 1192 l 342 1192 l 429 1464 z "},"Õ":{"ha":729,"x_min":75,"x_max":653,"o":"m 365 -14 q 141 76 207 -14 q 75 332 75 167 l 75 799 q 142 1049 75 963 q 365 1136 208 1136 q 586 1049 519 1136 q 653 799 653 961 l 653 331 q 588 76 653 165 q 365 -14 522 -14 m 365 71 q 507 131 468 71 q 546 308 546 192 l 546 818 q 508 993 546 935 q 365 1051 469 1051 q 221 994 260 1051 q 182 818 182 936 l 182 308 q 221 131 182 190 q 365 71 260 71 m 450 1283 q 407 1293 426 1283 q 360 1321 388 1303 q 322 1343 336 1336 q 292 1350 307 1350 q 247 1294 247 1350 l 185 1294 q 206 1378 185 1340 q 281 1417 228 1417 q 325 1408 304 1417 q 371 1381 346 1399 q 409 1358 394 1365 q 439 1351 424 1351 q 474 1365 463 1351 q 485 1411 485 1379 l 546 1411 q 526 1322 546 1360 q 450 1283 506 1283 z "},"Ȭ":{"ha":729,"x_min":75,"x_max":653,"o":"m 365 -14 q 141 76 207 -14 q 75 332 75 167 l 75 799 q 142 1049 75 963 q 365 1136 208 1136 q 586 1049 519 1136 q 653 799 653 961 l 653 331 q 588 76 653 165 q 365 -14 522 -14 m 365 71 q 507 131 468 71 q 546 308 546 192 l 546 818 q 508 993 546 935 q 365 1051 469 1051 q 221 994 260 1051 q 182 818 182 936 l 182 308 q 221 131 182 190 q 365 71 260 71 m 450 1283 q 407 1293 426 1283 q 360 1321 388 1303 q 322 1343 336 1336 q 292 1350 307 1350 q 247 1294 247 1350 l 185 1294 q 206 1378 185 1340 q 281 1417 228 1417 q 325 1408 304 1417 q 371 1381 346 1399 q 409 1358 394 1365 q 439 1351 424 1351 q 474 1365 463 1351 q 485 1411 485 1379 l 546 1411 q 526 1322 546 1360 q 450 1283 506 1283 m 240 1683 l 490 1683 l 490 1614 l 240 1614 l 240 1683 z "},"Œ":{"ha":894,"x_min":75,"x_max":854,"o":"m 382 0 q 144 83 214 0 q 75 328 75 167 l 75 785 q 144 1038 75 951 q 375 1125 214 1125 l 851 1125 l 851 1042 l 579 1042 l 579 625 l 806 625 l 806 546 l 579 546 l 579 82 l 854 82 l 854 0 l 382 0 m 472 83 l 472 1044 l 382 1044 q 255 1013 299 1044 q 197 924 211 982 q 182 772 182 867 l 182 333 q 198 192 182 246 q 258 111 214 139 q 383 83 301 83 l 472 83 z "},"P":{"ha":671,"x_min":99,"x_max":635,"o":"m 99 1125 l 368 1125 q 573 1047 511 1125 q 635 826 635 969 q 570 614 635 696 q 369 532 506 532 l 204 532 l 204 0 l 99 0 l 99 1125 m 339 611 q 487 659 443 611 q 531 826 531 707 q 514 960 531 914 q 457 1026 497 1007 q 340 1046 417 1046 l 204 1046 l 204 611 l 339 611 z "},"Ṗ":{"ha":671,"x_min":99,"x_max":635,"o":"m 99 1125 l 368 1125 q 573 1047 511 1125 q 635 826 635 969 q 570 614 635 696 q 369 532 506 532 l 204 532 l 204 0 l 99 0 l 99 1125 m 339 611 q 487 659 443 611 q 531 826 531 707 q 514 960 531 914 q 457 1026 497 1007 q 340 1046 417 1046 l 204 1046 l 204 611 l 339 611 m 282 1411 l 390 1411 l 390 1258 l 282 1258 l 282 1411 z "},"Þ":{"ha":700,"x_min":99,"x_max":663,"o":"m 99 1125 l 204 1125 l 204 979 l 397 979 q 599 893 535 979 q 663 665 663 807 q 597 430 663 521 q 382 339 531 339 l 204 339 l 204 0 l 99 0 l 99 1125 m 361 428 q 510 483 463 428 q 557 664 557 538 q 510 837 557 783 q 371 890 464 890 l 204 890 l 204 428 l 361 428 z "},"Q":{"ha":736,"x_min":75,"x_max":660,"o":"m 599 -221 q 403 -12 525 -185 l 367 -14 q 142 76 208 -14 q 75 332 75 167 l 75 799 q 143 1049 75 961 q 367 1136 211 1136 q 592 1049 524 1136 q 660 799 660 961 l 660 331 q 619 117 660 201 q 483 4 578 33 q 550 -74 513 -33 q 613 -132 588 -115 l 599 -221 m 367 71 q 512 131 471 71 q 553 308 553 192 l 553 818 q 513 993 553 935 q 367 1051 472 1051 q 222 993 263 1051 q 182 818 182 935 l 182 308 q 222 131 182 192 q 367 71 263 71 z "},"R":{"ha":711,"x_min":99,"x_max":649,"o":"m 99 1125 l 353 1125 q 568 1052 504 1125 q 632 839 632 979 q 597 663 632 732 q 476 575 563 593 l 649 0 l 546 0 l 381 553 l 204 553 l 204 0 l 99 0 l 99 1125 m 347 631 q 489 681 449 631 q 529 839 529 731 q 491 997 529 949 q 350 1046 453 1046 l 204 1046 l 204 631 l 347 631 z "},"Ŕ":{"ha":711,"x_min":99,"x_max":649,"o":"m 99 1125 l 353 1125 q 568 1052 504 1125 q 632 839 632 979 q 597 663 632 732 q 476 575 563 593 l 649 0 l 546 0 l 381 553 l 204 553 l 204 0 l 99 0 l 99 1125 m 347 631 q 489 681 449 631 q 529 839 529 731 q 491 997 529 949 q 350 1046 453 1046 l 204 1046 l 204 631 l 347 631 m 417 1464 l 518 1464 l 382 1192 l 329 1192 l 417 1464 z "},"Ř":{"ha":711,"x_min":99,"x_max":649,"o":"m 99 1125 l 353 1125 q 568 1052 504 1125 q 632 839 632 979 q 597 663 632 732 q 476 575 563 593 l 649 0 l 546 0 l 381 553 l 204 553 l 204 0 l 99 0 l 99 1125 m 347 631 q 489 681 449 631 q 529 839 529 731 q 491 997 529 949 q 350 1046 453 1046 l 204 1046 l 204 631 l 347 631 m 192 1447 l 274 1447 l 356 1281 l 438 1447 l 519 1447 l 400 1215 l 311 1215 l 192 1447 z "},"Ŗ":{"ha":711,"x_min":99,"x_max":649,"o":"m 99 1125 l 353 1125 q 568 1052 504 1125 q 632 839 632 979 q 597 663 632 732 q 476 575 563 593 l 649 0 l 546 0 l 381 553 l 204 553 l 204 0 l 99 0 l 99 1125 m 347 631 q 489 681 449 631 q 529 839 529 731 q 491 997 529 949 q 350 1046 453 1046 l 204 1046 l 204 631 l 347 631 m 296 -312 q 361 -207 361 -285 l 301 -207 l 301 -85 l 415 -85 l 414 -193 q 394 -304 414 -265 q 321 -358 375 -343 l 296 -312 z "},"Ȑ":{"ha":711,"x_min":99,"x_max":649,"o":"m 99 1125 l 353 1125 q 568 1052 504 1125 q 632 839 632 979 q 597 663 632 732 q 476 575 563 593 l 649 0 l 546 0 l 381 553 l 204 553 l 204 0 l 99 0 l 99 1125 m 347 631 q 489 681 449 631 q 529 839 529 731 q 491 997 529 949 q 350 1046 453 1046 l 204 1046 l 204 631 l 347 631 m 118 1447 l 226 1447 l 304 1231 l 251 1231 l 118 1447 m 307 1447 l 397 1447 l 454 1231 l 403 1231 l 307 1447 z "},"Ȓ":{"ha":711,"x_min":99,"x_max":649,"o":"m 99 1125 l 353 1125 q 568 1052 504 1125 q 632 839 632 979 q 597 663 632 732 q 476 575 563 593 l 649 0 l 546 0 l 381 553 l 204 553 l 204 0 l 99 0 l 99 1125 m 347 631 q 489 681 449 631 q 529 839 529 731 q 491 997 529 949 q 350 1046 453 1046 l 204 1046 l 204 631 l 347 631 m 188 1274 q 232 1402 190 1357 q 356 1447 274 1447 q 480 1402 439 1447 q 524 1274 521 1357 l 458 1274 q 431 1359 457 1333 q 356 1385 404 1385 q 281 1359 307 1385 q 253 1274 254 1333 l 188 1274 z "},"S":{"ha":639,"x_min":57,"x_max":596,"o":"m 338 -14 q 136 67 206 -14 q 57 292 67 149 l 150 319 q 203 136 163 200 q 339 72 244 72 q 497 235 497 72 q 465 356 497 304 q 360 478 432 408 l 161 668 q 83 774 108 719 q 58 894 58 829 q 128 1073 58 1010 q 317 1136 197 1136 q 506 1069 440 1136 q 582 851 571 1003 l 492 828 q 445 997 483 940 q 321 1053 407 1053 q 199 1016 244 1053 q 154 904 154 979 q 172 821 154 858 q 233 740 190 783 l 432 553 q 552 404 508 479 q 596 242 596 329 q 525 53 596 119 q 338 -14 454 -14 z "},"Ś":{"ha":639,"x_min":57,"x_max":596,"o":"m 338 -14 q 136 67 206 -14 q 57 292 67 149 l 150 319 q 203 136 163 200 q 339 72 244 72 q 497 235 497 72 q 465 356 497 304 q 360 478 432 408 l 161 668 q 83 774 108 719 q 58 894 58 829 q 128 1073 58 1010 q 317 1136 197 1136 q 506 1069 440 1136 q 582 851 571 1003 l 492 828 q 445 997 483 940 q 321 1053 407 1053 q 199 1016 244 1053 q 154 904 154 979 q 172 821 154 858 q 233 740 190 783 l 432 553 q 552 404 508 479 q 596 242 596 329 q 525 53 596 119 q 338 -14 454 -14 m 381 1464 l 482 1464 l 346 1192 l 293 1192 l 381 1464 z "},"Š":{"ha":639,"x_min":57,"x_max":596,"o":"m 338 -14 q 136 67 206 -14 q 57 292 67 149 l 150 319 q 203 136 163 200 q 339 72 244 72 q 497 235 497 72 q 465 356 497 304 q 360 478 432 408 l 161 668 q 83 774 108 719 q 58 894 58 829 q 128 1073 58 1010 q 317 1136 197 1136 q 506 1069 440 1136 q 582 851 571 1003 l 492 828 q 445 997 483 940 q 321 1053 407 1053 q 199 1016 244 1053 q 154 904 154 979 q 172 821 154 858 q 233 740 190 783 l 432 553 q 552 404 508 479 q 596 242 596 329 q 525 53 596 119 q 338 -14 454 -14 m 156 1447 l 238 1447 l 319 1281 l 401 1447 l 483 1447 l 364 1215 l 275 1215 l 156 1447 z "},"Ş":{"ha":639,"x_min":57,"x_max":596,"o":"m 596 242 q 528 55 596 121 q 346 -14 460 -11 l 346 -69 q 440 -99 407 -71 q 474 -174 474 -126 q 435 -256 474 -228 q 325 -283 396 -283 q 260 -276 294 -283 l 260 -224 q 304 -229 281 -229 q 396 -172 396 -229 q 292 -100 396 -112 l 292 -11 q 124 82 182 3 q 57 292 65 161 l 150 319 q 203 136 163 200 q 339 72 244 72 q 497 235 497 72 q 465 356 497 304 q 360 478 432 408 l 161 668 q 83 774 108 719 q 58 894 58 829 q 128 1073 58 1010 q 317 1136 197 1136 q 506 1069 440 1136 q 582 851 571 1003 l 492 828 q 445 997 483 940 q 321 1053 407 1053 q 199 1016 244 1053 q 154 904 154 979 q 172 821 154 858 q 233 740 190 783 l 432 553 q 552 404 508 479 q 596 242 596 329 z "},"Ŝ":{"ha":639,"x_min":57,"x_max":596,"o":"m 338 -14 q 136 67 206 -14 q 57 292 67 149 l 150 319 q 203 136 163 200 q 339 72 244 72 q 497 235 497 72 q 465 356 497 304 q 360 478 432 408 l 161 668 q 83 774 108 719 q 58 894 58 829 q 128 1073 58 1010 q 317 1136 197 1136 q 506 1069 440 1136 q 582 851 571 1003 l 492 828 q 445 997 483 940 q 321 1053 407 1053 q 199 1016 244 1053 q 154 904 154 979 q 172 821 154 858 q 233 740 190 783 l 432 553 q 552 404 508 479 q 596 242 596 329 q 525 53 596 119 q 338 -14 454 -14 m 263 1447 l 376 1447 l 496 1200 l 421 1200 l 319 1396 l 218 1200 l 143 1200 l 263 1447 z "},"Ș":{"ha":639,"x_min":57,"x_max":596,"o":"m 338 -14 q 136 67 206 -14 q 57 292 67 149 l 150 319 q 203 136 163 200 q 339 72 244 72 q 497 235 497 72 q 465 356 497 304 q 360 478 432 408 l 161 668 q 83 774 108 719 q 58 894 58 829 q 128 1073 58 1010 q 317 1136 197 1136 q 506 1069 440 1136 q 582 851 571 1003 l 492 828 q 445 997 483 940 q 321 1053 407 1053 q 199 1016 244 1053 q 154 904 154 979 q 172 821 154 858 q 233 740 190 783 l 432 553 q 552 404 508 479 q 596 242 596 329 q 525 53 596 119 q 338 -14 454 -14 m 260 -312 q 325 -207 325 -285 l 265 -207 l 265 -85 l 379 -85 l 378 -193 q 358 -304 378 -265 q 285 -358 339 -343 l 260 -312 z "},"Ṡ":{"ha":639,"x_min":57,"x_max":596,"o":"m 338 -14 q 136 67 206 -14 q 57 292 67 149 l 150 319 q 203 136 163 200 q 339 72 244 72 q 497 235 497 72 q 465 356 497 304 q 360 478 432 408 l 161 668 q 83 774 108 719 q 58 894 58 829 q 128 1073 58 1010 q 317 1136 197 1136 q 506 1069 440 1136 q 582 851 571 1003 l 492 828 q 445 997 483 940 q 321 1053 407 1053 q 199 1016 244 1053 q 154 904 154 979 q 172 821 154 858 q 233 740 190 783 l 432 553 q 552 404 508 479 q 596 242 596 329 q 525 53 596 119 q 338 -14 454 -14 m 265 1411 l 374 1411 l 374 1258 l 265 1258 l 265 1411 z "},"ẞ":{"ha":713,"x_min":83,"x_max":667,"o":"m 428 642 q 667 319 667 617 q 598 70 667 153 q 399 -12 529 -12 l 324 -12 l 324 69 l 371 69 q 516 127 469 69 q 563 315 563 185 q 516 512 563 451 q 371 572 469 572 l 339 572 l 338 656 l 554 1021 q 400 1051 486 1051 q 244 993 299 1051 q 190 824 190 935 l 190 0 l 83 0 l 83 817 q 163 1050 83 964 q 393 1136 242 1136 q 638 1079 526 1136 l 638 994 l 428 642 z "},"Ə":{"ha":724,"x_min":69,"x_max":647,"o":"m 360 -14 q 135 76 201 -14 q 69 332 69 167 l 69 585 l 540 585 l 540 818 q 502 994 540 936 q 360 1051 464 1051 q 215 994 254 1051 q 176 818 176 936 l 176 714 l 69 714 l 69 799 q 136 1049 69 963 q 360 1136 203 1136 q 581 1049 514 1136 q 647 799 647 961 l 647 331 q 582 76 647 165 q 360 -14 517 -14 m 360 71 q 501 131 463 71 q 540 308 540 192 l 540 500 l 176 500 l 176 308 q 215 131 176 190 q 360 71 254 71 z "},"T":{"ha":539,"x_min":-7,"x_max":546,"o":"m 219 1043 l -7 1043 l -7 1125 l 546 1125 l 546 1043 l 325 1043 l 325 0 l 219 0 l 219 1043 z "},"Ŧ":{"ha":539,"x_min":-7,"x_max":546,"o":"m 325 1043 l 325 631 l 478 631 l 478 565 l 325 565 l 325 0 l 219 0 l 219 565 l 58 565 l 58 631 l 219 631 l 219 1043 l -7 1043 l -7 1125 l 546 1125 l 546 1043 l 325 1043 z "},"Ť":{"ha":539,"x_min":-7,"x_max":546,"o":"m 219 1043 l -7 1043 l -7 1125 l 546 1125 l 546 1043 l 325 1043 l 325 0 l 219 0 l 219 1043 m 106 1447 l 188 1447 l 269 1281 l 351 1447 l 433 1447 l 314 1215 l 225 1215 l 106 1447 z "},"Ţ":{"ha":539,"x_min":-7,"x_max":546,"o":"m 219 1043 l -7 1043 l -7 1125 l 546 1125 l 546 1043 l 325 1043 l 325 0 l 219 0 l 219 1043 m 275 -283 q 210 -276 244 -283 l 210 -224 q 254 -229 231 -229 q 346 -172 346 -229 q 242 -100 346 -112 l 242 0 l 296 0 l 296 -69 q 390 -99 357 -71 q 424 -174 424 -126 q 385 -256 424 -228 q 275 -283 346 -283 z "},"Ț":{"ha":539,"x_min":-7,"x_max":546,"o":"m 219 1043 l -7 1043 l -7 1125 l 546 1125 l 546 1043 l 325 1043 l 325 0 l 219 0 l 219 1043 m 210 -312 q 275 -207 275 -285 l 215 -207 l 215 -85 l 329 -85 l 328 -193 q 308 -304 328 -265 q 235 -358 289 -343 l 210 -312 z "},"Ṫ":{"ha":539,"x_min":-7,"x_max":546,"o":"m 219 1043 l -7 1043 l -7 1125 l 546 1125 l 546 1043 l 325 1043 l 325 0 l 219 0 l 219 1043 m 215 1411 l 324 1411 l 324 1258 l 215 1258 l 215 1411 z "},"U":{"ha":746,"x_min":86,"x_max":660,"o":"m 374 -14 q 149 69 211 -14 q 86 307 86 151 l 86 1125 l 189 1125 l 189 304 q 228 132 189 193 q 374 71 268 71 q 517 133 475 71 q 558 304 558 194 l 558 1125 l 660 1125 l 660 307 q 595 70 660 154 q 374 -14 531 -14 z "},"Ú":{"ha":746,"x_min":86,"x_max":660,"o":"m 374 -14 q 149 69 211 -14 q 86 307 86 151 l 86 1125 l 189 1125 l 189 304 q 228 132 189 193 q 374 71 268 71 q 517 133 475 71 q 558 304 558 194 l 558 1125 l 660 1125 l 660 307 q 595 70 660 154 q 374 -14 531 -14 m 435 1464 l 536 1464 l 400 1192 l 347 1192 l 435 1464 z "},"Ŭ":{"ha":746,"x_min":86,"x_max":660,"o":"m 374 -14 q 149 69 211 -14 q 86 307 86 151 l 86 1125 l 189 1125 l 189 304 q 228 132 189 193 q 374 71 268 71 q 517 133 475 71 q 558 304 558 194 l 558 1125 l 660 1125 l 660 307 q 595 70 660 154 q 374 -14 531 -14 m 372 1211 q 250 1254 292 1211 q 206 1378 208 1297 l 271 1378 q 372 1272 272 1272 q 476 1378 471 1272 l 540 1378 q 496 1255 539 1299 q 372 1211 453 1211 z "},"Û":{"ha":746,"x_min":86,"x_max":660,"o":"m 374 -14 q 149 69 211 -14 q 86 307 86 151 l 86 1125 l 189 1125 l 189 304 q 228 132 189 193 q 374 71 268 71 q 517 133 475 71 q 558 304 558 194 l 558 1125 l 660 1125 l 660 307 q 595 70 660 154 q 374 -14 531 -14 m 317 1447 l 431 1447 l 550 1200 l 475 1200 l 374 1396 l 272 1200 l 197 1200 l 317 1447 z "},"Ȕ":{"ha":746,"x_min":86,"x_max":660,"o":"m 374 -14 q 149 69 211 -14 q 86 307 86 151 l 86 1125 l 189 1125 l 189 304 q 228 132 189 193 q 374 71 268 71 q 517 133 475 71 q 558 304 558 194 l 558 1125 l 660 1125 l 660 307 q 595 70 660 154 q 374 -14 531 -14 m 136 1447 l 244 1447 l 322 1231 l 269 1231 l 136 1447 m 325 1447 l 415 1447 l 472 1231 l 421 1231 l 325 1447 z "},"Ü":{"ha":746,"x_min":86,"x_max":660,"o":"m 374 -14 q 149 69 211 -14 q 86 307 86 151 l 86 1125 l 189 1125 l 189 304 q 228 132 189 193 q 374 71 268 71 q 517 133 475 71 q 558 304 558 194 l 558 1125 l 660 1125 l 660 307 q 595 70 660 154 q 374 -14 531 -14 m 208 1447 l 313 1447 l 313 1324 l 208 1324 l 208 1447 m 438 1447 l 542 1447 l 542 1324 l 438 1324 l 438 1447 z "},"Ụ":{"ha":746,"x_min":86,"x_max":660,"o":"m 374 -14 q 149 69 211 -14 q 86 307 86 151 l 86 1125 l 189 1125 l 189 304 q 228 132 189 193 q 374 71 268 71 q 517 133 475 71 q 558 304 558 194 l 558 1125 l 660 1125 l 660 307 q 595 70 660 154 q 374 -14 531 -14 m 319 -85 l 428 -85 l 428 -208 l 319 -208 l 319 -85 z "},"Ù":{"ha":746,"x_min":86,"x_max":660,"o":"m 374 -14 q 149 69 211 -14 q 86 307 86 151 l 86 1125 l 189 1125 l 189 304 q 228 132 189 193 q 374 71 268 71 q 517 133 475 71 q 558 304 558 194 l 558 1125 l 660 1125 l 660 307 q 595 70 660 154 q 374 -14 531 -14 m 219 1464 l 322 1464 l 399 1192 l 347 1192 l 219 1464 z "},"Ủ":{"ha":746,"x_min":86,"x_max":660,"o":"m 374 -14 q 149 69 211 -14 q 86 307 86 151 l 86 1125 l 189 1125 l 189 304 q 228 132 189 193 q 374 71 268 71 q 517 133 475 71 q 558 304 558 194 l 558 1125 l 660 1125 l 660 307 q 595 70 660 154 q 374 -14 531 -14 m 336 1267 q 394 1303 375 1286 q 413 1344 413 1321 q 340 1394 413 1394 q 275 1386 310 1394 l 275 1439 q 364 1449 318 1449 q 456 1424 424 1449 q 489 1351 489 1400 q 459 1279 489 1307 q 374 1226 429 1251 l 336 1267 z "},"Ư":{"ha":746,"x_min":86,"x_max":753,"o":"m 753 1218 q 660 1074 753 1101 l 660 307 q 595 70 660 154 q 374 -14 531 -14 q 149 69 211 -14 q 86 307 86 151 l 86 1125 l 189 1125 l 189 304 q 228 132 189 193 q 374 71 268 71 q 517 133 475 71 q 558 304 558 194 l 558 1125 l 599 1125 q 656 1147 639 1125 q 674 1218 674 1169 l 753 1218 z "},"Ứ":{"ha":746,"x_min":86,"x_max":753,"o":"m 753 1218 q 660 1074 753 1101 l 660 307 q 595 70 660 154 q 374 -14 531 -14 q 149 69 211 -14 q 86 307 86 151 l 86 1125 l 189 1125 l 189 304 q 228 132 189 193 q 374 71 268 71 q 517 133 475 71 q 558 304 558 194 l 558 1125 l 599 1125 q 656 1147 639 1125 q 674 1218 674 1169 l 753 1218 m 435 1464 l 536 1464 l 400 1192 l 347 1192 l 435 1464 z "},"Ự":{"ha":746,"x_min":86,"x_max":753,"o":"m 753 1218 q 660 1074 753 1101 l 660 307 q 595 70 660 154 q 374 -14 531 -14 q 149 69 211 -14 q 86 307 86 151 l 86 1125 l 189 1125 l 189 304 q 228 132 189 193 q 374 71 268 71 q 517 133 475 71 q 558 304 558 194 l 558 1125 l 599 1125 q 656 1147 639 1125 q 674 1218 674 1169 l 753 1218 m 319 -85 l 428 -85 l 428 -208 l 319 -208 l 319 -85 z "},"Ừ":{"ha":746,"x_min":86,"x_max":753,"o":"m 753 1218 q 660 1074 753 1101 l 660 307 q 595 70 660 154 q 374 -14 531 -14 q 149 69 211 -14 q 86 307 86 151 l 86 1125 l 189 1125 l 189 304 q 228 132 189 193 q 374 71 268 71 q 517 133 475 71 q 558 304 558 194 l 558 1125 l 599 1125 q 656 1147 639 1125 q 674 1218 674 1169 l 753 1218 m 219 1464 l 322 1464 l 399 1192 l 347 1192 l 219 1464 z "},"Ử":{"ha":746,"x_min":86,"x_max":753,"o":"m 753 1218 q 660 1074 753 1101 l 660 307 q 595 70 660 154 q 374 -14 531 -14 q 149 69 211 -14 q 86 307 86 151 l 86 1125 l 189 1125 l 189 304 q 228 132 189 193 q 374 71 268 71 q 517 133 475 71 q 558 304 558 194 l 558 1125 l 599 1125 q 656 1147 639 1125 q 674 1218 674 1169 l 753 1218 m 336 1267 q 394 1303 375 1286 q 413 1344 413 1321 q 340 1394 413 1394 q 275 1386 310 1394 l 275 1439 q 364 1449 318 1449 q 456 1424 424 1449 q 489 1351 489 1400 q 459 1279 489 1307 q 374 1226 429 1251 l 336 1267 z "},"Ữ":{"ha":746,"x_min":86,"x_max":753,"o":"m 753 1218 q 660 1074 753 1101 l 660 307 q 595 70 660 154 q 374 -14 531 -14 q 149 69 211 -14 q 86 307 86 151 l 86 1125 l 189 1125 l 189 304 q 228 132 189 193 q 374 71 268 71 q 517 133 475 71 q 558 304 558 194 l 558 1125 l 599 1125 q 656 1147 639 1125 q 674 1218 674 1169 l 753 1218 m 458 1283 q 415 1293 435 1283 q 368 1321 396 1303 q 330 1343 344 1336 q 300 1350 315 1350 q 256 1294 256 1350 l 193 1294 q 215 1378 193 1340 q 289 1417 236 1417 q 333 1408 313 1417 q 379 1381 354 1399 q 417 1358 403 1365 q 447 1351 432 1351 q 482 1365 471 1351 q 493 1411 493 1379 l 554 1411 q 534 1322 554 1360 q 458 1283 514 1283 z "},"Ű":{"ha":746,"x_min":86,"x_max":660,"o":"m 374 -14 q 149 69 211 -14 q 86 307 86 151 l 86 1125 l 189 1125 l 189 304 q 228 132 189 193 q 374 71 268 71 q 517 133 475 71 q 558 304 558 194 l 558 1125 l 660 1125 l 660 307 q 595 70 660 154 q 374 -14 531 -14 m 338 1457 l 429 1457 l 338 1235 l 283 1235 l 338 1457 m 503 1457 l 613 1457 l 482 1235 l 426 1235 l 503 1457 z "},"Ȗ":{"ha":746,"x_min":86,"x_max":660,"o":"m 374 -14 q 149 69 211 -14 q 86 307 86 151 l 86 1125 l 189 1125 l 189 304 q 228 132 189 193 q 374 71 268 71 q 517 133 475 71 q 558 304 558 194 l 558 1125 l 660 1125 l 660 307 q 595 70 660 154 q 374 -14 531 -14 m 206 1274 q 250 1402 208 1357 q 374 1447 292 1447 q 498 1402 457 1447 q 542 1274 539 1357 l 476 1274 q 449 1359 475 1333 q 374 1385 422 1385 q 299 1359 325 1385 q 271 1274 272 1333 l 206 1274 z "},"Ū":{"ha":746,"x_min":86,"x_max":660,"o":"m 374 -14 q 149 69 211 -14 q 86 307 86 151 l 86 1125 l 189 1125 l 189 304 q 228 132 189 193 q 374 71 268 71 q 517 133 475 71 q 558 304 558 194 l 558 1125 l 660 1125 l 660 307 q 595 70 660 154 q 374 -14 531 -14 m 249 1356 l 499 1356 l 499 1286 l 249 1286 l 249 1356 z "},"Ų":{"ha":746,"x_min":86,"x_max":660,"o":"m 660 1125 l 660 307 q 614 97 660 176 q 458 -6 568 17 q 363 -169 363 -99 q 392 -224 363 -207 q 468 -240 422 -240 q 500 -237 481 -240 l 485 -292 q 444 -294 463 -294 q 328 -267 371 -294 q 285 -181 285 -240 q 314 -87 285 -132 q 388 -14 343 -43 l 374 -14 q 149 69 211 -14 q 86 307 86 151 l 86 1125 l 189 1125 l 189 304 q 228 132 189 193 q 374 71 268 71 q 517 133 475 71 q 558 304 558 194 l 558 1125 l 660 1125 z "},"Ů":{"ha":746,"x_min":86,"x_max":660,"o":"m 374 -14 q 149 69 211 -14 q 86 307 86 151 l 86 1125 l 189 1125 l 189 304 q 228 132 189 193 q 374 71 268 71 q 517 133 475 71 q 558 304 558 194 l 558 1125 l 660 1125 l 660 307 q 595 70 660 154 q 374 -14 531 -14 m 374 1196 q 278 1231 317 1196 q 240 1328 240 1265 q 278 1425 240 1390 q 374 1460 317 1460 q 469 1425 431 1460 q 507 1328 507 1390 q 469 1231 507 1265 q 374 1196 431 1196 m 374 1251 q 428 1271 407 1251 q 450 1328 450 1290 q 428 1386 450 1367 q 374 1406 407 1406 q 319 1386 340 1406 q 297 1328 297 1367 q 319 1271 297 1290 q 374 1251 340 1251 z "},"Ũ":{"ha":746,"x_min":86,"x_max":660,"o":"m 374 -14 q 149 69 211 -14 q 86 307 86 151 l 86 1125 l 189 1125 l 189 304 q 228 132 189 193 q 374 71 268 71 q 517 133 475 71 q 558 304 558 194 l 558 1125 l 660 1125 l 660 307 q 595 70 660 154 q 374 -14 531 -14 m 458 1283 q 415 1293 435 1283 q 368 1321 396 1303 q 330 1343 344 1336 q 300 1350 315 1350 q 256 1294 256 1350 l 193 1294 q 215 1378 193 1340 q 289 1417 236 1417 q 333 1408 313 1417 q 379 1381 354 1399 q 417 1358 403 1365 q 447 1351 432 1351 q 482 1365 471 1351 q 493 1411 493 1379 l 554 1411 q 534 1322 554 1360 q 458 1283 514 1283 z "},"V":{"ha":679,"x_min":33,"x_max":647,"o":"m 33 1125 l 135 1125 l 347 193 l 547 1125 l 647 1125 l 393 0 l 297 0 l 33 1125 z "},"W":{"ha":993,"x_min":49,"x_max":944,"o":"m 49 1124 l 139 1125 l 288 211 l 457 1108 l 544 1108 l 718 210 l 856 1125 l 944 1125 l 763 0 l 681 0 l 501 928 l 325 0 l 239 0 l 49 1124 z "},"Ẃ":{"ha":993,"x_min":49,"x_max":944,"o":"m 49 1124 l 139 1125 l 288 211 l 457 1108 l 544 1108 l 718 210 l 856 1125 l 944 1125 l 763 0 l 681 0 l 501 928 l 325 0 l 239 0 l 49 1124 m 558 1464 l 660 1464 l 524 1192 l 471 1192 l 558 1464 z "},"Ŵ":{"ha":993,"x_min":49,"x_max":944,"o":"m 49 1124 l 139 1125 l 288 211 l 457 1108 l 544 1108 l 718 210 l 856 1125 l 944 1125 l 763 0 l 681 0 l 501 928 l 325 0 l 239 0 l 49 1124 m 440 1447 l 554 1447 l 674 1200 l 599 1200 l 497 1396 l 396 1200 l 321 1200 l 440 1447 z "},"Ẅ":{"ha":993,"x_min":49,"x_max":944,"o":"m 49 1124 l 139 1125 l 288 211 l 457 1108 l 544 1108 l 718 210 l 856 1125 l 944 1125 l 763 0 l 681 0 l 501 928 l 325 0 l 239 0 l 49 1124 m 332 1447 l 436 1447 l 436 1324 l 332 1324 l 332 1447 m 561 1447 l 665 1447 l 665 1324 l 561 1324 l 561 1447 z "},"Ẁ":{"ha":993,"x_min":49,"x_max":944,"o":"m 49 1124 l 139 1125 l 288 211 l 457 1108 l 544 1108 l 718 210 l 856 1125 l 944 1125 l 763 0 l 681 0 l 501 928 l 325 0 l 239 0 l 49 1124 m 343 1464 l 446 1464 l 522 1192 l 471 1192 l 343 1464 z "},"X":{"ha":643,"x_min":19,"x_max":625,"o":"m 263 586 l 22 1125 l 121 1125 l 322 676 l 515 1125 l 617 1125 l 368 574 l 625 0 l 524 0 l 310 475 l 121 0 l 19 0 l 263 586 z "},"Y":{"ha":651,"x_min":24,"x_max":628,"o":"m 278 374 l 24 1125 l 126 1125 l 329 500 l 524 1125 l 628 1125 l 381 374 l 381 0 l 278 0 l 278 374 z "},"Ý":{"ha":651,"x_min":24,"x_max":628,"o":"m 278 374 l 24 1125 l 126 1125 l 329 500 l 524 1125 l 628 1125 l 381 374 l 381 0 l 278 0 l 278 374 m 388 1464 l 489 1464 l 353 1192 l 300 1192 l 388 1464 z "},"Ŷ":{"ha":651,"x_min":24,"x_max":628,"o":"m 278 374 l 24 1125 l 126 1125 l 329 500 l 524 1125 l 628 1125 l 381 374 l 381 0 l 278 0 l 278 374 m 269 1447 l 383 1447 l 503 1200 l 428 1200 l 326 1396 l 225 1200 l 150 1200 l 269 1447 z "},"Ÿ":{"ha":651,"x_min":24,"x_max":628,"o":"m 278 374 l 24 1125 l 126 1125 l 329 500 l 524 1125 l 628 1125 l 381 374 l 381 0 l 278 0 l 278 374 m 161 1447 l 265 1447 l 265 1324 l 161 1324 l 161 1447 m 390 1447 l 494 1447 l 494 1324 l 390 1324 l 390 1447 z "},"Ỵ":{"ha":651,"x_min":24,"x_max":628,"o":"m 278 374 l 24 1125 l 126 1125 l 329 500 l 524 1125 l 628 1125 l 381 374 l 381 0 l 278 0 l 278 374 m 272 -85 l 381 -85 l 381 -208 l 272 -208 l 272 -85 z "},"Ỳ":{"ha":651,"x_min":24,"x_max":628,"o":"m 278 374 l 24 1125 l 126 1125 l 329 500 l 524 1125 l 628 1125 l 381 374 l 381 0 l 278 0 l 278 374 m 172 1464 l 275 1464 l 351 1192 l 300 1192 l 172 1464 z "},"Ỷ":{"ha":651,"x_min":24,"x_max":628,"o":"m 278 374 l 24 1125 l 126 1125 l 329 500 l 524 1125 l 628 1125 l 381 374 l 381 0 l 278 0 l 278 374 m 289 1267 q 347 1303 328 1286 q 365 1344 365 1321 q 293 1394 365 1394 q 228 1386 263 1394 l 228 1439 q 317 1449 271 1449 q 409 1424 376 1449 q 442 1351 442 1400 q 412 1279 442 1307 q 326 1226 382 1251 l 289 1267 z "},"Ȳ":{"ha":651,"x_min":24,"x_max":628,"o":"m 278 374 l 24 1125 l 126 1125 l 329 500 l 524 1125 l 628 1125 l 381 374 l 381 0 l 278 0 l 278 374 m 201 1356 l 451 1356 l 451 1286 l 201 1286 l 201 1356 z "},"Ỹ":{"ha":651,"x_min":24,"x_max":628,"o":"m 278 374 l 24 1125 l 126 1125 l 329 500 l 524 1125 l 628 1125 l 381 374 l 381 0 l 278 0 l 278 374 m 411 1283 q 368 1293 388 1283 q 321 1321 349 1303 q 283 1343 297 1336 q 253 1350 268 1350 q 208 1294 208 1350 l 146 1294 q 167 1378 146 1340 q 242 1417 189 1417 q 286 1408 265 1417 q 332 1381 307 1399 q 370 1358 356 1365 q 400 1351 385 1351 q 435 1365 424 1351 q 446 1411 446 1379 l 507 1411 q 487 1322 507 1360 q 411 1283 467 1283 z "},"Z":{"ha":565,"x_min":47,"x_max":538,"o":"m 47 79 l 424 1046 l 78 1046 l 78 1125 l 538 1125 l 538 1069 l 151 79 l 538 79 l 538 0 l 47 0 l 47 79 z "},"Ź":{"ha":565,"x_min":47,"x_max":538,"o":"m 47 79 l 424 1046 l 78 1046 l 78 1125 l 538 1125 l 538 1069 l 151 79 l 538 79 l 538 0 l 47 0 l 47 79 m 344 1464 l 446 1464 l 310 1192 l 257 1192 l 344 1464 z "},"Ž":{"ha":565,"x_min":47,"x_max":538,"o":"m 47 79 l 424 1046 l 78 1046 l 78 1125 l 538 1125 l 538 1069 l 151 79 l 538 79 l 538 0 l 47 0 l 47 79 m 119 1447 l 201 1447 l 283 1281 l 365 1447 l 447 1447 l 328 1215 l 239 1215 l 119 1447 z "},"Ż":{"ha":565,"x_min":47,"x_max":538,"o":"m 47 79 l 424 1046 l 78 1046 l 78 1125 l 538 1125 l 538 1069 l 151 79 l 538 79 l 538 0 l 47 0 l 47 79 m 229 1411 l 338 1411 l 338 1258 l 229 1258 l 229 1411 z "},"a":{"ha":551,"x_min":56,"x_max":488,"o":"m 217 -12 q 100 39 144 -12 q 56 167 56 90 q 86 297 56 246 q 182 388 117 347 q 379 488 247 428 l 379 544 q 370 661 379 619 q 340 721 361 703 q 279 739 318 739 q 167 601 167 739 l 167 572 l 67 575 l 68 599 q 126 764 72 713 q 285 815 181 815 q 435 751 390 815 q 481 550 481 688 l 481 160 q 483 71 481 121 q 488 0 485 21 l 397 0 l 382 111 q 320 23 364 58 q 217 -12 276 -12 m 249 74 q 324 102 290 74 q 379 169 358 131 l 379 419 q 242 342 282 368 q 179 282 201 317 q 157 192 157 247 q 183 103 157 132 q 249 74 208 74 z "},"á":{"ha":551,"x_min":56,"x_max":488,"o":"m 217 -12 q 100 39 144 -12 q 56 167 56 90 q 86 297 56 246 q 182 388 117 347 q 379 488 247 428 l 379 544 q 370 661 379 619 q 340 721 361 703 q 279 739 318 739 q 167 601 167 739 l 167 572 l 67 575 l 68 599 q 126 764 72 713 q 285 815 181 815 q 435 751 390 815 q 481 550 481 688 l 481 160 q 483 71 481 121 q 488 0 485 21 l 397 0 l 382 111 q 320 23 364 58 q 217 -12 276 -12 m 249 74 q 324 102 290 74 q 379 169 358 131 l 379 419 q 242 342 282 368 q 179 282 201 317 q 157 192 157 247 q 183 103 157 132 q 249 74 208 74 m 344 1142 l 446 1142 l 310 869 l 257 869 l 344 1142 z "},"ă":{"ha":551,"x_min":56,"x_max":488,"o":"m 217 -12 q 100 39 144 -12 q 56 167 56 90 q 86 297 56 246 q 182 388 117 347 q 379 488 247 428 l 379 544 q 370 661 379 619 q 340 721 361 703 q 279 739 318 739 q 167 601 167 739 l 167 572 l 67 575 l 68 599 q 126 764 72 713 q 285 815 181 815 q 435 751 390 815 q 481 550 481 688 l 481 160 q 483 71 481 121 q 488 0 485 21 l 397 0 l 382 111 q 320 23 364 58 q 217 -12 276 -12 m 249 74 q 324 102 290 74 q 379 169 358 131 l 379 419 q 242 342 282 368 q 179 282 201 317 q 157 192 157 247 q 183 103 157 132 q 249 74 208 74 m 282 889 q 160 932 201 889 q 115 1056 118 975 l 181 1056 q 282 950 182 950 q 386 1056 381 950 l 450 1056 q 406 933 449 976 q 282 889 363 889 z "},"ắ":{"ha":551,"x_min":56,"x_max":488,"o":"m 217 -12 q 100 39 144 -12 q 56 167 56 90 q 86 297 56 246 q 182 388 117 347 q 379 488 247 428 l 379 544 q 370 661 379 619 q 340 721 361 703 q 279 739 318 739 q 167 601 167 739 l 167 572 l 67 575 l 68 599 q 126 764 72 713 q 285 815 181 815 q 435 751 390 815 q 481 550 481 688 l 481 160 q 483 71 481 121 q 488 0 485 21 l 397 0 l 382 111 q 320 23 364 58 q 217 -12 276 -12 m 249 74 q 324 102 290 74 q 379 169 358 131 l 379 419 q 242 342 282 368 q 179 282 201 317 q 157 192 157 247 q 183 103 157 132 q 249 74 208 74 m 315 1265 l 418 1265 l 283 1101 l 226 1101 l 315 1265 m 282 879 q 160 922 201 879 q 115 1046 118 965 l 181 1046 q 282 940 182 940 q 386 1046 381 940 l 450 1046 q 406 923 449 967 q 282 879 363 879 z "},"ặ":{"ha":551,"x_min":56,"x_max":488,"o":"m 217 -12 q 100 39 144 -12 q 56 167 56 90 q 86 297 56 246 q 182 388 117 347 q 379 488 247 428 l 379 544 q 370 661 379 619 q 340 721 361 703 q 279 739 318 739 q 167 601 167 739 l 167 572 l 67 575 l 68 599 q 126 764 72 713 q 285 815 181 815 q 435 751 390 815 q 481 550 481 688 l 481 160 q 483 71 481 121 q 488 0 485 21 l 397 0 l 382 111 q 320 23 364 58 q 217 -12 276 -12 m 249 74 q 324 102 290 74 q 379 169 358 131 l 379 419 q 242 342 282 368 q 179 282 201 317 q 157 192 157 247 q 183 103 157 132 q 249 74 208 74 m 222 -85 l 331 -85 l 331 -208 l 222 -208 l 222 -85 m 282 889 q 160 932 201 889 q 115 1056 118 975 l 181 1056 q 282 950 182 950 q 386 1056 381 950 l 450 1056 q 406 933 449 976 q 282 889 363 889 z "},"ằ":{"ha":551,"x_min":56,"x_max":488,"o":"m 217 -12 q 100 39 144 -12 q 56 167 56 90 q 86 297 56 246 q 182 388 117 347 q 379 488 247 428 l 379 544 q 370 661 379 619 q 340 721 361 703 q 279 739 318 739 q 167 601 167 739 l 167 572 l 67 575 l 68 599 q 126 764 72 713 q 285 815 181 815 q 435 751 390 815 q 481 550 481 688 l 481 160 q 483 71 481 121 q 488 0 485 21 l 397 0 l 382 111 q 320 23 364 58 q 217 -12 276 -12 m 249 74 q 324 102 290 74 q 379 169 358 131 l 379 419 q 242 342 282 368 q 179 282 201 317 q 157 192 157 247 q 183 103 157 132 q 249 74 208 74 m 150 1265 l 253 1265 l 343 1101 l 285 1101 l 150 1265 m 282 879 q 160 922 201 879 q 115 1046 118 965 l 181 1046 q 282 940 182 940 q 386 1046 381 940 l 450 1046 q 406 923 449 967 q 282 879 363 879 z "},"ẳ":{"ha":551,"x_min":56,"x_max":488,"o":"m 217 -12 q 100 39 144 -12 q 56 167 56 90 q 86 297 56 246 q 182 388 117 347 q 379 488 247 428 l 379 544 q 370 661 379 619 q 340 721 361 703 q 279 739 318 739 q 167 601 167 739 l 167 572 l 67 575 l 68 599 q 126 764 72 713 q 285 815 181 815 q 435 751 390 815 q 481 550 481 688 l 481 160 q 483 71 481 121 q 488 0 485 21 l 397 0 l 382 111 q 320 23 364 58 q 217 -12 276 -12 m 249 74 q 324 102 290 74 q 379 169 358 131 l 379 419 q 242 342 282 368 q 179 282 201 317 q 157 192 157 247 q 183 103 157 132 q 249 74 208 74 m 251 1090 q 301 1127 285 1110 q 317 1167 317 1144 q 300 1204 317 1192 q 254 1217 283 1217 q 190 1207 221 1217 l 190 1258 q 276 1272 232 1272 q 363 1247 331 1272 q 394 1175 394 1222 q 289 1050 394 1097 l 251 1090 m 282 889 q 160 932 201 889 q 115 1056 118 975 l 181 1056 q 282 950 182 950 q 386 1056 381 950 l 450 1056 q 406 933 449 976 q 282 889 363 889 z "},"ẵ":{"ha":551,"x_min":56,"x_max":488,"o":"m 217 -12 q 100 39 144 -12 q 56 167 56 90 q 86 297 56 246 q 182 388 117 347 q 379 488 247 428 l 379 544 q 370 661 379 619 q 340 721 361 703 q 279 739 318 739 q 167 601 167 739 l 167 572 l 67 575 l 68 599 q 126 764 72 713 q 285 815 181 815 q 435 751 390 815 q 481 550 481 688 l 481 160 q 483 71 481 121 q 488 0 485 21 l 397 0 l 382 111 q 320 23 364 58 q 217 -12 276 -12 m 249 74 q 324 102 290 74 q 379 169 358 131 l 379 419 q 242 342 282 368 q 179 282 201 317 q 157 192 157 247 q 183 103 157 132 q 249 74 208 74 m 282 889 q 160 932 201 889 q 115 1056 118 975 l 181 1056 q 282 950 182 950 q 386 1056 381 950 l 450 1056 q 406 933 449 976 q 282 889 363 889 m 368 1119 q 325 1129 344 1119 q 278 1157 306 1139 q 240 1179 254 1172 q 210 1186 225 1186 q 165 1131 165 1186 l 103 1131 q 124 1215 103 1176 q 199 1253 146 1253 q 243 1244 222 1253 q 289 1217 264 1235 q 327 1194 313 1201 q 357 1188 342 1188 q 392 1201 381 1188 q 403 1247 403 1215 l 464 1247 q 444 1158 464 1196 q 368 1119 424 1119 z "},"â":{"ha":551,"x_min":56,"x_max":488,"o":"m 217 -12 q 100 39 144 -12 q 56 167 56 90 q 86 297 56 246 q 182 388 117 347 q 379 488 247 428 l 379 544 q 370 661 379 619 q 340 721 361 703 q 279 739 318 739 q 167 601 167 739 l 167 572 l 67 575 l 68 599 q 126 764 72 713 q 285 815 181 815 q 435 751 390 815 q 481 550 481 688 l 481 160 q 483 71 481 121 q 488 0 485 21 l 397 0 l 382 111 q 320 23 364 58 q 217 -12 276 -12 m 249 74 q 324 102 290 74 q 379 169 358 131 l 379 419 q 242 342 282 368 q 179 282 201 317 q 157 192 157 247 q 183 103 157 132 q 249 74 208 74 m 226 1125 l 340 1125 l 460 878 l 385 878 l 283 1074 l 182 878 l 107 878 l 226 1125 z "},"ấ":{"ha":551,"x_min":56,"x_max":606,"o":"m 217 -12 q 100 39 144 -12 q 56 167 56 90 q 86 297 56 246 q 182 388 117 347 q 379 488 247 428 l 379 544 q 370 661 379 619 q 340 721 361 703 q 279 739 318 739 q 167 601 167 739 l 167 572 l 67 575 l 68 599 q 126 764 72 713 q 285 815 181 815 q 435 751 390 815 q 481 550 481 688 l 481 160 q 483 71 481 121 q 488 0 485 21 l 397 0 l 382 111 q 320 23 364 58 q 217 -12 276 -12 m 249 74 q 324 102 290 74 q 379 169 358 131 l 379 419 q 242 342 282 368 q 179 282 201 317 q 157 192 157 247 q 183 103 157 132 q 249 74 208 74 m 513 1169 l 606 1169 l 507 1010 l 439 1010 l 513 1169 m 226 1081 l 340 1081 l 460 878 l 385 878 l 283 1031 l 182 878 l 107 878 l 226 1081 z "},"ậ":{"ha":551,"x_min":56,"x_max":488,"o":"m 217 -12 q 100 39 144 -12 q 56 167 56 90 q 86 297 56 246 q 182 388 117 347 q 379 488 247 428 l 379 544 q 370 661 379 619 q 340 721 361 703 q 279 739 318 739 q 167 601 167 739 l 167 572 l 67 575 l 68 599 q 126 764 72 713 q 285 815 181 815 q 435 751 390 815 q 481 550 481 688 l 481 160 q 483 71 481 121 q 488 0 485 21 l 397 0 l 382 111 q 320 23 364 58 q 217 -12 276 -12 m 249 74 q 324 102 290 74 q 379 169 358 131 l 379 419 q 242 342 282 368 q 179 282 201 317 q 157 192 157 247 q 183 103 157 132 q 249 74 208 74 m 222 -85 l 331 -85 l 331 -208 l 222 -208 l 222 -85 m 226 1081 l 340 1081 l 460 878 l 385 878 l 283 1031 l 182 878 l 107 878 l 226 1081 z "},"ầ":{"ha":551,"x_min":56,"x_max":542,"o":"m 217 -12 q 100 39 144 -12 q 56 167 56 90 q 86 297 56 246 q 182 388 117 347 q 379 488 247 428 l 379 544 q 370 661 379 619 q 340 721 361 703 q 279 739 318 739 q 167 601 167 739 l 167 572 l 67 575 l 68 599 q 126 764 72 713 q 285 815 181 815 q 435 751 390 815 q 481 550 481 688 l 481 160 q 483 71 481 121 q 488 0 485 21 l 397 0 l 382 111 q 320 23 364 58 q 217 -12 276 -12 m 249 74 q 324 102 290 74 q 379 169 358 131 l 379 419 q 242 342 282 368 q 179 282 201 317 q 157 192 157 247 q 183 103 157 132 q 249 74 208 74 m 375 1169 l 468 1169 l 542 1010 l 475 1010 l 375 1169 m 226 1081 l 340 1081 l 460 878 l 385 878 l 283 1031 l 182 878 l 107 878 l 226 1081 z "},"ẩ":{"ha":551,"x_min":56,"x_max":569,"o":"m 217 -12 q 100 39 144 -12 q 56 167 56 90 q 86 297 56 246 q 182 388 117 347 q 379 488 247 428 l 379 544 q 370 661 379 619 q 340 721 361 703 q 279 739 318 739 q 167 601 167 739 l 167 572 l 67 575 l 68 599 q 126 764 72 713 q 285 815 181 815 q 435 751 390 815 q 481 550 481 688 l 481 160 q 483 71 481 121 q 488 0 485 21 l 397 0 l 382 111 q 320 23 364 58 q 217 -12 276 -12 m 249 74 q 324 102 290 74 q 379 169 358 131 l 379 419 q 242 342 282 368 q 179 282 201 317 q 157 192 157 247 q 183 103 157 132 q 249 74 208 74 m 426 1038 q 476 1074 460 1057 q 492 1115 492 1092 q 475 1151 492 1139 q 429 1164 458 1164 q 365 1154 396 1164 l 365 1207 q 451 1219 410 1219 q 538 1194 506 1219 q 569 1122 569 1169 q 542 1049 569 1078 q 464 997 514 1019 l 426 1038 m 226 1081 l 340 1081 l 460 878 l 385 878 l 283 1031 l 182 878 l 107 878 l 226 1081 z "},"ẫ":{"ha":551,"x_min":56,"x_max":488,"o":"m 217 -12 q 100 39 144 -12 q 56 167 56 90 q 86 297 56 246 q 182 388 117 347 q 379 488 247 428 l 379 544 q 370 661 379 619 q 340 721 361 703 q 279 739 318 739 q 167 601 167 739 l 167 572 l 67 575 l 68 599 q 126 764 72 713 q 285 815 181 815 q 435 751 390 815 q 481 550 481 688 l 481 160 q 483 71 481 121 q 488 0 485 21 l 397 0 l 382 111 q 320 23 364 58 q 217 -12 276 -12 m 249 74 q 324 102 290 74 q 379 169 358 131 l 379 419 q 242 342 282 368 q 179 282 201 317 q 157 192 157 247 q 183 103 157 132 q 249 74 208 74 m 226 1081 l 340 1081 l 460 878 l 385 878 l 283 1031 l 182 878 l 107 878 l 226 1081 m 368 1147 q 325 1157 344 1147 q 278 1185 306 1167 q 240 1207 254 1200 q 210 1214 225 1214 q 165 1158 165 1214 l 103 1158 q 124 1242 103 1204 q 199 1281 146 1281 q 243 1272 222 1281 q 289 1244 264 1263 q 327 1222 313 1229 q 357 1215 342 1215 q 392 1229 381 1215 q 403 1275 403 1243 l 464 1275 q 444 1185 464 1224 q 368 1147 424 1147 z "},"ȁ":{"ha":551,"x_min":46,"x_max":488,"o":"m 217 -12 q 100 39 144 -12 q 56 167 56 90 q 86 297 56 246 q 182 388 117 347 q 379 488 247 428 l 379 544 q 370 661 379 619 q 340 721 361 703 q 279 739 318 739 q 167 601 167 739 l 167 572 l 67 575 l 68 599 q 126 764 72 713 q 285 815 181 815 q 435 751 390 815 q 481 550 481 688 l 481 160 q 483 71 481 121 q 488 0 485 21 l 397 0 l 382 111 q 320 23 364 58 q 217 -12 276 -12 m 249 74 q 324 102 290 74 q 379 169 358 131 l 379 419 q 242 342 282 368 q 179 282 201 317 q 157 192 157 247 q 183 103 157 132 q 249 74 208 74 m 46 1125 l 154 1125 l 232 908 l 179 908 l 46 1125 m 235 1125 l 325 1125 l 382 908 l 331 908 l 235 1125 z "},"ä":{"ha":551,"x_min":56,"x_max":488,"o":"m 217 -12 q 100 39 144 -12 q 56 167 56 90 q 86 297 56 246 q 182 388 117 347 q 379 488 247 428 l 379 544 q 370 661 379 619 q 340 721 361 703 q 279 739 318 739 q 167 601 167 739 l 167 572 l 67 575 l 68 599 q 126 764 72 713 q 285 815 181 815 q 435 751 390 815 q 481 550 481 688 l 481 160 q 483 71 481 121 q 488 0 485 21 l 397 0 l 382 111 q 320 23 364 58 q 217 -12 276 -12 m 249 74 q 324 102 290 74 q 379 169 358 131 l 379 419 q 242 342 282 368 q 179 282 201 317 q 157 192 157 247 q 183 103 157 132 q 249 74 208 74 m 118 1125 l 222 1125 l 222 1001 l 118 1001 l 118 1125 m 347 1125 l 451 1125 l 451 1001 l 347 1001 l 347 1125 z "},"ạ":{"ha":551,"x_min":56,"x_max":488,"o":"m 217 -12 q 100 39 144 -12 q 56 167 56 90 q 86 297 56 246 q 182 388 117 347 q 379 488 247 428 l 379 544 q 370 661 379 619 q 340 721 361 703 q 279 739 318 739 q 167 601 167 739 l 167 572 l 67 575 l 68 599 q 126 764 72 713 q 285 815 181 815 q 435 751 390 815 q 481 550 481 688 l 481 160 q 483 71 481 121 q 488 0 485 21 l 397 0 l 382 111 q 320 23 364 58 q 217 -12 276 -12 m 249 74 q 324 102 290 74 q 379 169 358 131 l 379 419 q 242 342 282 368 q 179 282 201 317 q 157 192 157 247 q 183 103 157 132 q 249 74 208 74 m 222 -85 l 331 -85 l 331 -208 l 222 -208 l 222 -85 z "},"à":{"ha":551,"x_min":56,"x_max":488,"o":"m 217 -12 q 100 39 144 -12 q 56 167 56 90 q 86 297 56 246 q 182 388 117 347 q 379 488 247 428 l 379 544 q 370 661 379 619 q 340 721 361 703 q 279 739 318 739 q 167 601 167 739 l 167 572 l 67 575 l 68 599 q 126 764 72 713 q 285 815 181 815 q 435 751 390 815 q 481 550 481 688 l 481 160 q 483 71 481 121 q 488 0 485 21 l 397 0 l 382 111 q 320 23 364 58 q 217 -12 276 -12 m 249 74 q 324 102 290 74 q 379 169 358 131 l 379 419 q 242 342 282 368 q 179 282 201 317 q 157 192 157 247 q 183 103 157 132 q 249 74 208 74 m 129 1142 l 232 1142 l 308 869 l 257 869 l 129 1142 z "},"ả":{"ha":551,"x_min":56,"x_max":488,"o":"m 217 -12 q 100 39 144 -12 q 56 167 56 90 q 86 297 56 246 q 182 388 117 347 q 379 488 247 428 l 379 544 q 370 661 379 619 q 340 721 361 703 q 279 739 318 739 q 167 601 167 739 l 167 572 l 67 575 l 68 599 q 126 764 72 713 q 285 815 181 815 q 435 751 390 815 q 481 550 481 688 l 481 160 q 483 71 481 121 q 488 0 485 21 l 397 0 l 382 111 q 320 23 364 58 q 217 -12 276 -12 m 249 74 q 324 102 290 74 q 379 169 358 131 l 379 419 q 242 342 282 368 q 179 282 201 317 q 157 192 157 247 q 183 103 157 132 q 249 74 208 74 m 246 944 q 303 981 285 964 q 322 1022 322 999 q 250 1072 322 1072 q 185 1064 219 1072 l 185 1117 q 274 1126 228 1126 q 366 1102 333 1126 q 399 1029 399 1078 q 369 957 399 985 q 283 904 339 929 l 246 944 z "},"ȃ":{"ha":551,"x_min":56,"x_max":488,"o":"m 217 -12 q 100 39 144 -12 q 56 167 56 90 q 86 297 56 246 q 182 388 117 347 q 379 488 247 428 l 379 544 q 370 661 379 619 q 340 721 361 703 q 279 739 318 739 q 167 601 167 739 l 167 572 l 67 575 l 68 599 q 126 764 72 713 q 285 815 181 815 q 435 751 390 815 q 481 550 481 688 l 481 160 q 483 71 481 121 q 488 0 485 21 l 397 0 l 382 111 q 320 23 364 58 q 217 -12 276 -12 m 249 74 q 324 102 290 74 q 379 169 358 131 l 379 419 q 242 342 282 368 q 179 282 201 317 q 157 192 157 247 q 183 103 157 132 q 249 74 208 74 m 115 951 q 160 1080 118 1035 q 283 1125 201 1125 q 408 1080 367 1125 q 451 951 449 1035 l 386 951 q 358 1037 385 1011 q 283 1063 332 1063 q 208 1037 235 1063 q 181 951 182 1011 l 115 951 z "},"ā":{"ha":551,"x_min":56,"x_max":488,"o":"m 217 -12 q 100 39 144 -12 q 56 167 56 90 q 86 297 56 246 q 182 388 117 347 q 379 488 247 428 l 379 544 q 370 661 379 619 q 340 721 361 703 q 279 739 318 739 q 167 601 167 739 l 167 572 l 67 575 l 68 599 q 126 764 72 713 q 285 815 181 815 q 435 751 390 815 q 481 550 481 688 l 481 160 q 483 71 481 121 q 488 0 485 21 l 397 0 l 382 111 q 320 23 364 58 q 217 -12 276 -12 m 249 74 q 324 102 290 74 q 379 169 358 131 l 379 419 q 242 342 282 368 q 179 282 201 317 q 157 192 157 247 q 183 103 157 132 q 249 74 208 74 m 158 1033 l 408 1033 l 408 964 l 158 964 l 158 1033 z "},"ą":{"ha":551,"x_min":56,"x_max":508,"o":"m 476 -240 q 508 -237 489 -240 l 493 -292 q 453 -294 471 -294 q 336 -267 379 -294 q 293 -181 293 -240 q 330 -77 293 -126 q 419 0 367 -28 l 397 0 l 382 111 q 320 23 364 58 q 217 -12 276 -12 q 100 39 144 -12 q 56 167 56 90 q 86 297 56 246 q 182 388 117 347 q 379 488 247 428 l 379 544 q 370 661 379 619 q 340 721 361 703 q 279 739 318 739 q 167 601 167 739 l 167 572 l 67 575 l 68 599 q 126 764 72 713 q 285 815 181 815 q 435 751 390 815 q 481 550 481 688 l 481 160 q 483 71 481 121 q 488 0 485 21 l 474 0 q 371 -169 371 -97 q 401 -224 371 -207 q 476 -240 431 -240 m 379 419 q 242 342 282 368 q 179 282 201 317 q 157 192 157 247 q 183 103 157 132 q 249 74 208 74 q 324 102 290 74 q 379 169 358 131 l 379 419 z "},"å":{"ha":551,"x_min":56,"x_max":488,"o":"m 217 -12 q 100 39 144 -12 q 56 167 56 90 q 86 297 56 246 q 182 388 117 347 q 379 488 247 428 l 379 544 q 370 661 379 619 q 340 721 361 703 q 279 739 318 739 q 167 601 167 739 l 167 572 l 67 575 l 68 599 q 126 764 72 713 q 285 815 181 815 q 435 751 390 815 q 481 550 481 688 l 481 160 q 483 71 481 121 q 488 0 485 21 l 397 0 l 382 111 q 320 23 364 58 q 217 -12 276 -12 m 249 74 q 324 102 290 74 q 379 169 358 131 l 379 419 q 242 342 282 368 q 179 282 201 317 q 157 192 157 247 q 183 103 157 132 q 249 74 208 74 m 283 874 q 188 908 226 874 q 150 1006 150 943 q 188 1103 150 1068 q 283 1138 226 1138 q 378 1103 340 1138 q 417 1006 417 1068 q 378 908 417 943 q 283 874 340 874 m 283 929 q 338 949 317 929 q 360 1006 360 968 q 338 1064 360 1044 q 283 1083 317 1083 q 228 1064 250 1083 q 207 1006 207 1044 q 228 949 207 968 q 283 929 250 929 z "},"ǻ":{"ha":551,"x_min":56,"x_max":488,"o":"m 217 -12 q 100 39 144 -12 q 56 167 56 90 q 86 297 56 246 q 182 388 117 347 q 379 488 247 428 l 379 544 q 370 661 379 619 q 340 721 361 703 q 279 739 318 739 q 167 601 167 739 l 167 572 l 67 575 l 68 599 q 126 764 72 713 q 285 815 181 815 q 435 751 390 815 q 481 550 481 688 l 481 160 q 483 71 481 121 q 488 0 485 21 l 397 0 l 382 111 q 320 23 364 58 q 217 -12 276 -12 m 249 74 q 324 102 290 74 q 379 169 358 131 l 379 419 q 242 342 282 368 q 179 282 201 317 q 157 192 157 247 q 183 103 157 132 q 249 74 208 74 m 283 874 q 188 908 226 874 q 150 1006 150 943 q 188 1103 150 1068 q 283 1138 226 1138 q 378 1103 340 1138 q 417 1006 417 1068 q 378 908 417 943 q 283 874 340 874 m 283 929 q 338 949 317 929 q 360 1006 360 968 q 338 1064 360 1044 q 283 1083 317 1083 q 228 1064 250 1083 q 207 1006 207 1044 q 228 949 207 968 q 283 929 250 929 m 344 1476 l 446 1476 l 310 1204 l 257 1204 l 344 1476 z "},"ã":{"ha":551,"x_min":56,"x_max":488,"o":"m 217 -12 q 100 39 144 -12 q 56 167 56 90 q 86 297 56 246 q 182 388 117 347 q 379 488 247 428 l 379 544 q 370 661 379 619 q 340 721 361 703 q 279 739 318 739 q 167 601 167 739 l 167 572 l 67 575 l 68 599 q 126 764 72 713 q 285 815 181 815 q 435 751 390 815 q 481 550 481 688 l 481 160 q 483 71 481 121 q 488 0 485 21 l 397 0 l 382 111 q 320 23 364 58 q 217 -12 276 -12 m 249 74 q 324 102 290 74 q 379 169 358 131 l 379 419 q 242 342 282 368 q 179 282 201 317 q 157 192 157 247 q 183 103 157 132 q 249 74 208 74 m 368 961 q 325 971 344 961 q 278 999 306 981 q 240 1021 254 1014 q 210 1028 225 1028 q 165 972 165 1028 l 103 972 q 124 1056 103 1018 q 199 1094 146 1094 q 243 1085 222 1094 q 289 1058 264 1076 q 327 1036 313 1043 q 357 1029 342 1029 q 392 1043 381 1029 q 403 1089 403 1057 l 464 1089 q 444 999 464 1038 q 368 961 424 961 z "},"æ":{"ha":860,"x_min":57,"x_max":806,"o":"m 806 274 l 806 229 q 757 50 806 113 q 599 -12 708 -12 q 481 28 529 -12 q 421 150 432 69 q 345 29 397 71 q 228 -12 293 -12 q 105 38 153 -12 q 57 167 57 89 q 103 316 57 258 q 267 414 149 374 l 383 451 l 383 564 q 358 697 383 658 q 274 736 333 736 q 195 701 224 736 q 167 589 167 665 l 67 590 q 122 757 68 699 q 271 815 175 815 q 377 783 335 815 q 435 693 419 751 q 501 785 451 754 q 617 815 551 815 q 753 767 707 815 q 800 640 800 719 q 755 517 800 557 q 619 449 710 476 l 486 407 l 486 326 q 510 133 486 196 q 599 69 533 69 q 677 104 649 69 q 706 226 706 139 l 706 274 l 806 274 m 486 468 l 603 506 q 685 553 663 526 q 707 632 707 579 q 683 705 707 676 q 606 733 658 733 q 515 689 543 733 q 486 540 486 644 l 486 468 m 383 388 q 325 367 378 386 l 296 356 q 185 283 213 321 q 158 183 157 246 q 186 96 158 125 q 251 67 214 67 q 345 123 307 67 q 383 299 383 179 l 383 388 z "},"ǽ":{"ha":860,"x_min":57,"x_max":806,"o":"m 806 274 l 806 229 q 757 50 806 113 q 599 -12 708 -12 q 481 28 529 -12 q 421 150 432 69 q 345 29 397 71 q 228 -12 293 -12 q 105 38 153 -12 q 57 167 57 89 q 103 316 57 258 q 267 414 149 374 l 383 451 l 383 564 q 358 697 383 658 q 274 736 333 736 q 195 701 224 736 q 167 589 167 665 l 67 590 q 122 757 68 699 q 271 815 175 815 q 377 783 335 815 q 435 693 419 751 q 501 785 451 754 q 617 815 551 815 q 753 767 707 815 q 800 640 800 719 q 755 517 800 557 q 619 449 710 476 l 486 407 l 486 326 q 510 133 486 196 q 599 69 533 69 q 677 104 649 69 q 706 226 706 139 l 706 274 l 806 274 m 486 468 l 603 506 q 685 553 663 526 q 707 632 707 579 q 683 705 707 676 q 606 733 658 733 q 515 689 543 733 q 486 540 486 644 l 486 468 m 383 388 q 325 367 378 386 l 296 356 q 185 283 213 321 q 158 183 157 246 q 186 96 158 125 q 251 67 214 67 q 345 123 307 67 q 383 299 383 179 l 383 388 m 492 1142 l 593 1142 l 457 869 l 404 869 l 492 1142 z "},"b":{"ha":578,"x_min":79,"x_max":517,"o":"m 324 -12 q 181 64 246 -12 l 181 0 l 79 0 l 79 1125 l 181 1125 l 181 736 q 246 793 207 771 q 333 815 285 815 q 478 728 439 815 q 517 496 517 640 l 517 326 q 474 74 517 161 q 324 -12 431 -12 m 306 68 q 392 128 371 68 q 414 324 414 188 l 414 496 q 392 681 414 625 q 304 736 371 736 q 181 674 243 736 l 181 126 q 306 68 233 68 z "},"ḃ":{"ha":578,"x_min":76,"x_max":517,"o":"m 324 -12 q 181 64 246 -12 l 181 0 l 79 0 l 79 1125 l 181 1125 l 181 736 q 246 793 207 771 q 333 815 285 815 q 478 728 439 815 q 517 496 517 640 l 517 326 q 474 74 517 161 q 324 -12 431 -12 m 306 68 q 392 128 371 68 q 414 324 414 188 l 414 496 q 392 681 414 625 q 304 736 371 736 q 181 674 243 736 l 181 126 q 306 68 233 68 m 76 1411 l 185 1411 l 185 1258 l 76 1258 l 76 1411 z "},"c":{"ha":540,"x_min":63,"x_max":482,"o":"m 278 -12 q 142 27 189 -12 q 78 134 94 67 q 63 304 63 201 l 63 492 q 81 678 63 608 q 147 781 100 747 q 278 815 193 815 q 439 751 396 815 q 482 558 482 686 l 482 519 l 388 519 l 388 558 q 377 668 388 629 q 343 723 367 707 q 278 739 319 739 q 206 717 231 739 q 173 647 182 694 q 164 508 164 599 l 164 283 q 174 153 164 200 q 208 85 183 106 q 279 64 233 64 q 349 84 326 64 q 380 144 372 104 q 388 257 388 185 l 388 301 l 482 301 l 482 263 q 466 113 482 172 q 406 21 450 54 q 278 -12 361 -12 z "},"ć":{"ha":540,"x_min":63,"x_max":482,"o":"m 278 -12 q 142 27 189 -12 q 78 134 94 67 q 63 304 63 201 l 63 492 q 81 678 63 608 q 147 781 100 747 q 278 815 193 815 q 439 751 396 815 q 482 558 482 686 l 482 519 l 388 519 l 388 558 q 377 668 388 629 q 343 723 367 707 q 278 739 319 739 q 206 717 231 739 q 173 647 182 694 q 164 508 164 599 l 164 283 q 174 153 164 200 q 208 85 183 106 q 279 64 233 64 q 349 84 326 64 q 380 144 372 104 q 388 257 388 185 l 388 301 l 482 301 l 482 263 q 466 113 482 172 q 406 21 450 54 q 278 -12 361 -12 m 332 1142 l 433 1142 l 297 869 l 244 869 l 332 1142 z "},"č":{"ha":540,"x_min":63,"x_max":482,"o":"m 278 -12 q 142 27 189 -12 q 78 134 94 67 q 63 304 63 201 l 63 492 q 81 678 63 608 q 147 781 100 747 q 278 815 193 815 q 439 751 396 815 q 482 558 482 686 l 482 519 l 388 519 l 388 558 q 377 668 388 629 q 343 723 367 707 q 278 739 319 739 q 206 717 231 739 q 173 647 182 694 q 164 508 164 599 l 164 283 q 174 153 164 200 q 208 85 183 106 q 279 64 233 64 q 349 84 326 64 q 380 144 372 104 q 388 257 388 185 l 388 301 l 482 301 l 482 263 q 466 113 482 172 q 406 21 450 54 q 278 -12 361 -12 m 107 1125 l 189 1125 l 271 958 l 353 1125 l 435 1125 l 315 893 l 226 893 l 107 1125 z "},"ç":{"ha":540,"x_min":63,"x_max":482,"o":"m 388 519 l 388 558 q 377 668 388 629 q 343 723 367 707 q 278 739 319 739 q 206 717 231 739 q 173 647 182 694 q 164 508 164 599 l 164 283 q 174 153 164 200 q 208 85 183 106 q 279 64 233 64 q 349 84 326 64 q 380 144 372 104 q 388 257 388 185 l 388 301 l 482 301 l 482 263 q 444 62 482 131 q 297 -12 407 -7 l 297 -69 q 392 -99 358 -71 q 425 -174 425 -126 q 386 -256 425 -228 q 276 -283 347 -283 q 211 -276 246 -283 l 211 -224 q 256 -229 232 -229 q 347 -172 347 -229 q 243 -100 347 -112 l 243 -11 q 128 38 168 -3 q 76 144 89 79 q 63 304 63 208 l 63 492 q 81 678 63 608 q 147 781 100 747 q 278 815 193 815 q 439 751 396 815 q 482 558 482 686 l 482 519 l 388 519 z "},"ĉ":{"ha":540,"x_min":63,"x_max":482,"o":"m 278 -12 q 142 27 189 -12 q 78 134 94 67 q 63 304 63 201 l 63 492 q 81 678 63 608 q 147 781 100 747 q 278 815 193 815 q 439 751 396 815 q 482 558 482 686 l 482 519 l 388 519 l 388 558 q 377 668 388 629 q 343 723 367 707 q 278 739 319 739 q 206 717 231 739 q 173 647 182 694 q 164 508 164 599 l 164 283 q 174 153 164 200 q 208 85 183 106 q 279 64 233 64 q 349 84 326 64 q 380 144 372 104 q 388 257 388 185 l 388 301 l 482 301 l 482 263 q 466 113 482 172 q 406 21 450 54 q 278 -12 361 -12 m 214 1125 l 328 1125 l 447 878 l 372 878 l 271 1074 l 169 878 l 94 878 l 214 1125 z "},"ċ":{"ha":540,"x_min":63,"x_max":482,"o":"m 278 -12 q 142 27 189 -12 q 78 134 94 67 q 63 304 63 201 l 63 492 q 81 678 63 608 q 147 781 100 747 q 278 815 193 815 q 439 751 396 815 q 482 558 482 686 l 482 519 l 388 519 l 388 558 q 377 668 388 629 q 343 723 367 707 q 278 739 319 739 q 206 717 231 739 q 173 647 182 694 q 164 508 164 599 l 164 283 q 174 153 164 200 q 208 85 183 106 q 279 64 233 64 q 349 84 326 64 q 380 144 372 104 q 388 257 388 185 l 388 301 l 482 301 l 482 263 q 466 113 482 172 q 406 21 450 54 q 278 -12 361 -12 m 217 1089 l 325 1089 l 325 936 l 217 936 l 217 1089 z "},"d":{"ha":574,"x_min":63,"x_max":494,"o":"m 256 -12 q 108 65 153 -12 q 63 324 63 143 l 63 472 q 103 729 63 643 q 251 815 143 815 q 393 746 329 815 l 393 1125 l 494 1125 l 494 0 l 393 0 l 393 57 q 256 -12 329 -12 m 276 68 q 393 121 335 68 l 393 679 q 274 736 329 736 q 187 682 210 736 q 164 506 164 628 l 164 315 q 187 126 164 185 q 276 68 210 68 z "},"ð":{"ha":618,"x_min":75,"x_max":560,"o":"m 306 -14 q 126 67 176 -14 q 75 311 75 149 l 75 414 q 127 681 76 590 q 289 772 178 772 q 425 731 357 772 q 406 838 418 786 q 376 919 393 890 l 225 876 l 225 932 l 349 967 q 263 1044 319 1018 q 111 1076 206 1071 l 115 1146 q 310 1106 235 1142 q 429 993 386 1071 l 560 1029 l 560 972 l 456 944 q 513 750 489 869 q 538 485 538 631 l 538 339 q 485 74 538 161 q 306 -14 433 -14 m 308 68 q 392 98 364 68 q 428 188 419 128 q 438 360 438 249 q 434 506 438 413 q 428 651 431 599 q 399 667 419 656 q 357 684 378 678 q 314 690 336 690 q 209 617 242 690 q 176 371 176 543 q 203 142 176 215 q 308 68 231 68 z "},"ď":{"ha":661,"x_min":63,"x_max":681,"o":"m 256 -12 q 108 65 153 -12 q 63 324 63 143 l 63 472 q 103 729 63 643 q 251 815 143 815 q 393 746 329 815 l 393 1125 l 494 1125 l 494 0 l 393 0 l 393 57 q 256 -12 329 -12 m 276 68 q 393 121 335 68 l 393 679 q 274 736 329 736 q 187 682 210 736 q 164 506 164 628 l 164 315 q 187 126 164 185 q 276 68 210 68 m 563 857 q 614 905 599 878 q 629 974 629 932 l 568 974 l 568 1125 l 681 1125 l 681 985 q 658 878 681 917 q 583 813 636 839 l 563 857 z "},"đ":{"ha":593,"x_min":63,"x_max":575,"o":"m 256 -12 q 108 65 153 -12 q 63 324 63 143 l 63 472 q 103 729 63 643 q 251 815 143 815 q 393 746 329 815 l 393 953 l 261 953 l 261 1014 l 393 1014 l 393 1125 l 494 1125 l 494 1014 l 575 1014 l 575 953 l 494 953 l 494 0 l 393 0 l 393 57 q 256 -12 329 -12 m 276 68 q 393 121 335 68 l 393 679 q 274 736 329 736 q 187 682 210 736 q 164 506 164 628 l 164 315 q 187 126 164 185 q 276 68 210 68 z "},"ḋ":{"ha":574,"x_min":63,"x_max":499,"o":"m 256 -12 q 108 65 153 -12 q 63 324 63 143 l 63 472 q 103 729 63 643 q 251 815 143 815 q 393 746 329 815 l 393 1125 l 494 1125 l 494 0 l 393 0 l 393 57 q 256 -12 329 -12 m 276 68 q 393 121 335 68 l 393 679 q 274 736 329 736 q 187 682 210 736 q 164 506 164 628 l 164 315 q 187 126 164 185 q 276 68 210 68 m 390 1411 l 499 1411 l 499 1258 l 390 1258 l 390 1411 z "},"ǳ":{"ha":1036,"x_min":63,"x_max":999,"o":"m 256 -12 q 108 65 153 -12 q 63 324 63 143 l 63 472 q 103 729 63 643 q 251 815 143 815 q 393 746 329 815 l 393 1125 l 494 1125 l 494 0 l 393 0 l 393 57 q 256 -12 329 -12 m 276 68 q 393 121 335 68 l 393 679 q 274 736 329 736 q 187 682 210 736 q 164 506 164 628 l 164 315 q 187 126 164 185 q 276 68 210 68 m 618 71 l 892 725 l 647 725 l 647 803 l 999 803 l 999 742 l 726 78 l 994 78 l 994 0 l 618 0 l 618 71 z "},"ǆ":{"ha":1036,"x_min":63,"x_max":999,"o":"m 256 -12 q 108 65 153 -12 q 63 324 63 143 l 63 472 q 103 729 63 643 q 251 815 143 815 q 393 746 329 815 l 393 1125 l 494 1125 l 494 0 l 393 0 l 393 57 q 256 -12 329 -12 m 276 68 q 393 121 335 68 l 393 679 q 274 736 329 736 q 187 682 210 736 q 164 506 164 628 l 164 315 q 187 126 164 185 q 276 68 210 68 m 618 71 l 892 725 l 647 725 l 647 803 l 999 803 l 999 742 l 726 78 l 994 78 l 994 0 l 618 0 l 618 71 m 642 1125 l 724 1125 l 806 958 l 888 1125 l 969 1125 l 850 893 l 761 893 l 642 1125 z "},"e":{"ha":549,"x_min":63,"x_max":489,"o":"m 279 -12 q 154 18 201 -12 q 85 117 107 49 q 63 301 63 185 l 63 504 q 85 690 63 622 q 156 786 108 757 q 281 815 204 815 q 409 780 364 815 q 472 674 454 744 q 489 483 489 603 l 488 411 l 164 411 l 164 292 q 174 158 164 207 q 208 87 183 110 q 279 64 233 64 q 360 97 332 64 q 389 218 389 131 l 389 274 l 488 274 l 488 229 q 439 50 488 113 q 279 -12 390 -12 m 389 469 l 389 536 q 381 650 389 608 q 350 715 374 692 q 279 739 326 739 q 211 720 236 739 q 175 655 186 701 q 164 524 164 608 l 164 469 l 389 469 z "},"é":{"ha":549,"x_min":63,"x_max":489,"o":"m 279 -12 q 154 18 201 -12 q 85 117 107 49 q 63 301 63 185 l 63 504 q 85 690 63 622 q 156 786 108 757 q 281 815 204 815 q 409 780 364 815 q 472 674 454 744 q 489 483 489 603 l 488 411 l 164 411 l 164 292 q 174 158 164 207 q 208 87 183 110 q 279 64 233 64 q 360 97 332 64 q 389 218 389 131 l 389 274 l 488 274 l 488 229 q 439 50 488 113 q 279 -12 390 -12 m 389 469 l 389 536 q 381 650 389 608 q 350 715 374 692 q 279 739 326 739 q 211 720 236 739 q 175 655 186 701 q 164 524 164 608 l 164 469 l 389 469 m 336 1142 l 438 1142 l 301 869 l 249 869 l 336 1142 z "},"ĕ":{"ha":549,"x_min":63,"x_max":489,"o":"m 279 -12 q 154 18 201 -12 q 85 117 107 49 q 63 301 63 185 l 63 504 q 85 690 63 622 q 156 786 108 757 q 281 815 204 815 q 409 780 364 815 q 472 674 454 744 q 489 483 489 603 l 488 411 l 164 411 l 164 292 q 174 158 164 207 q 208 87 183 110 q 279 64 233 64 q 360 97 332 64 q 389 218 389 131 l 389 274 l 488 274 l 488 229 q 439 50 488 113 q 279 -12 390 -12 m 389 469 l 389 536 q 381 650 389 608 q 350 715 374 692 q 279 739 326 739 q 211 720 236 739 q 175 655 186 701 q 164 524 164 608 l 164 469 l 389 469 m 274 889 q 151 932 193 889 q 107 1056 110 975 l 172 1056 q 274 950 174 950 q 378 1056 372 950 l 442 1056 q 397 933 440 976 q 274 889 354 889 z "},"ě":{"ha":549,"x_min":63,"x_max":489,"o":"m 279 -12 q 154 18 201 -12 q 85 117 107 49 q 63 301 63 185 l 63 504 q 85 690 63 622 q 156 786 108 757 q 281 815 204 815 q 409 780 364 815 q 472 674 454 744 q 489 483 489 603 l 488 411 l 164 411 l 164 292 q 174 158 164 207 q 208 87 183 110 q 279 64 233 64 q 360 97 332 64 q 389 218 389 131 l 389 274 l 488 274 l 488 229 q 439 50 488 113 q 279 -12 390 -12 m 389 469 l 389 536 q 381 650 389 608 q 350 715 374 692 q 279 739 326 739 q 211 720 236 739 q 175 655 186 701 q 164 524 164 608 l 164 469 l 389 469 m 111 1125 l 193 1125 l 275 958 l 357 1125 l 439 1125 l 319 893 l 231 893 l 111 1125 z "},"ê":{"ha":549,"x_min":63,"x_max":489,"o":"m 279 -12 q 154 18 201 -12 q 85 117 107 49 q 63 301 63 185 l 63 504 q 85 690 63 622 q 156 786 108 757 q 281 815 204 815 q 409 780 364 815 q 472 674 454 744 q 489 483 489 603 l 488 411 l 164 411 l 164 292 q 174 158 164 207 q 208 87 183 110 q 279 64 233 64 q 360 97 332 64 q 389 218 389 131 l 389 274 l 488 274 l 488 229 q 439 50 488 113 q 279 -12 390 -12 m 389 469 l 389 536 q 381 650 389 608 q 350 715 374 692 q 279 739 326 739 q 211 720 236 739 q 175 655 186 701 q 164 524 164 608 l 164 469 l 389 469 m 218 1125 l 332 1125 l 451 878 l 376 878 l 275 1074 l 174 878 l 99 878 l 218 1125 z "},"ế":{"ha":549,"x_min":63,"x_max":597,"o":"m 279 -12 q 154 18 201 -12 q 85 117 107 49 q 63 301 63 185 l 63 504 q 85 690 63 622 q 156 786 108 757 q 281 815 204 815 q 409 780 364 815 q 472 674 454 744 q 489 483 489 603 l 488 411 l 164 411 l 164 292 q 174 158 164 207 q 208 87 183 110 q 279 64 233 64 q 360 97 332 64 q 389 218 389 131 l 389 274 l 488 274 l 488 229 q 439 50 488 113 q 279 -12 390 -12 m 389 469 l 389 536 q 381 650 389 608 q 350 715 374 692 q 279 739 326 739 q 211 720 236 739 q 175 655 186 701 q 164 524 164 608 l 164 469 l 389 469 m 504 1169 l 597 1169 l 499 1010 l 431 1010 l 504 1169 m 218 1081 l 332 1081 l 451 878 l 376 878 l 275 1031 l 174 878 l 99 878 l 218 1081 z "},"ệ":{"ha":549,"x_min":63,"x_max":489,"o":"m 279 -12 q 154 18 201 -12 q 85 117 107 49 q 63 301 63 185 l 63 504 q 85 690 63 622 q 156 786 108 757 q 281 815 204 815 q 409 780 364 815 q 472 674 454 744 q 489 483 489 603 l 488 411 l 164 411 l 164 292 q 174 158 164 207 q 208 87 183 110 q 279 64 233 64 q 360 97 332 64 q 389 218 389 131 l 389 274 l 488 274 l 488 229 q 439 50 488 113 q 279 -12 390 -12 m 389 469 l 389 536 q 381 650 389 608 q 350 715 374 692 q 279 739 326 739 q 211 720 236 739 q 175 655 186 701 q 164 524 164 608 l 164 469 l 389 469 m 221 -85 l 329 -85 l 329 -208 l 221 -208 l 221 -85 m 218 1081 l 332 1081 l 451 878 l 376 878 l 275 1031 l 174 878 l 99 878 l 218 1081 z "},"ề":{"ha":549,"x_min":63,"x_max":533,"o":"m 279 -12 q 154 18 201 -12 q 85 117 107 49 q 63 301 63 185 l 63 504 q 85 690 63 622 q 156 786 108 757 q 281 815 204 815 q 409 780 364 815 q 472 674 454 744 q 489 483 489 603 l 488 411 l 164 411 l 164 292 q 174 158 164 207 q 208 87 183 110 q 279 64 233 64 q 360 97 332 64 q 389 218 389 131 l 389 274 l 488 274 l 488 229 q 439 50 488 113 q 279 -12 390 -12 m 389 469 l 389 536 q 381 650 389 608 q 350 715 374 692 q 279 739 326 739 q 211 720 236 739 q 175 655 186 701 q 164 524 164 608 l 164 469 l 389 469 m 367 1169 l 460 1169 l 533 1010 l 467 1010 l 367 1169 m 218 1081 l 332 1081 l 451 878 l 376 878 l 275 1031 l 174 878 l 99 878 l 218 1081 z "},"ể":{"ha":549,"x_min":63,"x_max":561,"o":"m 279 -12 q 154 18 201 -12 q 85 117 107 49 q 63 301 63 185 l 63 504 q 85 690 63 622 q 156 786 108 757 q 281 815 204 815 q 409 780 364 815 q 472 674 454 744 q 489 483 489 603 l 488 411 l 164 411 l 164 292 q 174 158 164 207 q 208 87 183 110 q 279 64 233 64 q 360 97 332 64 q 389 218 389 131 l 389 274 l 488 274 l 488 229 q 439 50 488 113 q 279 -12 390 -12 m 389 469 l 389 536 q 381 650 389 608 q 350 715 374 692 q 279 739 326 739 q 211 720 236 739 q 175 655 186 701 q 164 524 164 608 l 164 469 l 389 469 m 418 1038 q 467 1074 451 1057 q 483 1115 483 1092 q 467 1151 483 1139 q 421 1164 450 1164 q 357 1154 388 1164 l 357 1207 q 443 1219 401 1219 q 529 1194 497 1219 q 561 1122 561 1169 q 533 1049 561 1078 q 456 997 506 1019 l 418 1038 m 218 1081 l 332 1081 l 451 878 l 376 878 l 275 1031 l 174 878 l 99 878 l 218 1081 z "},"ễ":{"ha":549,"x_min":63,"x_max":489,"o":"m 279 -12 q 154 18 201 -12 q 85 117 107 49 q 63 301 63 185 l 63 504 q 85 690 63 622 q 156 786 108 757 q 281 815 204 815 q 409 780 364 815 q 472 674 454 744 q 489 483 489 603 l 488 411 l 164 411 l 164 292 q 174 158 164 207 q 208 87 183 110 q 279 64 233 64 q 360 97 332 64 q 389 218 389 131 l 389 274 l 488 274 l 488 229 q 439 50 488 113 q 279 -12 390 -12 m 389 469 l 389 536 q 381 650 389 608 q 350 715 374 692 q 279 739 326 739 q 211 720 236 739 q 175 655 186 701 q 164 524 164 608 l 164 469 l 389 469 m 218 1081 l 332 1081 l 451 878 l 376 878 l 275 1031 l 174 878 l 99 878 l 218 1081 m 360 1147 q 317 1157 336 1147 q 269 1185 297 1167 q 231 1207 246 1200 q 201 1214 217 1214 q 157 1158 157 1214 l 94 1158 q 116 1242 94 1204 q 190 1281 138 1281 q 235 1272 214 1281 q 281 1244 256 1263 q 319 1222 304 1229 q 349 1215 333 1215 q 383 1229 372 1215 q 394 1275 394 1243 l 456 1275 q 435 1185 456 1224 q 360 1147 415 1147 z "},"ȅ":{"ha":549,"x_min":38,"x_max":489,"o":"m 279 -12 q 154 18 201 -12 q 85 117 107 49 q 63 301 63 185 l 63 504 q 85 690 63 622 q 156 786 108 757 q 281 815 204 815 q 409 780 364 815 q 472 674 454 744 q 489 483 489 603 l 488 411 l 164 411 l 164 292 q 174 158 164 207 q 208 87 183 110 q 279 64 233 64 q 360 97 332 64 q 389 218 389 131 l 389 274 l 488 274 l 488 229 q 439 50 488 113 q 279 -12 390 -12 m 389 469 l 389 536 q 381 650 389 608 q 350 715 374 692 q 279 739 326 739 q 211 720 236 739 q 175 655 186 701 q 164 524 164 608 l 164 469 l 389 469 m 38 1125 l 146 1125 l 224 908 l 171 908 l 38 1125 m 226 1125 l 317 1125 l 374 908 l 322 908 l 226 1125 z "},"ë":{"ha":549,"x_min":63,"x_max":489,"o":"m 279 -12 q 154 18 201 -12 q 85 117 107 49 q 63 301 63 185 l 63 504 q 85 690 63 622 q 156 786 108 757 q 281 815 204 815 q 409 780 364 815 q 472 674 454 744 q 489 483 489 603 l 488 411 l 164 411 l 164 292 q 174 158 164 207 q 208 87 183 110 q 279 64 233 64 q 360 97 332 64 q 389 218 389 131 l 389 274 l 488 274 l 488 229 q 439 50 488 113 q 279 -12 390 -12 m 389 469 l 389 536 q 381 650 389 608 q 350 715 374 692 q 279 739 326 739 q 211 720 236 739 q 175 655 186 701 q 164 524 164 608 l 164 469 l 389 469 m 110 1125 l 214 1125 l 214 1001 l 110 1001 l 110 1125 m 339 1125 l 443 1125 l 443 1001 l 339 1001 l 339 1125 z "},"ė":{"ha":549,"x_min":63,"x_max":489,"o":"m 279 -12 q 154 18 201 -12 q 85 117 107 49 q 63 301 63 185 l 63 504 q 85 690 63 622 q 156 786 108 757 q 281 815 204 815 q 409 780 364 815 q 472 674 454 744 q 489 483 489 603 l 488 411 l 164 411 l 164 292 q 174 158 164 207 q 208 87 183 110 q 279 64 233 64 q 360 97 332 64 q 389 218 389 131 l 389 274 l 488 274 l 488 229 q 439 50 488 113 q 279 -12 390 -12 m 389 469 l 389 536 q 381 650 389 608 q 350 715 374 692 q 279 739 326 739 q 211 720 236 739 q 175 655 186 701 q 164 524 164 608 l 164 469 l 389 469 m 221 1089 l 329 1089 l 329 936 l 221 936 l 221 1089 z "},"ẹ":{"ha":549,"x_min":63,"x_max":489,"o":"m 279 -12 q 154 18 201 -12 q 85 117 107 49 q 63 301 63 185 l 63 504 q 85 690 63 622 q 156 786 108 757 q 281 815 204 815 q 409 780 364 815 q 472 674 454 744 q 489 483 489 603 l 488 411 l 164 411 l 164 292 q 174 158 164 207 q 208 87 183 110 q 279 64 233 64 q 360 97 332 64 q 389 218 389 131 l 389 274 l 488 274 l 488 229 q 439 50 488 113 q 279 -12 390 -12 m 389 469 l 389 536 q 381 650 389 608 q 350 715 374 692 q 279 739 326 739 q 211 720 236 739 q 175 655 186 701 q 164 524 164 608 l 164 469 l 389 469 m 221 -85 l 329 -85 l 329 -208 l 221 -208 l 221 -85 z "},"è":{"ha":549,"x_min":63,"x_max":489,"o":"m 279 -12 q 154 18 201 -12 q 85 117 107 49 q 63 301 63 185 l 63 504 q 85 690 63 622 q 156 786 108 757 q 281 815 204 815 q 409 780 364 815 q 472 674 454 744 q 489 483 489 603 l 488 411 l 164 411 l 164 292 q 174 158 164 207 q 208 87 183 110 q 279 64 233 64 q 360 97 332 64 q 389 218 389 131 l 389 274 l 488 274 l 488 229 q 439 50 488 113 q 279 -12 390 -12 m 389 469 l 389 536 q 381 650 389 608 q 350 715 374 692 q 279 739 326 739 q 211 720 236 739 q 175 655 186 701 q 164 524 164 608 l 164 469 l 389 469 m 121 1142 l 224 1142 l 300 869 l 249 869 l 121 1142 z "},"ẻ":{"ha":549,"x_min":63,"x_max":489,"o":"m 279 -12 q 154 18 201 -12 q 85 117 107 49 q 63 301 63 185 l 63 504 q 85 690 63 622 q 156 786 108 757 q 281 815 204 815 q 409 780 364 815 q 472 674 454 744 q 489 483 489 603 l 488 411 l 164 411 l 164 292 q 174 158 164 207 q 208 87 183 110 q 279 64 233 64 q 360 97 332 64 q 389 218 389 131 l 389 274 l 488 274 l 488 229 q 439 50 488 113 q 279 -12 390 -12 m 389 469 l 389 536 q 381 650 389 608 q 350 715 374 692 q 279 739 326 739 q 211 720 236 739 q 175 655 186 701 q 164 524 164 608 l 164 469 l 389 469 m 238 944 q 295 981 276 964 q 314 1022 314 999 q 242 1072 314 1072 q 176 1064 211 1072 l 176 1117 q 265 1126 219 1126 q 358 1102 325 1126 q 390 1029 390 1078 q 360 957 390 985 q 275 904 331 929 l 238 944 z "},"ȇ":{"ha":549,"x_min":63,"x_max":489,"o":"m 279 -12 q 154 18 201 -12 q 85 117 107 49 q 63 301 63 185 l 63 504 q 85 690 63 622 q 156 786 108 757 q 281 815 204 815 q 409 780 364 815 q 472 674 454 744 q 489 483 489 603 l 488 411 l 164 411 l 164 292 q 174 158 164 207 q 208 87 183 110 q 279 64 233 64 q 360 97 332 64 q 389 218 389 131 l 389 274 l 488 274 l 488 229 q 439 50 488 113 q 279 -12 390 -12 m 389 469 l 389 536 q 381 650 389 608 q 350 715 374 692 q 279 739 326 739 q 211 720 236 739 q 175 655 186 701 q 164 524 164 608 l 164 469 l 389 469 m 107 951 q 151 1080 110 1035 q 275 1125 193 1125 q 399 1080 358 1125 q 443 951 440 1035 l 378 951 q 350 1037 376 1011 q 275 1063 324 1063 q 200 1037 226 1063 q 172 951 174 1011 l 107 951 z "},"ē":{"ha":549,"x_min":63,"x_max":489,"o":"m 279 -12 q 154 18 201 -12 q 85 117 107 49 q 63 301 63 185 l 63 504 q 85 690 63 622 q 156 786 108 757 q 281 815 204 815 q 409 780 364 815 q 472 674 454 744 q 489 483 489 603 l 488 411 l 164 411 l 164 292 q 174 158 164 207 q 208 87 183 110 q 279 64 233 64 q 360 97 332 64 q 389 218 389 131 l 389 274 l 488 274 l 488 229 q 439 50 488 113 q 279 -12 390 -12 m 389 469 l 389 536 q 381 650 389 608 q 350 715 374 692 q 279 739 326 739 q 211 720 236 739 q 175 655 186 701 q 164 524 164 608 l 164 469 l 389 469 m 150 1033 l 400 1033 l 400 964 l 150 964 l 150 1033 z "},"ę":{"ha":549,"x_min":63,"x_max":489,"o":"m 164 411 l 164 292 q 174 158 164 207 q 208 87 183 110 q 279 64 233 64 q 360 97 332 64 q 389 218 389 131 l 389 274 l 488 274 l 488 229 q 452 69 488 129 q 336 -7 417 8 q 256 -156 256 -93 q 285 -210 256 -193 q 361 -226 315 -226 q 393 -224 374 -226 l 378 -278 q 338 -281 356 -281 q 221 -253 264 -281 q 178 -167 178 -226 q 201 -83 178 -124 q 264 -12 225 -42 q 110 63 157 -8 q 63 301 63 135 l 63 504 q 85 690 63 622 q 156 786 108 757 q 281 815 204 815 q 409 780 364 815 q 472 674 454 744 q 489 483 489 603 l 488 411 l 164 411 m 164 469 l 389 469 l 389 536 q 381 650 389 608 q 350 715 374 692 q 279 739 326 739 q 211 720 236 739 q 175 655 186 701 q 164 524 164 608 l 164 469 z "},"ẽ":{"ha":549,"x_min":63,"x_max":489,"o":"m 279 -12 q 154 18 201 -12 q 85 117 107 49 q 63 301 63 185 l 63 504 q 85 690 63 622 q 156 786 108 757 q 281 815 204 815 q 409 780 364 815 q 472 674 454 744 q 489 483 489 603 l 488 411 l 164 411 l 164 292 q 174 158 164 207 q 208 87 183 110 q 279 64 233 64 q 360 97 332 64 q 389 218 389 131 l 389 274 l 488 274 l 488 229 q 439 50 488 113 q 279 -12 390 -12 m 389 469 l 389 536 q 381 650 389 608 q 350 715 374 692 q 279 739 326 739 q 211 720 236 739 q 175 655 186 701 q 164 524 164 608 l 164 469 l 389 469 m 360 961 q 317 971 336 961 q 269 999 297 981 q 231 1021 246 1014 q 201 1028 217 1028 q 157 972 157 1028 l 94 972 q 116 1056 94 1018 q 190 1094 138 1094 q 235 1085 214 1094 q 281 1058 256 1076 q 319 1036 304 1043 q 349 1029 333 1029 q 383 1043 372 1029 q 394 1089 394 1057 l 456 1089 q 435 999 456 1038 q 360 961 415 961 z "},"ə":{"ha":549,"x_min":58,"x_max":486,"o":"m 268 -14 q 139 21 185 -14 q 76 126 93 56 q 60 317 58 197 l 61 389 l 385 389 l 385 511 q 375 644 385 596 q 340 716 365 693 q 269 739 315 739 q 188 706 217 739 q 160 585 160 672 l 160 529 l 60 529 l 60 574 q 109 753 60 690 q 269 815 158 815 q 393 785 346 815 q 463 686 440 754 q 486 501 486 618 l 486 296 q 463 111 486 179 q 392 15 440 43 q 268 -14 344 -14 m 269 61 q 338 80 313 61 q 374 145 363 99 q 385 276 385 192 l 385 331 l 160 331 l 160 265 q 167 151 160 193 q 199 85 175 108 q 269 61 222 61 z "},"f":{"ha":372,"x_min":25,"x_max":360,"o":"m 128 729 l 25 729 l 25 803 l 128 803 l 128 886 q 138 997 128 954 q 181 1065 149 1040 q 275 1090 213 1090 q 357 1082 315 1090 l 357 1006 q 328 1010 346 1007 q 300 1013 310 1013 q 244 987 257 1013 q 231 896 231 961 l 231 803 l 360 803 l 360 729 l 231 729 l 231 0 l 128 0 l 128 729 z "},"ḟ":{"ha":372,"x_min":25,"x_max":360,"o":"m 128 729 l 25 729 l 25 803 l 128 803 l 128 886 q 138 997 128 954 q 181 1065 149 1040 q 275 1090 213 1090 q 357 1082 315 1090 l 357 1006 q 328 1010 346 1007 q 300 1013 310 1013 q 244 987 257 1013 q 231 896 231 961 l 231 803 l 360 803 l 360 729 l 231 729 l 231 0 l 128 0 l 128 729 m 196 1368 l 304 1368 l 304 1215 l 196 1215 l 196 1368 z "},"g":{"ha":599,"x_min":24,"x_max":615,"o":"m 297 -264 q 95 -233 167 -264 q 24 -128 24 -201 q 62 -21 24 -69 q 156 57 100 28 q 93 86 119 67 q 67 126 67 106 q 93 206 67 165 q 163 290 119 246 q 85 390 110 329 q 61 535 61 450 q 118 736 61 657 q 286 815 175 815 q 458 715 408 815 q 501 763 471 736 q 567 806 532 790 l 588 813 l 615 742 q 541 714 582 736 q 483 672 500 692 q 501 603 493 646 q 508 532 508 561 q 456 327 508 403 q 288 251 403 251 q 244 255 267 251 q 206 264 221 258 q 185 234 200 256 q 161 193 171 213 q 151 161 151 174 q 218 129 151 140 q 264 120 229 125 q 317 113 299 115 q 346 108 340 110 q 497 47 446 92 q 547 -78 547 1 q 480 -219 547 -174 q 297 -264 413 -264 m 288 325 q 393 383 367 325 q 419 535 419 442 q 288 743 419 743 q 182 682 211 743 q 153 535 153 621 q 288 325 153 325 m 296 -182 q 421 -156 375 -182 q 467 -79 467 -131 q 435 -11 467 -36 q 315 29 404 14 l 213 43 q 110 -94 110 -21 q 153 -161 110 -140 q 296 -182 196 -182 z "},"ǵ":{"ha":599,"x_min":24,"x_max":615,"o":"m 297 -264 q 95 -233 167 -264 q 24 -128 24 -201 q 62 -21 24 -69 q 156 57 100 28 q 93 86 119 67 q 67 126 67 106 q 93 206 67 165 q 163 290 119 246 q 85 390 110 329 q 61 535 61 450 q 118 736 61 657 q 286 815 175 815 q 458 715 408 815 q 501 763 471 736 q 567 806 532 790 l 588 813 l 615 742 q 541 714 582 736 q 483 672 500 692 q 501 603 493 646 q 508 532 508 561 q 456 327 508 403 q 288 251 403 251 q 244 255 267 251 q 206 264 221 258 q 185 234 200 256 q 161 193 171 213 q 151 161 151 174 q 218 129 151 140 q 264 120 229 125 q 317 113 299 115 q 346 108 340 110 q 497 47 446 92 q 547 -78 547 1 q 480 -219 547 -174 q 297 -264 413 -264 m 288 325 q 393 383 367 325 q 419 535 419 442 q 288 743 419 743 q 182 682 211 743 q 153 535 153 621 q 288 325 153 325 m 296 -182 q 421 -156 375 -182 q 467 -79 467 -131 q 435 -11 467 -36 q 315 29 404 14 l 213 43 q 110 -94 110 -21 q 153 -161 110 -140 q 296 -182 196 -182 m 361 1142 l 463 1142 l 326 869 l 274 869 l 361 1142 z "},"ğ":{"ha":599,"x_min":24,"x_max":615,"o":"m 297 -264 q 95 -233 167 -264 q 24 -128 24 -201 q 62 -21 24 -69 q 156 57 100 28 q 93 86 119 67 q 67 126 67 106 q 93 206 67 165 q 163 290 119 246 q 85 390 110 329 q 61 535 61 450 q 118 736 61 657 q 286 815 175 815 q 458 715 408 815 q 501 763 471 736 q 567 806 532 790 l 588 813 l 615 742 q 541 714 582 736 q 483 672 500 692 q 501 603 493 646 q 508 532 508 561 q 456 327 508 403 q 288 251 403 251 q 244 255 267 251 q 206 264 221 258 q 185 234 200 256 q 161 193 171 213 q 151 161 151 174 q 218 129 151 140 q 264 120 229 125 q 317 113 299 115 q 346 108 340 110 q 497 47 446 92 q 547 -78 547 1 q 480 -219 547 -174 q 297 -264 413 -264 m 288 325 q 393 383 367 325 q 419 535 419 442 q 288 743 419 743 q 182 682 211 743 q 153 535 153 621 q 288 325 153 325 m 296 -182 q 421 -156 375 -182 q 467 -79 467 -131 q 435 -11 467 -36 q 315 29 404 14 l 213 43 q 110 -94 110 -21 q 153 -161 110 -140 q 296 -182 196 -182 m 299 889 q 176 932 218 889 q 132 1056 135 975 l 197 1056 q 299 950 199 950 q 403 1056 397 950 l 467 1056 q 422 933 465 976 q 299 889 379 889 z "},"ǧ":{"ha":599,"x_min":24,"x_max":615,"o":"m 297 -264 q 95 -233 167 -264 q 24 -128 24 -201 q 62 -21 24 -69 q 156 57 100 28 q 93 86 119 67 q 67 126 67 106 q 93 206 67 165 q 163 290 119 246 q 85 390 110 329 q 61 535 61 450 q 118 736 61 657 q 286 815 175 815 q 458 715 408 815 q 501 763 471 736 q 567 806 532 790 l 588 813 l 615 742 q 541 714 582 736 q 483 672 500 692 q 501 603 493 646 q 508 532 508 561 q 456 327 508 403 q 288 251 403 251 q 244 255 267 251 q 206 264 221 258 q 185 234 200 256 q 161 193 171 213 q 151 161 151 174 q 218 129 151 140 q 264 120 229 125 q 317 113 299 115 q 346 108 340 110 q 497 47 446 92 q 547 -78 547 1 q 480 -219 547 -174 q 297 -264 413 -264 m 288 325 q 393 383 367 325 q 419 535 419 442 q 288 743 419 743 q 182 682 211 743 q 153 535 153 621 q 288 325 153 325 m 296 -182 q 421 -156 375 -182 q 467 -79 467 -131 q 435 -11 467 -36 q 315 29 404 14 l 213 43 q 110 -94 110 -21 q 153 -161 110 -140 q 296 -182 196 -182 m 136 1125 l 218 1125 l 300 958 l 382 1125 l 464 1125 l 344 893 l 256 893 l 136 1125 z "},"ĝ":{"ha":599,"x_min":24,"x_max":615,"o":"m 297 -264 q 95 -233 167 -264 q 24 -128 24 -201 q 62 -21 24 -69 q 156 57 100 28 q 93 86 119 67 q 67 126 67 106 q 93 206 67 165 q 163 290 119 246 q 85 390 110 329 q 61 535 61 450 q 118 736 61 657 q 286 815 175 815 q 458 715 408 815 q 501 763 471 736 q 567 806 532 790 l 588 813 l 615 742 q 541 714 582 736 q 483 672 500 692 q 501 603 493 646 q 508 532 508 561 q 456 327 508 403 q 288 251 403 251 q 244 255 267 251 q 206 264 221 258 q 185 234 200 256 q 161 193 171 213 q 151 161 151 174 q 218 129 151 140 q 264 120 229 125 q 317 113 299 115 q 346 108 340 110 q 497 47 446 92 q 547 -78 547 1 q 480 -219 547 -174 q 297 -264 413 -264 m 288 325 q 393 383 367 325 q 419 535 419 442 q 288 743 419 743 q 182 682 211 743 q 153 535 153 621 q 288 325 153 325 m 296 -182 q 421 -156 375 -182 q 467 -79 467 -131 q 435 -11 467 -36 q 315 29 404 14 l 213 43 q 110 -94 110 -21 q 153 -161 110 -140 q 296 -182 196 -182 m 243 1125 l 357 1125 l 476 878 l 401 878 l 300 1074 l 199 878 l 124 878 l 243 1125 z "},"ģ":{"ha":599,"x_min":24,"x_max":615,"o":"m 297 -264 q 95 -233 167 -264 q 24 -128 24 -201 q 62 -21 24 -69 q 156 57 100 28 q 93 86 119 67 q 67 126 67 106 q 93 206 67 165 q 163 290 119 246 q 85 390 110 329 q 61 535 61 450 q 118 736 61 657 q 286 815 175 815 q 458 715 408 815 q 501 763 471 736 q 567 806 532 790 l 588 813 l 615 742 q 541 714 582 736 q 483 672 500 692 q 501 603 493 646 q 508 532 508 561 q 456 327 508 403 q 288 251 403 251 q 244 255 267 251 q 206 264 221 258 q 185 234 200 256 q 161 193 171 213 q 151 161 151 174 q 218 129 151 140 q 264 120 229 125 q 317 113 299 115 q 346 108 340 110 q 497 47 446 92 q 547 -78 547 1 q 480 -219 547 -174 q 297 -264 413 -264 m 288 325 q 393 383 367 325 q 419 535 419 442 q 288 743 419 743 q 182 682 211 743 q 153 535 153 621 q 288 325 153 325 m 296 -182 q 421 -156 375 -182 q 467 -79 467 -131 q 435 -11 467 -36 q 315 29 404 14 l 213 43 q 110 -94 110 -21 q 153 -161 110 -140 q 296 -182 196 -182 m 360 1117 q 294 1011 294 1089 l 354 1011 l 354 889 l 240 889 l 242 997 q 261 1108 242 1069 q 335 1163 281 1147 l 360 1117 z "},"ġ":{"ha":599,"x_min":24,"x_max":615,"o":"m 297 -264 q 95 -233 167 -264 q 24 -128 24 -201 q 62 -21 24 -69 q 156 57 100 28 q 93 86 119 67 q 67 126 67 106 q 93 206 67 165 q 163 290 119 246 q 85 390 110 329 q 61 535 61 450 q 118 736 61 657 q 286 815 175 815 q 458 715 408 815 q 501 763 471 736 q 567 806 532 790 l 588 813 l 615 742 q 541 714 582 736 q 483 672 500 692 q 501 603 493 646 q 508 532 508 561 q 456 327 508 403 q 288 251 403 251 q 244 255 267 251 q 206 264 221 258 q 185 234 200 256 q 161 193 171 213 q 151 161 151 174 q 218 129 151 140 q 264 120 229 125 q 317 113 299 115 q 346 108 340 110 q 497 47 446 92 q 547 -78 547 1 q 480 -219 547 -174 q 297 -264 413 -264 m 288 325 q 393 383 367 325 q 419 535 419 442 q 288 743 419 743 q 182 682 211 743 q 153 535 153 621 q 288 325 153 325 m 296 -182 q 421 -156 375 -182 q 467 -79 467 -131 q 435 -11 467 -36 q 315 29 404 14 l 213 43 q 110 -94 110 -21 q 153 -161 110 -140 q 296 -182 196 -182 m 246 1089 l 354 1089 l 354 936 l 246 936 l 246 1089 z "},"h":{"ha":572,"x_min":79,"x_max":500,"o":"m 79 1125 l 181 1125 l 181 718 q 376 815 271 815 q 468 771 436 815 q 500 644 500 726 l 500 0 l 397 0 l 397 622 q 378 710 397 683 q 321 736 360 736 q 251 715 288 736 q 181 660 214 694 l 181 0 l 79 0 l 79 1125 z "},"ħ":{"ha":571,"x_min":-11,"x_max":499,"o":"m 79 968 l -11 968 l -11 1029 l 79 1029 l 79 1125 l 181 1125 l 181 1029 l 347 1029 l 347 968 l 181 968 l 181 718 q 271 790 221 764 q 375 815 321 815 q 467 771 435 815 q 499 644 499 726 l 499 0 l 397 0 l 397 622 q 378 710 397 683 q 321 736 360 736 q 181 660 254 736 l 181 0 l 79 0 l 79 968 z "},"ĥ":{"ha":572,"x_min":-46,"x_max":500,"o":"m 79 1125 l 181 1125 l 181 718 q 376 815 271 815 q 468 771 436 815 q 500 644 500 726 l 500 0 l 397 0 l 397 622 q 378 710 397 683 q 321 736 360 736 q 251 715 288 736 q 181 660 214 694 l 181 0 l 79 0 l 79 1125 m 74 1447 l 188 1447 l 307 1200 l 232 1200 l 131 1396 l 29 1200 l -46 1200 l 74 1447 z "},"i":{"ha":283,"x_min":89,"x_max":190,"o":"m 89 1051 l 190 1051 l 190 914 l 89 914 l 89 1051 m 89 803 l 190 803 l 190 0 l 89 0 l 89 803 z "},"ı":{"ha":275,"x_min":89,"x_max":190,"o":"m 89 803 l 190 803 l 190 0 l 89 0 l 89 803 z "},"í":{"ha":275,"x_min":89,"x_max":303,"o":"m 89 803 l 190 803 l 190 0 l 89 0 l 89 803 m 201 1142 l 303 1142 l 167 869 l 114 869 l 201 1142 z "},"ĭ":{"ha":275,"x_min":-28,"x_max":307,"o":"m 89 803 l 190 803 l 190 0 l 89 0 l 89 803 m 139 889 q 17 932 58 889 q -28 1056 -25 975 l 38 1056 q 139 950 39 950 q 243 1056 238 950 l 307 1056 q 263 933 306 976 q 139 889 219 889 z "},"î":{"ha":275,"x_min":-36,"x_max":317,"o":"m 89 803 l 190 803 l 190 0 l 89 0 l 89 803 m 83 1125 l 197 1125 l 317 878 l 242 878 l 140 1074 l 39 878 l -36 878 l 83 1125 z "},"ȉ":{"ha":275,"x_min":-97,"x_max":239,"o":"m 89 803 l 190 803 l 190 0 l 89 0 l 89 803 m -97 1125 l 11 1125 l 89 908 l 36 908 l -97 1125 m 92 1125 l 182 1125 l 239 908 l 188 908 l 92 1125 z "},"ï":{"ha":275,"x_min":-25,"x_max":308,"o":"m 89 803 l 190 803 l 190 0 l 89 0 l 89 803 m -25 1125 l 79 1125 l 79 1001 l -25 1001 l -25 1125 m 204 1125 l 308 1125 l 308 1001 l 204 1001 l 204 1125 z "},"ị":{"ha":283,"x_min":89,"x_max":197,"o":"m 89 1051 l 190 1051 l 190 914 l 89 914 l 89 1051 m 89 803 l 190 803 l 190 0 l 89 0 l 89 803 m 89 -85 l 197 -85 l 197 -208 l 89 -208 l 89 -85 z "},"ì":{"ha":275,"x_min":-14,"x_max":190,"o":"m 89 803 l 190 803 l 190 0 l 89 0 l 89 803 m -14 1142 l 89 1142 l 165 869 l 114 869 l -14 1142 z "},"ỉ":{"ha":275,"x_min":42,"x_max":256,"o":"m 89 803 l 190 803 l 190 0 l 89 0 l 89 803 m 103 944 q 160 981 142 964 q 179 1022 179 999 q 107 1072 179 1072 q 42 1064 76 1072 l 42 1117 q 131 1126 85 1126 q 223 1102 190 1126 q 256 1029 256 1078 q 226 957 256 985 q 140 904 196 929 l 103 944 z "},"ȋ":{"ha":275,"x_min":-28,"x_max":308,"o":"m 89 803 l 190 803 l 190 0 l 89 0 l 89 803 m -28 951 q 17 1080 -25 1035 q 140 1125 58 1125 q 265 1080 224 1125 q 308 951 306 1035 l 243 951 q 215 1037 242 1011 q 140 1063 189 1063 q 65 1037 92 1063 q 38 951 39 1011 l -28 951 z "},"ĳ":{"ha":579,"x_min":89,"x_max":492,"o":"m 89 1051 l 190 1051 l 190 914 l 89 914 l 89 1051 m 89 803 l 190 803 l 190 0 l 89 0 l 89 803 m 390 1051 l 492 1051 l 492 914 l 390 914 l 390 1051 m 314 -211 q 260 -206 275 -211 l 260 -128 q 294 -131 271 -131 q 371 -101 351 -131 q 390 -19 390 -71 l 390 803 l 492 803 l 492 -28 q 314 -211 492 -211 z "},"ī":{"ha":275,"x_min":15,"x_max":265,"o":"m 89 803 l 190 803 l 190 0 l 89 0 l 89 803 m 15 1033 l 265 1033 l 265 964 l 15 964 l 15 1033 z "},"į":{"ha":283,"x_min":-12,"x_max":203,"o":"m 89 1051 l 190 1051 l 190 914 l 89 914 l 89 1051 m 89 803 l 190 803 l 190 0 l 89 0 l 89 803 m 147 -294 q 31 -267 74 -294 q -12 -181 -12 -240 q 24 -77 -12 -126 q 114 0 61 -28 l 168 0 q 65 -169 65 -97 q 95 -224 65 -207 q 171 -240 125 -240 q 203 -237 183 -240 l 188 -292 q 147 -294 165 -294 z "},"ĩ":{"ha":275,"x_min":-40,"x_max":321,"o":"m 89 803 l 190 803 l 190 0 l 89 0 l 89 803 m 225 961 q 182 971 201 961 q 135 999 163 981 q 97 1021 111 1014 q 67 1028 82 1028 q 22 972 22 1028 l -40 972 q -19 1056 -40 1018 q 56 1094 3 1094 q 100 1085 79 1094 q 146 1058 121 1076 q 184 1036 169 1043 q 214 1029 199 1029 q 249 1043 238 1029 q 260 1089 260 1057 l 321 1089 q 301 999 321 1038 q 225 961 281 961 z "},"j":{"ha":296,"x_min":-24,"x_max":208,"o":"m 107 1051 l 208 1051 l 208 914 l 107 914 l 107 1051 m 31 -211 q -24 -206 -8 -211 l -24 -128 q 11 -131 -12 -131 q 88 -101 68 -131 q 107 -19 107 -71 l 107 803 l 208 803 l 208 -28 q 31 -211 208 -211 z "},"ȷ":{"ha":296,"x_min":-24,"x_max":208,"o":"m 31 -211 q -24 -206 -8 -211 l -24 -128 q 11 -131 -12 -131 q 88 -101 68 -131 q 107 -19 107 -71 l 107 803 l 208 803 l 208 -28 q 31 -211 208 -211 z "},"ĵ":{"ha":296,"x_min":-24,"x_max":335,"o":"m 31 -211 q -24 -206 -8 -211 l -24 -128 q 11 -131 -12 -131 q 88 -101 68 -131 q 107 -19 107 -71 l 107 803 l 208 803 l 208 -28 q 31 -211 208 -211 m 101 1125 l 215 1125 l 335 878 l 260 878 l 158 1074 l 57 878 l -18 878 l 101 1125 z "},"k":{"ha":556,"x_min":79,"x_max":556,"o":"m 79 1125 l 181 1125 l 181 411 l 449 803 l 556 803 l 353 493 l 547 0 l 444 0 l 275 436 l 181 304 l 181 0 l 79 0 l 79 1125 z "},"ķ":{"ha":556,"x_min":79,"x_max":556,"o":"m 79 1125 l 181 1125 l 181 411 l 449 803 l 556 803 l 353 493 l 547 0 l 444 0 l 275 436 l 181 304 l 181 0 l 79 0 l 79 1125 m 219 -312 q 285 -207 285 -285 l 225 -207 l 225 -85 l 339 -85 l 338 -193 q 318 -304 338 -265 q 244 -358 299 -343 l 219 -312 z "},"ĸ":{"ha":581,"x_min":86,"x_max":550,"o":"m 86 803 l 188 803 l 188 408 l 442 803 l 547 803 l 350 492 l 550 0 l 447 0 l 279 422 l 188 290 l 188 0 l 86 0 l 86 803 z "},"l":{"ha":281,"x_min":92,"x_max":193,"o":"m 92 1125 l 193 1125 l 193 0 l 92 0 l 92 1125 z "},"ĺ":{"ha":281,"x_min":92,"x_max":306,"o":"m 92 1125 l 193 1125 l 193 0 l 92 0 l 92 1125 m 204 1464 l 306 1464 l 169 1192 l 117 1192 l 204 1464 z "},"ľ":{"ha":360,"x_min":92,"x_max":379,"o":"m 92 1125 l 193 1125 l 193 0 l 92 0 l 92 1125 m 261 857 q 313 905 297 878 q 328 974 328 932 l 267 974 l 267 1125 l 379 1125 l 379 985 q 357 878 379 917 q 282 813 335 839 l 261 857 z "},"ļ":{"ha":281,"x_min":83,"x_max":203,"o":"m 92 1125 l 193 1125 l 193 0 l 92 0 l 92 1125 m 83 -312 q 149 -207 149 -285 l 89 -207 l 89 -85 l 203 -85 l 201 -193 q 182 -304 201 -265 q 108 -358 163 -343 l 83 -312 z "},"ŀ":{"ha":338,"x_min":92,"x_max":353,"o":"m 92 1125 l 193 1125 l 193 0 l 92 0 l 92 1125 m 271 672 l 353 672 l 353 550 l 271 550 l 271 672 z "},"ǉ":{"ha":576,"x_min":92,"x_max":489,"o":"m 92 1125 l 193 1125 l 193 0 l 92 0 l 92 1125 m 388 1051 l 489 1051 l 489 914 l 388 914 l 388 1051 m 311 -211 q 257 -206 272 -211 l 257 -128 q 292 -131 268 -131 q 368 -101 349 -131 q 388 -19 388 -71 l 388 803 l 489 803 l 489 -28 q 311 -211 489 -211 z "},"ł":{"ha":354,"x_min":39,"x_max":314,"o":"m 129 617 l 39 569 l 39 654 l 129 699 l 129 1125 l 231 1125 l 231 749 l 314 793 l 314 710 l 231 665 l 231 0 l 129 0 l 129 617 z "},"m":{"ha":894,"x_min":78,"x_max":822,"o":"m 78 803 l 172 803 l 172 721 q 260 792 211 768 q 361 817 308 817 q 489 713 461 817 q 580 790 529 764 q 686 817 631 817 q 784 774 746 817 q 822 633 822 731 l 822 0 l 728 0 l 728 631 q 707 722 728 696 q 647 747 686 747 q 571 725 611 747 q 496 664 531 703 q 499 633 499 644 l 499 0 l 403 0 l 403 631 q 382 722 403 697 q 322 747 361 747 q 247 725 286 747 q 172 665 208 703 l 172 0 l 78 0 l 78 803 z "},"ṁ":{"ha":894,"x_min":78,"x_max":822,"o":"m 78 803 l 172 803 l 172 721 q 260 792 211 768 q 361 817 308 817 q 489 713 461 817 q 580 790 529 764 q 686 817 631 817 q 784 774 746 817 q 822 633 822 731 l 822 0 l 728 0 l 728 631 q 707 722 728 696 q 647 747 686 747 q 571 725 611 747 q 496 664 531 703 q 499 633 499 644 l 499 0 l 403 0 l 403 631 q 382 722 403 697 q 322 747 361 747 q 247 725 286 747 q 172 665 208 703 l 172 0 l 78 0 l 78 803 m 394 1089 l 503 1089 l 503 936 l 394 936 l 394 1089 z "},"n":{"ha":568,"x_min":78,"x_max":496,"o":"m 78 803 l 179 803 l 179 719 q 269 790 219 764 q 372 815 318 815 q 464 771 432 815 q 496 644 496 726 l 496 0 l 394 0 l 394 622 q 376 710 394 683 q 318 736 357 736 q 249 716 285 736 q 179 661 213 696 l 179 0 l 78 0 l 78 803 z "},"ń":{"ha":568,"x_min":78,"x_max":496,"o":"m 78 803 l 179 803 l 179 719 q 269 790 219 764 q 372 815 318 815 q 464 771 432 815 q 496 644 496 726 l 496 0 l 394 0 l 394 622 q 376 710 394 683 q 318 736 357 736 q 249 716 285 736 q 179 661 213 696 l 179 0 l 78 0 l 78 803 m 346 1142 l 447 1142 l 311 869 l 258 869 l 346 1142 z "},"ŉ":{"ha":646,"x_min":18,"x_max":582,"o":"m 18 889 q 69 937 54 910 q 85 1006 85 964 l 25 1006 l 25 1157 l 138 1157 l 138 1017 q 115 910 138 949 q 40 844 93 871 l 18 889 m 164 803 l 265 803 l 265 719 q 355 790 306 764 q 458 815 404 815 q 550 771 518 815 q 582 644 582 726 l 582 0 l 481 0 l 481 622 q 462 710 481 683 q 404 736 443 736 q 335 716 371 736 q 265 661 299 696 l 265 0 l 164 0 l 164 803 z "},"ň":{"ha":568,"x_min":78,"x_max":496,"o":"m 78 803 l 179 803 l 179 719 q 269 790 219 764 q 372 815 318 815 q 464 771 432 815 q 496 644 496 726 l 496 0 l 394 0 l 394 622 q 376 710 394 683 q 318 736 357 736 q 249 716 285 736 q 179 661 213 696 l 179 0 l 78 0 l 78 803 m 121 1125 l 203 1125 l 285 958 l 367 1125 l 449 1125 l 329 893 l 240 893 l 121 1125 z "},"ņ":{"ha":568,"x_min":78,"x_max":496,"o":"m 78 803 l 179 803 l 179 719 q 269 790 219 764 q 372 815 318 815 q 464 771 432 815 q 496 644 496 726 l 496 0 l 394 0 l 394 622 q 376 710 394 683 q 318 736 357 736 q 249 716 285 736 q 179 661 213 696 l 179 0 l 78 0 l 78 803 m 225 -312 q 290 -207 290 -285 l 231 -207 l 231 -85 l 344 -85 l 343 -193 q 324 -304 343 -265 q 250 -358 304 -343 l 225 -312 z "},"ŋ":{"ha":539,"x_min":69,"x_max":489,"o":"m 222 -151 q 353 -117 319 -151 q 386 -7 386 -82 l 386 622 q 367 710 386 683 q 310 736 349 736 q 241 716 276 736 q 172 661 206 696 l 172 0 l 69 0 l 69 803 l 172 803 l 172 719 q 364 815 261 815 q 456 771 424 815 q 489 644 489 726 l 489 -8 q 424 -178 489 -125 q 250 -232 358 -232 l 222 -232 l 222 -151 z "},"ǌ":{"ha":864,"x_min":78,"x_max":776,"o":"m 78 803 l 179 803 l 179 719 q 269 790 219 764 q 372 815 318 815 q 464 771 432 815 q 496 644 496 726 l 496 0 l 394 0 l 394 622 q 376 710 394 683 q 318 736 357 736 q 249 716 285 736 q 179 661 213 696 l 179 0 l 78 0 l 78 803 m 675 1051 l 776 1051 l 776 914 l 675 914 l 675 1051 m 599 -211 q 544 -206 560 -211 l 544 -128 q 579 -131 556 -131 q 656 -101 636 -131 q 675 -19 675 -71 l 675 803 l 776 803 l 776 -28 q 599 -211 776 -211 z "},"ñ":{"ha":568,"x_min":78,"x_max":496,"o":"m 78 803 l 179 803 l 179 719 q 269 790 219 764 q 372 815 318 815 q 464 771 432 815 q 496 644 496 726 l 496 0 l 394 0 l 394 622 q 376 710 394 683 q 318 736 357 736 q 249 716 285 736 q 179 661 213 696 l 179 0 l 78 0 l 78 803 m 369 961 q 326 971 346 961 q 279 999 307 981 q 241 1021 256 1014 q 211 1028 226 1028 q 167 972 167 1028 l 104 972 q 126 1056 104 1018 q 200 1094 147 1094 q 244 1085 224 1094 q 290 1058 265 1076 q 328 1036 314 1043 q 358 1029 343 1029 q 393 1043 382 1029 q 404 1089 404 1057 l 465 1089 q 445 999 465 1038 q 369 961 425 961 z "},"o":{"ha":553,"x_min":63,"x_max":490,"o":"m 276 -12 q 110 62 157 -12 q 63 290 63 136 l 63 513 q 110 741 63 667 q 276 815 157 815 q 443 741 396 815 q 490 513 490 667 l 490 290 q 443 62 490 136 q 276 -12 396 -12 m 276 64 q 351 90 326 64 q 382 163 375 117 q 389 285 389 208 l 389 518 q 382 640 389 594 q 351 713 375 686 q 276 739 326 739 q 202 713 226 739 q 171 641 178 686 q 164 518 164 596 l 164 285 q 171 162 164 207 q 202 90 178 117 q 276 64 226 64 z "},"ó":{"ha":553,"x_min":63,"x_max":490,"o":"m 276 -12 q 110 62 157 -12 q 63 290 63 136 l 63 513 q 110 741 63 667 q 276 815 157 815 q 443 741 396 815 q 490 513 490 667 l 490 290 q 443 62 490 136 q 276 -12 396 -12 m 276 64 q 351 90 326 64 q 382 163 375 117 q 389 285 389 208 l 389 518 q 382 640 389 594 q 351 713 375 686 q 276 739 326 739 q 202 713 226 739 q 171 641 178 686 q 164 518 164 596 l 164 285 q 171 162 164 207 q 202 90 178 117 q 276 64 226 64 m 339 1142 l 440 1142 l 304 869 l 251 869 l 339 1142 z "},"ŏ":{"ha":553,"x_min":63,"x_max":490,"o":"m 276 -12 q 110 62 157 -12 q 63 290 63 136 l 63 513 q 110 741 63 667 q 276 815 157 815 q 443 741 396 815 q 490 513 490 667 l 490 290 q 443 62 490 136 q 276 -12 396 -12 m 276 64 q 351 90 326 64 q 382 163 375 117 q 389 285 389 208 l 389 518 q 382 640 389 594 q 351 713 375 686 q 276 739 326 739 q 202 713 226 739 q 171 641 178 686 q 164 518 164 596 l 164 285 q 171 162 164 207 q 202 90 178 117 q 276 64 226 64 m 276 889 q 154 932 196 889 q 110 1056 113 975 l 175 1056 q 276 950 176 950 q 381 1056 375 950 l 444 1056 q 400 933 443 976 q 276 889 357 889 z "},"ô":{"ha":553,"x_min":63,"x_max":490,"o":"m 276 -12 q 110 62 157 -12 q 63 290 63 136 l 63 513 q 110 741 63 667 q 276 815 157 815 q 443 741 396 815 q 490 513 490 667 l 490 290 q 443 62 490 136 q 276 -12 396 -12 m 276 64 q 351 90 326 64 q 382 163 375 117 q 389 285 389 208 l 389 518 q 382 640 389 594 q 351 713 375 686 q 276 739 326 739 q 202 713 226 739 q 171 641 178 686 q 164 518 164 596 l 164 285 q 171 162 164 207 q 202 90 178 117 q 276 64 226 64 m 221 1125 l 335 1125 l 454 878 l 379 878 l 278 1074 l 176 878 l 101 878 l 221 1125 z "},"ố":{"ha":553,"x_min":63,"x_max":600,"o":"m 276 -12 q 110 62 157 -12 q 63 290 63 136 l 63 513 q 110 741 63 667 q 276 815 157 815 q 443 741 396 815 q 490 513 490 667 l 490 290 q 443 62 490 136 q 276 -12 396 -12 m 276 64 q 351 90 326 64 q 382 163 375 117 q 389 285 389 208 l 389 518 q 382 640 389 594 q 351 713 375 686 q 276 739 326 739 q 202 713 226 739 q 171 641 178 686 q 164 518 164 596 l 164 285 q 171 162 164 207 q 202 90 178 117 q 276 64 226 64 m 507 1169 l 600 1169 l 501 1010 l 433 1010 l 507 1169 m 221 1081 l 335 1081 l 454 878 l 379 878 l 278 1031 l 176 878 l 101 878 l 221 1081 z "},"ộ":{"ha":553,"x_min":63,"x_max":490,"o":"m 276 -12 q 110 62 157 -12 q 63 290 63 136 l 63 513 q 110 741 63 667 q 276 815 157 815 q 443 741 396 815 q 490 513 490 667 l 490 290 q 443 62 490 136 q 276 -12 396 -12 m 276 64 q 351 90 326 64 q 382 163 375 117 q 389 285 389 208 l 389 518 q 382 640 389 594 q 351 713 375 686 q 276 739 326 739 q 202 713 226 739 q 171 641 178 686 q 164 518 164 596 l 164 285 q 171 162 164 207 q 202 90 178 117 q 276 64 226 64 m 224 -85 l 332 -85 l 332 -208 l 224 -208 l 224 -85 m 221 1081 l 335 1081 l 454 878 l 379 878 l 278 1031 l 176 878 l 101 878 l 221 1081 z "},"ồ":{"ha":553,"x_min":63,"x_max":536,"o":"m 276 -12 q 110 62 157 -12 q 63 290 63 136 l 63 513 q 110 741 63 667 q 276 815 157 815 q 443 741 396 815 q 490 513 490 667 l 490 290 q 443 62 490 136 q 276 -12 396 -12 m 276 64 q 351 90 326 64 q 382 163 375 117 q 389 285 389 208 l 389 518 q 382 640 389 594 q 351 713 375 686 q 276 739 326 739 q 202 713 226 739 q 171 641 178 686 q 164 518 164 596 l 164 285 q 171 162 164 207 q 202 90 178 117 q 276 64 226 64 m 369 1169 l 463 1169 l 536 1010 l 469 1010 l 369 1169 m 221 1081 l 335 1081 l 454 878 l 379 878 l 278 1031 l 176 878 l 101 878 l 221 1081 z "},"ổ":{"ha":553,"x_min":63,"x_max":564,"o":"m 276 -12 q 110 62 157 -12 q 63 290 63 136 l 63 513 q 110 741 63 667 q 276 815 157 815 q 443 741 396 815 q 490 513 490 667 l 490 290 q 443 62 490 136 q 276 -12 396 -12 m 276 64 q 351 90 326 64 q 382 163 375 117 q 389 285 389 208 l 389 518 q 382 640 389 594 q 351 713 375 686 q 276 739 326 739 q 202 713 226 739 q 171 641 178 686 q 164 518 164 596 l 164 285 q 171 162 164 207 q 202 90 178 117 q 276 64 226 64 m 421 1038 q 470 1074 454 1057 q 486 1115 486 1092 q 469 1151 486 1139 q 424 1164 453 1164 q 360 1154 390 1164 l 360 1207 q 446 1219 404 1219 q 532 1194 500 1219 q 564 1122 564 1169 q 536 1049 564 1078 q 458 997 508 1019 l 421 1038 m 221 1081 l 335 1081 l 454 878 l 379 878 l 278 1031 l 176 878 l 101 878 l 221 1081 z "},"ỗ":{"ha":553,"x_min":63,"x_max":490,"o":"m 276 -12 q 110 62 157 -12 q 63 290 63 136 l 63 513 q 110 741 63 667 q 276 815 157 815 q 443 741 396 815 q 490 513 490 667 l 490 290 q 443 62 490 136 q 276 -12 396 -12 m 276 64 q 351 90 326 64 q 382 163 375 117 q 389 285 389 208 l 389 518 q 382 640 389 594 q 351 713 375 686 q 276 739 326 739 q 202 713 226 739 q 171 641 178 686 q 164 518 164 596 l 164 285 q 171 162 164 207 q 202 90 178 117 q 276 64 226 64 m 221 1081 l 335 1081 l 454 878 l 379 878 l 278 1031 l 176 878 l 101 878 l 221 1081 m 363 1147 q 319 1157 339 1147 q 272 1185 300 1167 q 234 1207 249 1200 q 204 1214 219 1214 q 160 1158 160 1214 l 97 1158 q 119 1242 97 1204 q 193 1281 140 1281 q 238 1272 217 1281 q 283 1244 258 1263 q 322 1222 307 1229 q 351 1215 336 1215 q 386 1229 375 1215 q 397 1275 397 1243 l 458 1275 q 438 1185 458 1224 q 363 1147 418 1147 z "},"ȍ":{"ha":553,"x_min":40,"x_max":490,"o":"m 276 -12 q 110 62 157 -12 q 63 290 63 136 l 63 513 q 110 741 63 667 q 276 815 157 815 q 443 741 396 815 q 490 513 490 667 l 490 290 q 443 62 490 136 q 276 -12 396 -12 m 276 64 q 351 90 326 64 q 382 163 375 117 q 389 285 389 208 l 389 518 q 382 640 389 594 q 351 713 375 686 q 276 739 326 739 q 202 713 226 739 q 171 641 178 686 q 164 518 164 596 l 164 285 q 171 162 164 207 q 202 90 178 117 q 276 64 226 64 m 40 1125 l 149 1125 l 226 908 l 174 908 l 40 1125 m 229 1125 l 319 1125 l 376 908 l 325 908 l 229 1125 z "},"ö":{"ha":553,"x_min":63,"x_max":490,"o":"m 276 -12 q 110 62 157 -12 q 63 290 63 136 l 63 513 q 110 741 63 667 q 276 815 157 815 q 443 741 396 815 q 490 513 490 667 l 490 290 q 443 62 490 136 q 276 -12 396 -12 m 276 64 q 351 90 326 64 q 382 163 375 117 q 389 285 389 208 l 389 518 q 382 640 389 594 q 351 713 375 686 q 276 739 326 739 q 202 713 226 739 q 171 641 178 686 q 164 518 164 596 l 164 285 q 171 162 164 207 q 202 90 178 117 q 276 64 226 64 m 113 1125 l 217 1125 l 217 1001 l 113 1001 l 113 1125 m 342 1125 l 446 1125 l 446 1001 l 342 1001 l 342 1125 z "},"ȫ":{"ha":553,"x_min":63,"x_max":490,"o":"m 276 -12 q 110 62 157 -12 q 63 290 63 136 l 63 513 q 110 741 63 667 q 276 815 157 815 q 443 741 396 815 q 490 513 490 667 l 490 290 q 443 62 490 136 q 276 -12 396 -12 m 276 64 q 351 90 326 64 q 382 163 375 117 q 389 285 389 208 l 389 518 q 382 640 389 594 q 351 713 375 686 q 276 739 326 739 q 202 713 226 739 q 171 641 178 686 q 164 518 164 596 l 164 285 q 171 162 164 207 q 202 90 178 117 q 276 64 226 64 m 113 1125 l 217 1125 l 217 1001 l 113 1001 l 113 1125 m 342 1125 l 446 1125 l 446 1001 l 342 1001 l 342 1125 m 153 1356 l 403 1356 l 403 1286 l 153 1286 l 153 1356 z "},"ȱ":{"ha":553,"x_min":63,"x_max":490,"o":"m 276 -12 q 110 62 157 -12 q 63 290 63 136 l 63 513 q 110 741 63 667 q 276 815 157 815 q 443 741 396 815 q 490 513 490 667 l 490 290 q 443 62 490 136 q 276 -12 396 -12 m 276 64 q 351 90 326 64 q 382 163 375 117 q 389 285 389 208 l 389 518 q 382 640 389 594 q 351 713 375 686 q 276 739 326 739 q 202 713 226 739 q 171 641 178 686 q 164 518 164 596 l 164 285 q 171 162 164 207 q 202 90 178 117 q 276 64 226 64 m 224 1089 l 332 1089 l 332 936 l 224 936 l 224 1089 m 153 1319 l 403 1319 l 403 1250 l 153 1250 l 153 1319 z "},"ọ":{"ha":553,"x_min":63,"x_max":490,"o":"m 276 -12 q 110 62 157 -12 q 63 290 63 136 l 63 513 q 110 741 63 667 q 276 815 157 815 q 443 741 396 815 q 490 513 490 667 l 490 290 q 443 62 490 136 q 276 -12 396 -12 m 276 64 q 351 90 326 64 q 382 163 375 117 q 389 285 389 208 l 389 518 q 382 640 389 594 q 351 713 375 686 q 276 739 326 739 q 202 713 226 739 q 171 641 178 686 q 164 518 164 596 l 164 285 q 171 162 164 207 q 202 90 178 117 q 276 64 226 64 m 224 -85 l 332 -85 l 332 -208 l 224 -208 l 224 -85 z "},"ò":{"ha":553,"x_min":63,"x_max":490,"o":"m 276 -12 q 110 62 157 -12 q 63 290 63 136 l 63 513 q 110 741 63 667 q 276 815 157 815 q 443 741 396 815 q 490 513 490 667 l 490 290 q 443 62 490 136 q 276 -12 396 -12 m 276 64 q 351 90 326 64 q 382 163 375 117 q 389 285 389 208 l 389 518 q 382 640 389 594 q 351 713 375 686 q 276 739 326 739 q 202 713 226 739 q 171 641 178 686 q 164 518 164 596 l 164 285 q 171 162 164 207 q 202 90 178 117 q 276 64 226 64 m 124 1142 l 226 1142 l 303 869 l 251 869 l 124 1142 z "},"ỏ":{"ha":553,"x_min":63,"x_max":490,"o":"m 276 -12 q 110 62 157 -12 q 63 290 63 136 l 63 513 q 110 741 63 667 q 276 815 157 815 q 443 741 396 815 q 490 513 490 667 l 490 290 q 443 62 490 136 q 276 -12 396 -12 m 276 64 q 351 90 326 64 q 382 163 375 117 q 389 285 389 208 l 389 518 q 382 640 389 594 q 351 713 375 686 q 276 739 326 739 q 202 713 226 739 q 171 641 178 686 q 164 518 164 596 l 164 285 q 171 162 164 207 q 202 90 178 117 q 276 64 226 64 m 240 944 q 298 981 279 964 q 317 1022 317 999 q 244 1072 317 1072 q 179 1064 214 1072 l 179 1117 q 268 1126 222 1126 q 360 1102 328 1126 q 393 1029 393 1078 q 363 957 393 985 q 278 904 333 929 l 240 944 z "},"ơ":{"ha":553,"x_min":63,"x_max":490,"o":"m 490 896 q 425 763 490 799 q 475 665 460 726 q 490 513 490 603 l 490 290 q 443 62 490 136 q 276 -12 396 -12 q 110 62 157 -12 q 63 290 63 136 l 63 513 q 110 741 63 667 q 276 815 157 815 q 357 804 319 815 q 399 832 386 810 q 411 896 411 854 l 490 896 m 389 518 q 382 640 389 594 q 351 713 375 686 q 276 739 326 739 q 202 713 226 739 q 171 641 178 686 q 164 518 164 596 l 164 285 q 171 162 164 207 q 202 90 178 117 q 276 64 226 64 q 351 90 326 64 q 382 163 375 117 q 389 285 389 208 l 389 518 z "},"ớ":{"ha":553,"x_min":63,"x_max":490,"o":"m 490 896 q 425 763 490 799 q 475 665 460 726 q 490 513 490 603 l 490 290 q 443 62 490 136 q 276 -12 396 -12 q 110 62 157 -12 q 63 290 63 136 l 63 513 q 110 741 63 667 q 276 815 157 815 q 357 804 319 815 q 399 832 386 810 q 411 896 411 854 l 490 896 m 389 518 q 382 640 389 594 q 351 713 375 686 q 276 739 326 739 q 202 713 226 739 q 171 641 178 686 q 164 518 164 596 l 164 285 q 171 162 164 207 q 202 90 178 117 q 276 64 226 64 q 351 90 326 64 q 382 163 375 117 q 389 285 389 208 l 389 518 m 339 1142 l 440 1142 l 304 869 l 251 869 l 339 1142 z "},"ợ":{"ha":553,"x_min":63,"x_max":490,"o":"m 490 896 q 425 763 490 799 q 475 665 460 726 q 490 513 490 603 l 490 290 q 443 62 490 136 q 276 -12 396 -12 q 110 62 157 -12 q 63 290 63 136 l 63 513 q 110 741 63 667 q 276 815 157 815 q 357 804 319 815 q 399 832 386 810 q 411 896 411 854 l 490 896 m 389 518 q 382 640 389 594 q 351 713 375 686 q 276 739 326 739 q 202 713 226 739 q 171 641 178 686 q 164 518 164 596 l 164 285 q 171 162 164 207 q 202 90 178 117 q 276 64 226 64 q 351 90 326 64 q 382 163 375 117 q 389 285 389 208 l 389 518 m 224 -85 l 332 -85 l 332 -208 l 224 -208 l 224 -85 z "},"ờ":{"ha":553,"x_min":63,"x_max":490,"o":"m 490 896 q 425 763 490 799 q 475 665 460 726 q 490 513 490 603 l 490 290 q 443 62 490 136 q 276 -12 396 -12 q 110 62 157 -12 q 63 290 63 136 l 63 513 q 110 741 63 667 q 276 815 157 815 q 357 804 319 815 q 399 832 386 810 q 411 896 411 854 l 490 896 m 389 518 q 382 640 389 594 q 351 713 375 686 q 276 739 326 739 q 202 713 226 739 q 171 641 178 686 q 164 518 164 596 l 164 285 q 171 162 164 207 q 202 90 178 117 q 276 64 226 64 q 351 90 326 64 q 382 163 375 117 q 389 285 389 208 l 389 518 m 124 1142 l 226 1142 l 303 869 l 251 869 l 124 1142 z "},"ở":{"ha":553,"x_min":63,"x_max":490,"o":"m 490 896 q 425 763 490 799 q 475 665 460 726 q 490 513 490 603 l 490 290 q 443 62 490 136 q 276 -12 396 -12 q 110 62 157 -12 q 63 290 63 136 l 63 513 q 110 741 63 667 q 276 815 157 815 q 357 804 319 815 q 399 832 386 810 q 411 896 411 854 l 490 896 m 389 518 q 382 640 389 594 q 351 713 375 686 q 276 739 326 739 q 202 713 226 739 q 171 641 178 686 q 164 518 164 596 l 164 285 q 171 162 164 207 q 202 90 178 117 q 276 64 226 64 q 351 90 326 64 q 382 163 375 117 q 389 285 389 208 l 389 518 m 240 944 q 298 981 279 964 q 317 1022 317 999 q 244 1072 317 1072 q 179 1064 214 1072 l 179 1117 q 268 1126 222 1126 q 360 1102 328 1126 q 393 1029 393 1078 q 363 957 393 985 q 278 904 333 929 l 240 944 z "},"ỡ":{"ha":553,"x_min":63,"x_max":490,"o":"m 490 896 q 425 763 490 799 q 475 665 460 726 q 490 513 490 603 l 490 290 q 443 62 490 136 q 276 -12 396 -12 q 110 62 157 -12 q 63 290 63 136 l 63 513 q 110 741 63 667 q 276 815 157 815 q 357 804 319 815 q 399 832 386 810 q 411 896 411 854 l 490 896 m 389 518 q 382 640 389 594 q 351 713 375 686 q 276 739 326 739 q 202 713 226 739 q 171 641 178 686 q 164 518 164 596 l 164 285 q 171 162 164 207 q 202 90 178 117 q 276 64 226 64 q 351 90 326 64 q 382 163 375 117 q 389 285 389 208 l 389 518 m 363 961 q 319 971 339 961 q 272 999 300 981 q 234 1021 249 1014 q 204 1028 219 1028 q 160 972 160 1028 l 97 972 q 119 1056 97 1018 q 193 1094 140 1094 q 238 1085 217 1094 q 283 1058 258 1076 q 322 1036 307 1043 q 351 1029 336 1029 q 386 1043 375 1029 q 397 1089 397 1057 l 458 1089 q 438 999 458 1038 q 363 961 418 961 z "},"ő":{"ha":553,"x_min":63,"x_max":517,"o":"m 276 -12 q 110 62 157 -12 q 63 290 63 136 l 63 513 q 110 741 63 667 q 276 815 157 815 q 443 741 396 815 q 490 513 490 667 l 490 290 q 443 62 490 136 q 276 -12 396 -12 m 276 64 q 351 90 326 64 q 382 163 375 117 q 389 285 389 208 l 389 518 q 382 640 389 594 q 351 713 375 686 q 276 739 326 739 q 202 713 226 739 q 171 641 178 686 q 164 518 164 596 l 164 285 q 171 162 164 207 q 202 90 178 117 q 276 64 226 64 m 242 1135 l 333 1135 l 242 913 l 188 913 l 242 1135 m 407 1135 l 517 1135 l 386 913 l 331 913 l 407 1135 z "},"ȏ":{"ha":553,"x_min":63,"x_max":490,"o":"m 276 -12 q 110 62 157 -12 q 63 290 63 136 l 63 513 q 110 741 63 667 q 276 815 157 815 q 443 741 396 815 q 490 513 490 667 l 490 290 q 443 62 490 136 q 276 -12 396 -12 m 276 64 q 351 90 326 64 q 382 163 375 117 q 389 285 389 208 l 389 518 q 382 640 389 594 q 351 713 375 686 q 276 739 326 739 q 202 713 226 739 q 171 641 178 686 q 164 518 164 596 l 164 285 q 171 162 164 207 q 202 90 178 117 q 276 64 226 64 m 110 951 q 154 1080 113 1035 q 278 1125 196 1125 q 402 1080 361 1125 q 446 951 443 1035 l 381 951 q 353 1037 379 1011 q 278 1063 326 1063 q 203 1037 229 1063 q 175 951 176 1011 l 110 951 z "},"ō":{"ha":553,"x_min":63,"x_max":490,"o":"m 276 -12 q 110 62 157 -12 q 63 290 63 136 l 63 513 q 110 741 63 667 q 276 815 157 815 q 443 741 396 815 q 490 513 490 667 l 490 290 q 443 62 490 136 q 276 -12 396 -12 m 276 64 q 351 90 326 64 q 382 163 375 117 q 389 285 389 208 l 389 518 q 382 640 389 594 q 351 713 375 686 q 276 739 326 739 q 202 713 226 739 q 171 641 178 686 q 164 518 164 596 l 164 285 q 171 162 164 207 q 202 90 178 117 q 276 64 226 64 m 153 1033 l 403 1033 l 403 964 l 153 964 l 153 1033 z "},"ǫ":{"ha":553,"x_min":63,"x_max":490,"o":"m 276 815 q 443 741 396 815 q 490 513 490 667 l 490 290 q 460 91 490 163 q 353 -3 429 19 q 257 -165 257 -96 q 287 -219 257 -203 q 363 -236 317 -236 q 394 -233 375 -236 l 379 -287 q 339 -290 357 -290 q 222 -263 265 -290 q 179 -176 179 -236 q 207 -86 179 -131 q 278 -12 235 -42 l 276 -12 q 110 62 157 -12 q 63 290 63 136 l 63 513 q 110 741 63 667 q 276 815 157 815 m 389 518 q 382 640 389 594 q 351 713 375 686 q 276 739 326 739 q 202 713 226 739 q 171 641 178 686 q 164 518 164 596 l 164 285 q 171 162 164 207 q 202 90 178 117 q 276 64 226 64 q 351 90 326 64 q 382 163 375 117 q 389 285 389 208 l 389 518 z "},"ø":{"ha":553,"x_min":63,"x_max":490,"o":"m 433 754 q 490 513 490 683 l 490 290 q 443 62 490 136 q 276 -12 396 -12 q 161 13 207 -12 l 118 -106 l 83 -94 l 131 36 q 78 135 94 72 q 63 290 63 199 l 63 513 q 110 741 63 667 q 276 815 157 815 q 403 782 356 815 l 444 899 l 482 885 l 433 754 m 164 285 q 172 151 164 194 l 368 688 q 276 739 342 739 q 202 713 226 739 q 171 641 178 686 q 164 518 164 596 l 164 285 m 389 518 q 385 619 389 576 l 193 100 q 276 64 218 64 q 351 90 326 64 q 382 163 375 117 q 389 285 389 208 l 389 518 z "},"ǿ":{"ha":553,"x_min":63,"x_max":490,"o":"m 433 754 q 490 513 490 683 l 490 290 q 443 62 490 136 q 276 -12 396 -12 q 161 13 207 -12 l 118 -106 l 83 -94 l 131 36 q 78 135 94 72 q 63 290 63 199 l 63 513 q 110 741 63 667 q 276 815 157 815 q 403 782 356 815 l 444 899 l 482 885 l 433 754 m 164 285 q 172 151 164 194 l 368 688 q 276 739 342 739 q 202 713 226 739 q 171 641 178 686 q 164 518 164 596 l 164 285 m 389 518 q 385 619 389 576 l 193 100 q 276 64 218 64 q 351 90 326 64 q 382 163 375 117 q 389 285 389 208 l 389 518 m 339 1142 l 440 1142 l 304 869 l 251 869 l 339 1142 z "},"õ":{"ha":553,"x_min":63,"x_max":490,"o":"m 276 -12 q 110 62 157 -12 q 63 290 63 136 l 63 513 q 110 741 63 667 q 276 815 157 815 q 443 741 396 815 q 490 513 490 667 l 490 290 q 443 62 490 136 q 276 -12 396 -12 m 276 64 q 351 90 326 64 q 382 163 375 117 q 389 285 389 208 l 389 518 q 382 640 389 594 q 351 713 375 686 q 276 739 326 739 q 202 713 226 739 q 171 641 178 686 q 164 518 164 596 l 164 285 q 171 162 164 207 q 202 90 178 117 q 276 64 226 64 m 363 961 q 319 971 339 961 q 272 999 300 981 q 234 1021 249 1014 q 204 1028 219 1028 q 160 972 160 1028 l 97 972 q 119 1056 97 1018 q 193 1094 140 1094 q 238 1085 217 1094 q 283 1058 258 1076 q 322 1036 307 1043 q 351 1029 336 1029 q 386 1043 375 1029 q 397 1089 397 1057 l 458 1089 q 438 999 458 1038 q 363 961 418 961 z "},"ȭ":{"ha":553,"x_min":63,"x_max":490,"o":"m 276 -12 q 110 62 157 -12 q 63 290 63 136 l 63 513 q 110 741 63 667 q 276 815 157 815 q 443 741 396 815 q 490 513 490 667 l 490 290 q 443 62 490 136 q 276 -12 396 -12 m 276 64 q 351 90 326 64 q 382 163 375 117 q 389 285 389 208 l 389 518 q 382 640 389 594 q 351 713 375 686 q 276 739 326 739 q 202 713 226 739 q 171 641 178 686 q 164 518 164 596 l 164 285 q 171 162 164 207 q 202 90 178 117 q 276 64 226 64 m 363 961 q 319 971 339 961 q 272 999 300 981 q 234 1021 249 1014 q 204 1028 219 1028 q 160 972 160 1028 l 97 972 q 119 1056 97 1018 q 193 1094 140 1094 q 238 1085 217 1094 q 283 1058 258 1076 q 322 1036 307 1043 q 351 1029 336 1029 q 386 1043 375 1029 q 397 1089 397 1057 l 458 1089 q 438 999 458 1038 q 363 961 418 961 m 153 1361 l 403 1361 l 403 1292 l 153 1292 l 153 1361 z "},"œ":{"ha":901,"x_min":74,"x_max":831,"o":"m 288 -12 q 121 61 168 -12 q 74 288 74 135 l 74 515 q 120 741 74 667 q 285 815 167 815 q 392 786 350 815 q 453 703 435 757 q 628 815 492 815 q 750 781 706 815 q 813 676 794 747 q 831 489 831 606 l 829 415 l 503 415 l 503 326 q 528 133 503 194 q 625 71 554 71 q 701 101 674 71 q 729 215 729 131 l 729 274 l 831 274 l 831 217 q 782 46 831 104 q 625 -12 733 -12 q 453 106 492 -12 q 288 -12 418 -12 m 288 71 q 363 97 338 71 q 394 168 388 124 q 401 288 401 213 l 401 515 q 394 636 401 592 q 363 707 388 681 q 288 733 338 733 q 213 707 238 733 q 182 636 189 681 q 175 515 175 592 l 175 288 q 182 167 175 211 q 213 97 189 124 q 288 71 238 71 m 729 469 l 729 517 q 708 679 729 625 q 618 733 688 733 q 528 683 554 733 q 503 521 503 632 l 503 469 l 729 469 z "},"p":{"ha":579,"x_min":78,"x_max":515,"o":"m 78 803 l 179 803 l 179 736 q 333 815 242 815 q 477 728 439 815 q 515 496 515 642 l 515 326 q 472 74 515 161 q 322 -12 429 -12 q 179 64 247 -12 l 179 -264 l 78 -264 l 78 803 m 307 68 q 392 128 371 68 q 414 324 414 188 l 414 496 q 392 681 414 625 q 304 736 371 736 q 179 674 242 736 l 179 126 q 307 68 235 68 z "},"ṗ":{"ha":579,"x_min":78,"x_max":515,"o":"m 78 803 l 179 803 l 179 736 q 333 815 242 815 q 477 728 439 815 q 515 496 515 642 l 515 326 q 472 74 515 161 q 322 -12 429 -12 q 179 64 247 -12 l 179 -264 l 78 -264 l 78 803 m 307 68 q 392 128 371 68 q 414 324 414 188 l 414 496 q 392 681 414 625 q 304 736 371 736 q 179 674 242 736 l 179 126 q 307 68 235 68 m 236 1089 l 344 1089 l 344 936 l 236 936 l 236 1089 z "},"þ":{"ha":578,"x_min":79,"x_max":517,"o":"m 79 1125 l 181 1125 l 181 736 q 335 815 243 815 q 478 728 440 815 q 517 496 517 640 l 517 326 q 473 74 517 161 q 324 -12 429 -12 q 181 64 246 -12 l 181 -264 l 79 -264 l 79 1125 m 307 68 q 392 128 371 68 q 414 324 414 188 l 414 496 q 406 633 414 582 q 375 710 399 683 q 306 736 351 736 q 181 674 243 736 l 181 126 q 237 84 204 100 q 307 68 269 68 z "},"q":{"ha":575,"x_min":65,"x_max":497,"o":"m 396 57 q 258 -12 335 -12 q 110 65 156 -12 q 65 324 65 143 l 65 472 q 106 730 65 644 q 256 815 147 815 q 334 795 299 815 q 396 744 369 775 l 396 803 l 497 803 l 497 -264 l 396 -264 l 396 57 m 279 68 q 396 122 339 68 l 396 678 q 276 736 335 736 q 190 682 213 736 q 167 506 167 628 l 167 315 q 190 126 167 185 q 279 68 213 68 z "},"r":{"ha":413,"x_min":85,"x_max":390,"o":"m 85 803 l 188 803 l 188 693 q 273 782 224 753 q 372 811 322 811 q 390 810 385 811 l 390 701 q 340 710 365 710 q 188 617 244 710 l 188 0 l 85 0 l 85 803 z "},"ŕ":{"ha":413,"x_min":85,"x_max":399,"o":"m 85 803 l 188 803 l 188 693 q 273 782 224 753 q 372 811 322 811 q 390 810 385 811 l 390 701 q 340 710 365 710 q 188 617 244 710 l 188 0 l 85 0 l 85 803 m 297 1142 l 399 1142 l 263 869 l 210 869 l 297 1142 z "},"ř":{"ha":413,"x_min":72,"x_max":400,"o":"m 85 803 l 188 803 l 188 693 q 273 782 224 753 q 372 811 322 811 q 390 810 385 811 l 390 701 q 340 710 365 710 q 188 617 244 710 l 188 0 l 85 0 l 85 803 m 72 1125 l 154 1125 l 236 958 l 318 1125 l 400 1125 l 281 893 l 192 893 l 72 1125 z "},"ŗ":{"ha":413,"x_min":78,"x_max":390,"o":"m 85 803 l 188 803 l 188 693 q 273 782 224 753 q 372 811 322 811 q 390 810 385 811 l 390 701 q 340 710 365 710 q 188 617 244 710 l 188 0 l 85 0 l 85 803 m 78 -312 q 143 -207 143 -285 l 83 -207 l 83 -85 l 197 -85 l 196 -193 q 176 -304 196 -265 q 103 -358 157 -343 l 78 -312 z "},"ȑ":{"ha":413,"x_min":-1,"x_max":390,"o":"m 85 803 l 188 803 l 188 693 q 273 782 224 753 q 372 811 322 811 q 390 810 385 811 l 390 701 q 340 710 365 710 q 188 617 244 710 l 188 0 l 85 0 l 85 803 m -1 1125 l 107 1125 l 185 908 l 132 908 l -1 1125 m 188 1125 l 278 1125 l 335 908 l 283 908 l 188 1125 z "},"ȓ":{"ha":413,"x_min":68,"x_max":404,"o":"m 85 803 l 188 803 l 188 693 q 273 782 224 753 q 372 811 322 811 q 390 810 385 811 l 390 701 q 340 710 365 710 q 188 617 244 710 l 188 0 l 85 0 l 85 803 m 68 951 q 113 1080 71 1035 q 236 1125 154 1125 q 360 1080 319 1125 q 404 951 401 1035 l 339 951 q 311 1037 338 1011 q 236 1063 285 1063 q 161 1037 188 1063 q 133 951 135 1011 l 68 951 z "},"s":{"ha":504,"x_min":43,"x_max":467,"o":"m 261 -12 q 109 49 167 -12 q 43 215 51 110 l 128 242 q 170 107 136 150 q 265 64 204 64 q 348 94 318 64 q 378 178 378 125 q 281 339 378 256 l 171 433 q 88 525 115 479 q 61 631 61 571 q 113 767 61 718 q 253 815 164 815 q 390 758 342 815 q 443 604 438 701 l 371 581 q 257 739 363 739 q 181 713 210 739 q 154 642 153 688 q 168 576 154 604 q 219 515 182 547 l 333 414 q 432 306 397 357 q 467 181 467 256 q 411 38 467 89 q 261 -12 356 -12 z "},"ś":{"ha":504,"x_min":43,"x_max":467,"o":"m 261 -12 q 109 49 167 -12 q 43 215 51 110 l 128 242 q 170 107 136 150 q 265 64 204 64 q 348 94 318 64 q 378 178 378 125 q 281 339 378 256 l 171 433 q 88 525 115 479 q 61 631 61 571 q 113 767 61 718 q 253 815 164 815 q 390 758 342 815 q 443 604 438 701 l 371 581 q 257 739 363 739 q 181 713 210 739 q 154 642 153 688 q 168 576 154 604 q 219 515 182 547 l 333 414 q 432 306 397 357 q 467 181 467 256 q 411 38 467 89 q 261 -12 356 -12 m 313 1142 l 414 1142 l 278 869 l 225 869 l 313 1142 z "},"š":{"ha":504,"x_min":43,"x_max":467,"o":"m 261 -12 q 109 49 167 -12 q 43 215 51 110 l 128 242 q 170 107 136 150 q 265 64 204 64 q 348 94 318 64 q 378 178 378 125 q 281 339 378 256 l 171 433 q 88 525 115 479 q 61 631 61 571 q 113 767 61 718 q 253 815 164 815 q 390 758 342 815 q 443 604 438 701 l 371 581 q 257 739 363 739 q 181 713 210 739 q 154 642 153 688 q 168 576 154 604 q 219 515 182 547 l 333 414 q 432 306 397 357 q 467 181 467 256 q 411 38 467 89 q 261 -12 356 -12 m 88 1125 l 169 1125 l 251 958 l 333 1125 l 415 1125 l 296 893 l 207 893 l 88 1125 z "},"ş":{"ha":504,"x_min":43,"x_max":467,"o":"m 467 181 q 416 43 467 93 q 278 -12 365 -7 l 278 -69 q 372 -99 339 -71 q 406 -174 406 -126 q 367 -256 406 -228 q 257 -283 328 -283 q 192 -276 226 -283 l 192 -224 q 236 -229 213 -229 q 328 -172 328 -229 q 224 -100 328 -112 l 224 -10 q 97 61 144 1 q 43 215 50 121 l 128 242 q 170 107 136 150 q 265 64 204 64 q 348 94 318 64 q 378 178 378 125 q 281 339 378 256 l 171 433 q 88 525 115 479 q 61 631 61 571 q 113 767 61 718 q 253 815 164 815 q 390 758 342 815 q 443 604 438 701 l 371 581 q 257 739 363 739 q 181 713 210 739 q 154 642 153 688 q 168 576 154 604 q 219 515 182 547 l 333 414 q 432 306 397 357 q 467 181 467 256 z "},"ŝ":{"ha":504,"x_min":43,"x_max":467,"o":"m 261 -12 q 109 49 167 -12 q 43 215 51 110 l 128 242 q 170 107 136 150 q 265 64 204 64 q 348 94 318 64 q 378 178 378 125 q 281 339 378 256 l 171 433 q 88 525 115 479 q 61 631 61 571 q 113 767 61 718 q 253 815 164 815 q 390 758 342 815 q 443 604 438 701 l 371 581 q 257 739 363 739 q 181 713 210 739 q 154 642 153 688 q 168 576 154 604 q 219 515 182 547 l 333 414 q 432 306 397 357 q 467 181 467 256 q 411 38 467 89 q 261 -12 356 -12 m 194 1125 l 308 1125 l 428 878 l 353 878 l 251 1074 l 150 878 l 75 878 l 194 1125 z "},"ș":{"ha":504,"x_min":43,"x_max":467,"o":"m 261 -12 q 109 49 167 -12 q 43 215 51 110 l 128 242 q 170 107 136 150 q 265 64 204 64 q 348 94 318 64 q 378 178 378 125 q 281 339 378 256 l 171 433 q 88 525 115 479 q 61 631 61 571 q 113 767 61 718 q 253 815 164 815 q 390 758 342 815 q 443 604 438 701 l 371 581 q 257 739 363 739 q 181 713 210 739 q 154 642 153 688 q 168 576 154 604 q 219 515 182 547 l 333 414 q 432 306 397 357 q 467 181 467 256 q 411 38 467 89 q 261 -12 356 -12 m 192 -312 q 257 -207 257 -285 l 197 -207 l 197 -85 l 311 -85 l 310 -193 q 290 -304 310 -265 q 217 -358 271 -343 l 192 -312 z "},"ṡ":{"ha":504,"x_min":43,"x_max":467,"o":"m 261 -12 q 109 49 167 -12 q 43 215 51 110 l 128 242 q 170 107 136 150 q 265 64 204 64 q 348 94 318 64 q 378 178 378 125 q 281 339 378 256 l 171 433 q 88 525 115 479 q 61 631 61 571 q 113 767 61 718 q 253 815 164 815 q 390 758 342 815 q 443 604 438 701 l 371 581 q 257 739 363 739 q 181 713 210 739 q 154 642 153 688 q 168 576 154 604 q 219 515 182 547 l 333 414 q 432 306 397 357 q 467 181 467 256 q 411 38 467 89 q 261 -12 356 -12 m 197 1089 l 306 1089 l 306 936 l 197 936 l 197 1089 z "},"ß":{"ha":689,"x_min":86,"x_max":619,"o":"m 264 71 q 465 140 411 71 q 519 326 519 210 q 472 501 519 433 q 317 568 424 568 l 319 654 q 433 714 399 654 q 468 868 468 774 q 435 1015 468 965 q 326 1064 403 1064 q 220 1018 253 1064 q 188 850 188 972 l 188 0 l 86 0 l 86 849 q 145 1076 86 1007 q 325 1146 204 1146 q 504 1076 442 1146 q 567 868 567 1006 q 432 619 567 671 q 574 517 528 596 q 619 329 619 439 q 264 -14 619 -14 l 264 71 z "},"t":{"ha":389,"x_min":25,"x_max":358,"o":"m 268 -10 q 154 35 185 -10 q 124 167 124 81 l 124 736 l 25 736 l 25 803 l 124 803 l 124 1051 l 225 1051 l 225 803 l 358 803 l 358 736 l 225 736 l 225 176 q 239 92 225 115 q 296 69 253 69 q 354 76 322 69 l 354 -1 q 268 -10 311 -10 z "},"ŧ":{"ha":339,"x_min":25,"x_max":358,"o":"m 225 736 l 225 549 l 353 549 l 353 492 l 225 492 l 225 176 q 239 92 225 115 q 296 69 253 69 q 354 76 322 69 l 354 -1 q 268 -10 311 -10 q 154 35 185 -10 q 124 167 124 81 l 124 492 l 39 492 l 39 549 l 124 549 l 124 736 l 25 736 l 25 803 l 124 803 l 124 1051 l 225 1051 l 225 803 l 358 803 l 358 736 l 225 736 z "},"ť":{"ha":381,"x_min":25,"x_max":394,"o":"m 268 -10 q 154 35 185 -10 q 124 167 124 81 l 124 736 l 25 736 l 25 803 l 124 803 l 124 1051 l 225 1051 l 225 803 l 358 803 l 358 736 l 225 736 l 225 176 q 239 92 225 115 q 296 69 253 69 q 354 76 322 69 l 354 -1 q 268 -10 311 -10 m 276 903 q 328 951 313 924 q 343 1019 343 978 l 282 1019 l 282 1171 l 394 1171 l 394 1031 q 372 924 394 963 q 297 858 350 885 l 276 903 z "},"ţ":{"ha":389,"x_min":25,"x_max":422,"o":"m 294 -69 q 389 -99 356 -71 q 422 -174 422 -126 q 383 -256 422 -228 q 274 -283 344 -283 q 208 -276 243 -283 l 208 -224 q 253 -229 229 -229 q 344 -172 344 -229 q 240 -100 344 -112 l 240 -8 q 149 44 174 0 q 124 167 124 88 l 124 736 l 25 736 l 25 803 l 124 803 l 124 1051 l 225 1051 l 225 803 l 358 803 l 358 736 l 225 736 l 225 176 q 239 92 225 115 q 296 69 253 69 q 354 76 322 69 l 354 -1 q 294 -8 322 -8 l 294 -69 z "},"ț":{"ha":389,"x_min":25,"x_max":358,"o":"m 268 -10 q 154 35 185 -10 q 124 167 124 81 l 124 736 l 25 736 l 25 803 l 124 803 l 124 1051 l 225 1051 l 225 803 l 358 803 l 358 736 l 225 736 l 225 176 q 239 92 225 115 q 296 69 253 69 q 354 76 322 69 l 354 -1 q 268 -10 311 -10 m 208 -312 q 274 -207 274 -285 l 214 -207 l 214 -85 l 328 -85 l 326 -193 q 307 -304 326 -265 q 233 -358 288 -343 l 208 -312 z "},"ṫ":{"ha":389,"x_min":25,"x_max":358,"o":"m 268 -10 q 154 35 185 -10 q 124 167 124 81 l 124 736 l 25 736 l 25 803 l 124 803 l 124 1051 l 225 1051 l 225 803 l 358 803 l 358 736 l 225 736 l 225 176 q 239 92 225 115 q 296 69 253 69 q 354 76 322 69 l 354 -1 q 268 -10 311 -10 m 121 1338 l 229 1338 l 229 1185 l 121 1185 l 121 1338 z "},"u":{"ha":572,"x_min":71,"x_max":493,"o":"m 196 -12 q 103 32 135 -12 q 71 158 71 76 l 71 803 l 174 803 l 174 181 q 192 94 174 119 q 250 68 211 68 q 322 90 285 68 q 392 147 358 111 l 392 803 l 493 803 l 493 0 l 392 0 l 392 89 q 301 15 351 42 q 196 -12 251 -12 z "},"ú":{"ha":572,"x_min":71,"x_max":493,"o":"m 196 -12 q 103 32 135 -12 q 71 158 71 76 l 71 803 l 174 803 l 174 181 q 192 94 174 119 q 250 68 211 68 q 322 90 285 68 q 392 147 358 111 l 392 803 l 493 803 l 493 0 l 392 0 l 392 89 q 301 15 351 42 q 196 -12 251 -12 m 347 1142 l 449 1142 l 313 869 l 260 869 l 347 1142 z "},"ŭ":{"ha":572,"x_min":71,"x_max":493,"o":"m 196 -12 q 103 32 135 -12 q 71 158 71 76 l 71 803 l 174 803 l 174 181 q 192 94 174 119 q 250 68 211 68 q 322 90 285 68 q 392 147 358 111 l 392 803 l 493 803 l 493 0 l 392 0 l 392 89 q 301 15 351 42 q 196 -12 251 -12 m 285 889 q 163 932 204 889 q 118 1056 121 975 l 183 1056 q 285 950 185 950 q 389 1056 383 950 l 453 1056 q 408 933 451 976 q 285 889 365 889 z "},"û":{"ha":572,"x_min":71,"x_max":493,"o":"m 196 -12 q 103 32 135 -12 q 71 158 71 76 l 71 803 l 174 803 l 174 181 q 192 94 174 119 q 250 68 211 68 q 322 90 285 68 q 392 147 358 111 l 392 803 l 493 803 l 493 0 l 392 0 l 392 89 q 301 15 351 42 q 196 -12 251 -12 m 229 1125 l 343 1125 l 463 878 l 388 878 l 286 1074 l 185 878 l 110 878 l 229 1125 z "},"ȕ":{"ha":572,"x_min":49,"x_max":493,"o":"m 196 -12 q 103 32 135 -12 q 71 158 71 76 l 71 803 l 174 803 l 174 181 q 192 94 174 119 q 250 68 211 68 q 322 90 285 68 q 392 147 358 111 l 392 803 l 493 803 l 493 0 l 392 0 l 392 89 q 301 15 351 42 q 196 -12 251 -12 m 49 1125 l 157 1125 l 235 908 l 182 908 l 49 1125 m 238 1125 l 328 1125 l 385 908 l 333 908 l 238 1125 z "},"ü":{"ha":572,"x_min":71,"x_max":493,"o":"m 196 -12 q 103 32 135 -12 q 71 158 71 76 l 71 803 l 174 803 l 174 181 q 192 94 174 119 q 250 68 211 68 q 322 90 285 68 q 392 147 358 111 l 392 803 l 493 803 l 493 0 l 392 0 l 392 89 q 301 15 351 42 q 196 -12 251 -12 m 121 1125 l 225 1125 l 225 1001 l 121 1001 l 121 1125 m 350 1125 l 454 1125 l 454 1001 l 350 1001 l 350 1125 z "},"ụ":{"ha":572,"x_min":71,"x_max":493,"o":"m 196 -12 q 103 32 135 -12 q 71 158 71 76 l 71 803 l 174 803 l 174 181 q 192 94 174 119 q 250 68 211 68 q 322 90 285 68 q 392 147 358 111 l 392 803 l 493 803 l 493 0 l 392 0 l 392 89 q 301 15 351 42 q 196 -12 251 -12 m 232 -85 l 340 -85 l 340 -208 l 232 -208 l 232 -85 z "},"ù":{"ha":572,"x_min":71,"x_max":493,"o":"m 196 -12 q 103 32 135 -12 q 71 158 71 76 l 71 803 l 174 803 l 174 181 q 192 94 174 119 q 250 68 211 68 q 322 90 285 68 q 392 147 358 111 l 392 803 l 493 803 l 493 0 l 392 0 l 392 89 q 301 15 351 42 q 196 -12 251 -12 m 132 1142 l 235 1142 l 311 869 l 260 869 l 132 1142 z "},"ủ":{"ha":572,"x_min":71,"x_max":493,"o":"m 196 -12 q 103 32 135 -12 q 71 158 71 76 l 71 803 l 174 803 l 174 181 q 192 94 174 119 q 250 68 211 68 q 322 90 285 68 q 392 147 358 111 l 392 803 l 493 803 l 493 0 l 392 0 l 392 89 q 301 15 351 42 q 196 -12 251 -12 m 249 944 q 306 981 288 964 q 325 1022 325 999 q 253 1072 325 1072 q 188 1064 222 1072 l 188 1117 q 276 1126 231 1126 q 369 1102 336 1126 q 401 1029 401 1078 q 372 957 401 985 q 286 904 342 929 l 249 944 z "},"ư":{"ha":572,"x_min":71,"x_max":572,"o":"m 572 896 q 493 757 572 788 l 493 0 l 392 0 l 392 89 q 301 15 351 42 q 196 -12 251 -12 q 103 32 135 -12 q 71 158 71 76 l 71 803 l 174 803 l 174 181 q 192 94 174 119 q 250 68 211 68 q 322 90 285 68 q 392 147 358 111 l 392 803 l 418 803 q 476 825 458 803 q 493 896 493 847 l 572 896 z "},"ứ":{"ha":572,"x_min":71,"x_max":572,"o":"m 572 896 q 493 757 572 788 l 493 0 l 392 0 l 392 89 q 301 15 351 42 q 196 -12 251 -12 q 103 32 135 -12 q 71 158 71 76 l 71 803 l 174 803 l 174 181 q 192 94 174 119 q 250 68 211 68 q 322 90 285 68 q 392 147 358 111 l 392 803 l 418 803 q 476 825 458 803 q 493 896 493 847 l 572 896 m 343 1142 l 444 1142 l 308 869 l 256 869 l 343 1142 z "},"ự":{"ha":572,"x_min":71,"x_max":572,"o":"m 572 896 q 493 757 572 788 l 493 0 l 392 0 l 392 89 q 301 15 351 42 q 196 -12 251 -12 q 103 32 135 -12 q 71 158 71 76 l 71 803 l 174 803 l 174 181 q 192 94 174 119 q 250 68 211 68 q 322 90 285 68 q 392 147 358 111 l 392 803 l 418 803 q 476 825 458 803 q 493 896 493 847 l 572 896 m 225 -85 l 333 -85 l 333 -208 l 225 -208 l 225 -85 z "},"ừ":{"ha":572,"x_min":71,"x_max":572,"o":"m 572 896 q 493 757 572 788 l 493 0 l 392 0 l 392 89 q 301 15 351 42 q 196 -12 251 -12 q 103 32 135 -12 q 71 158 71 76 l 71 803 l 174 803 l 174 181 q 192 94 174 119 q 250 68 211 68 q 322 90 285 68 q 392 147 358 111 l 392 803 l 418 803 q 476 825 458 803 q 493 896 493 847 l 572 896 m 128 1142 l 231 1142 l 307 869 l 256 869 l 128 1142 z "},"ử":{"ha":572,"x_min":71,"x_max":572,"o":"m 572 896 q 493 757 572 788 l 493 0 l 392 0 l 392 89 q 301 15 351 42 q 196 -12 251 -12 q 103 32 135 -12 q 71 158 71 76 l 71 803 l 174 803 l 174 181 q 192 94 174 119 q 250 68 211 68 q 322 90 285 68 q 392 147 358 111 l 392 803 l 418 803 q 476 825 458 803 q 493 896 493 847 l 572 896 m 244 944 q 302 981 283 964 q 321 1022 321 999 q 249 1072 321 1072 q 183 1064 218 1072 l 183 1117 q 272 1126 226 1126 q 365 1102 332 1126 q 397 1029 397 1078 q 367 957 397 985 q 282 904 338 929 l 244 944 z "},"ữ":{"ha":572,"x_min":71,"x_max":572,"o":"m 572 896 q 493 757 572 788 l 493 0 l 392 0 l 392 89 q 301 15 351 42 q 196 -12 251 -12 q 103 32 135 -12 q 71 158 71 76 l 71 803 l 174 803 l 174 181 q 192 94 174 119 q 250 68 211 68 q 322 90 285 68 q 392 147 358 111 l 392 803 l 418 803 q 476 825 458 803 q 493 896 493 847 l 572 896 m 367 961 q 324 971 343 961 q 276 999 304 981 q 238 1021 253 1014 q 208 1028 224 1028 q 164 972 164 1028 l 101 972 q 123 1056 101 1018 q 197 1094 144 1094 q 242 1085 221 1094 q 288 1058 263 1076 q 326 1036 311 1043 q 356 1029 340 1029 q 390 1043 379 1029 q 401 1089 401 1057 l 463 1089 q 442 999 463 1038 q 367 961 422 961 z "},"ű":{"ha":572,"x_min":71,"x_max":525,"o":"m 196 -12 q 103 32 135 -12 q 71 158 71 76 l 71 803 l 174 803 l 174 181 q 192 94 174 119 q 250 68 211 68 q 322 90 285 68 q 392 147 358 111 l 392 803 l 493 803 l 493 0 l 392 0 l 392 89 q 301 15 351 42 q 196 -12 251 -12 m 250 1135 l 342 1135 l 250 913 l 196 913 l 250 1135 m 415 1135 l 525 1135 l 394 913 l 339 913 l 415 1135 z "},"ȗ":{"ha":572,"x_min":71,"x_max":493,"o":"m 196 -12 q 103 32 135 -12 q 71 158 71 76 l 71 803 l 174 803 l 174 181 q 192 94 174 119 q 250 68 211 68 q 322 90 285 68 q 392 147 358 111 l 392 803 l 493 803 l 493 0 l 392 0 l 392 89 q 301 15 351 42 q 196 -12 251 -12 m 118 951 q 163 1080 121 1035 q 286 1125 204 1125 q 410 1080 369 1125 q 454 951 451 1035 l 389 951 q 361 1037 388 1011 q 286 1063 335 1063 q 211 1037 238 1063 q 183 951 185 1011 l 118 951 z "},"ū":{"ha":572,"x_min":71,"x_max":493,"o":"m 196 -12 q 103 32 135 -12 q 71 158 71 76 l 71 803 l 174 803 l 174 181 q 192 94 174 119 q 250 68 211 68 q 322 90 285 68 q 392 147 358 111 l 392 803 l 493 803 l 493 0 l 392 0 l 392 89 q 301 15 351 42 q 196 -12 251 -12 m 161 1033 l 411 1033 l 411 964 l 161 964 l 161 1033 z "},"ų":{"ha":572,"x_min":71,"x_max":506,"o":"m 474 -240 q 506 -237 486 -240 l 490 -292 q 450 -294 468 -294 q 333 -267 376 -294 q 290 -181 290 -240 q 327 -77 290 -126 q 417 0 364 -28 l 392 0 l 392 89 q 301 15 351 42 q 196 -12 251 -12 q 103 32 135 -12 q 71 158 71 76 l 71 803 l 174 803 l 174 181 q 192 94 174 119 q 250 68 211 68 q 322 90 285 68 q 392 147 358 111 l 392 803 l 493 803 l 493 0 l 471 0 q 368 -169 368 -97 q 398 -224 368 -207 q 474 -240 428 -240 z "},"ů":{"ha":572,"x_min":71,"x_max":493,"o":"m 196 -12 q 103 32 135 -12 q 71 158 71 76 l 71 803 l 174 803 l 174 181 q 192 94 174 119 q 250 68 211 68 q 322 90 285 68 q 392 147 358 111 l 392 803 l 493 803 l 493 0 l 392 0 l 392 89 q 301 15 351 42 q 196 -12 251 -12 m 286 874 q 191 908 229 874 q 153 1006 153 943 q 191 1103 153 1068 q 286 1138 229 1138 q 381 1103 343 1138 q 419 1006 419 1068 q 381 908 419 943 q 286 874 343 874 m 286 929 q 341 949 319 929 q 363 1006 363 968 q 341 1064 363 1044 q 286 1083 319 1083 q 231 1064 253 1083 q 210 1006 210 1044 q 231 949 210 968 q 286 929 253 929 z "},"ũ":{"ha":572,"x_min":71,"x_max":493,"o":"m 196 -12 q 103 32 135 -12 q 71 158 71 76 l 71 803 l 174 803 l 174 181 q 192 94 174 119 q 250 68 211 68 q 322 90 285 68 q 392 147 358 111 l 392 803 l 493 803 l 493 0 l 392 0 l 392 89 q 301 15 351 42 q 196 -12 251 -12 m 371 961 q 328 971 347 961 q 281 999 308 981 q 242 1021 257 1014 q 213 1028 228 1028 q 168 972 168 1028 l 106 972 q 127 1056 106 1018 q 201 1094 149 1094 q 246 1085 225 1094 q 292 1058 267 1076 q 330 1036 315 1043 q 360 1029 344 1029 q 394 1043 383 1029 q 406 1089 406 1057 l 467 1089 q 447 999 467 1038 q 371 961 426 961 z "},"v":{"ha":511,"x_min":25,"x_max":486,"o":"m 25 803 l 128 803 l 258 117 l 388 803 l 486 803 l 318 0 l 199 0 l 25 803 z "},"w":{"ha":797,"x_min":43,"x_max":756,"o":"m 43 803 l 131 803 l 231 132 l 357 803 l 444 803 l 572 135 l 668 803 l 756 803 l 625 0 l 531 0 l 401 653 l 276 0 l 174 0 l 43 803 z "},"ẃ":{"ha":797,"x_min":43,"x_max":756,"o":"m 43 803 l 131 803 l 231 132 l 357 803 l 444 803 l 572 135 l 668 803 l 756 803 l 625 0 l 531 0 l 401 653 l 276 0 l 174 0 l 43 803 m 460 1142 l 561 1142 l 425 869 l 372 869 l 460 1142 z "},"ŵ":{"ha":797,"x_min":43,"x_max":756,"o":"m 43 803 l 131 803 l 231 132 l 357 803 l 444 803 l 572 135 l 668 803 l 756 803 l 625 0 l 531 0 l 401 653 l 276 0 l 174 0 l 43 803 m 342 1125 l 456 1125 l 575 878 l 500 878 l 399 1074 l 297 878 l 222 878 l 342 1125 z "},"ẅ":{"ha":797,"x_min":43,"x_max":756,"o":"m 43 803 l 131 803 l 231 132 l 357 803 l 444 803 l 572 135 l 668 803 l 756 803 l 625 0 l 531 0 l 401 653 l 276 0 l 174 0 l 43 803 m 233 1125 l 338 1125 l 338 1001 l 233 1001 l 233 1125 m 463 1125 l 567 1125 l 567 1001 l 463 1001 l 463 1125 z "},"ẁ":{"ha":797,"x_min":43,"x_max":756,"o":"m 43 803 l 131 803 l 231 132 l 357 803 l 444 803 l 572 135 l 668 803 l 756 803 l 625 0 l 531 0 l 401 653 l 276 0 l 174 0 l 43 803 m 244 1142 l 347 1142 l 424 869 l 372 869 l 244 1142 z "},"x":{"ha":528,"x_min":22,"x_max":507,"o":"m 213 419 l 32 803 l 132 803 l 269 508 l 401 803 l 504 803 l 317 408 l 507 0 l 410 0 l 260 315 l 119 0 l 22 0 l 213 419 z "},"y":{"ha":529,"x_min":28,"x_max":506,"o":"m 56 -121 q 184 -103 150 -121 q 218 -42 218 -85 q 217 -15 218 -25 q 200 65 214 7 l 193 96 q 133 349 168 201 q 68 626 99 496 q 28 803 28 800 l 129 803 l 268 119 l 403 803 l 506 803 l 311 -57 q 239 -167 293 -133 q 82 -200 185 -200 l 56 -200 l 56 -121 z "},"ý":{"ha":529,"x_min":28,"x_max":506,"o":"m 56 -121 q 184 -103 150 -121 q 218 -42 218 -85 q 217 -15 218 -25 q 200 65 214 7 l 193 96 q 133 349 168 201 q 68 626 99 496 q 28 803 28 800 l 129 803 l 268 119 l 403 803 l 506 803 l 311 -57 q 239 -167 293 -133 q 82 -200 185 -200 l 56 -200 l 56 -121 m 326 1142 l 428 1142 l 292 869 l 239 869 l 326 1142 z "},"ŷ":{"ha":529,"x_min":28,"x_max":506,"o":"m 56 -121 q 184 -103 150 -121 q 218 -42 218 -85 q 217 -15 218 -25 q 200 65 214 7 l 193 96 q 133 349 168 201 q 68 626 99 496 q 28 803 28 800 l 129 803 l 268 119 l 403 803 l 506 803 l 311 -57 q 239 -167 293 -133 q 82 -200 185 -200 l 56 -200 l 56 -121 m 208 1125 l 322 1125 l 442 878 l 367 878 l 265 1074 l 164 878 l 89 878 l 208 1125 z "},"ÿ":{"ha":529,"x_min":28,"x_max":506,"o":"m 56 -121 q 184 -103 150 -121 q 218 -42 218 -85 q 217 -15 218 -25 q 200 65 214 7 l 193 96 q 133 349 168 201 q 68 626 99 496 q 28 803 28 800 l 129 803 l 268 119 l 403 803 l 506 803 l 311 -57 q 239 -167 293 -133 q 82 -200 185 -200 l 56 -200 l 56 -121 m 100 1125 l 204 1125 l 204 1001 l 100 1001 l 100 1125 m 329 1125 l 433 1125 l 433 1001 l 329 1001 l 329 1125 z "},"ỵ":{"ha":529,"x_min":28,"x_max":506,"o":"m 56 -121 q 184 -103 150 -121 q 218 -42 218 -85 q 217 -15 218 -25 q 200 65 214 7 l 193 96 q 133 349 168 201 q 68 626 99 496 q 28 803 28 800 l 129 803 l 268 119 l 403 803 l 506 803 l 311 -57 q 239 -167 293 -133 q 82 -200 185 -200 l 56 -200 l 56 -121 m 346 -85 l 454 -85 l 454 -208 l 346 -208 l 346 -85 z "},"ỳ":{"ha":529,"x_min":28,"x_max":506,"o":"m 56 -121 q 184 -103 150 -121 q 218 -42 218 -85 q 217 -15 218 -25 q 200 65 214 7 l 193 96 q 133 349 168 201 q 68 626 99 496 q 28 803 28 800 l 129 803 l 268 119 l 403 803 l 506 803 l 311 -57 q 239 -167 293 -133 q 82 -200 185 -200 l 56 -200 l 56 -121 m 111 1142 l 214 1142 l 290 869 l 239 869 l 111 1142 z "},"ỷ":{"ha":529,"x_min":28,"x_max":506,"o":"m 56 -121 q 184 -103 150 -121 q 218 -42 218 -85 q 217 -15 218 -25 q 200 65 214 7 l 193 96 q 133 349 168 201 q 68 626 99 496 q 28 803 28 800 l 129 803 l 268 119 l 403 803 l 506 803 l 311 -57 q 239 -167 293 -133 q 82 -200 185 -200 l 56 -200 l 56 -121 m 228 944 q 285 981 267 964 q 304 1022 304 999 q 232 1072 304 1072 q 167 1064 201 1072 l 167 1117 q 256 1126 210 1126 q 348 1102 315 1126 q 381 1029 381 1078 q 351 957 381 985 q 265 904 321 929 l 228 944 z "},"ȳ":{"ha":529,"x_min":28,"x_max":506,"o":"m 56 -121 q 184 -103 150 -121 q 218 -42 218 -85 q 217 -15 218 -25 q 200 65 214 7 l 193 96 q 133 349 168 201 q 68 626 99 496 q 28 803 28 800 l 129 803 l 268 119 l 403 803 l 506 803 l 311 -57 q 239 -167 293 -133 q 82 -200 185 -200 l 56 -200 l 56 -121 m 140 1033 l 390 1033 l 390 964 l 140 964 l 140 1033 z "},"ỹ":{"ha":529,"x_min":28,"x_max":506,"o":"m 56 -121 q 184 -103 150 -121 q 218 -42 218 -85 q 217 -15 218 -25 q 200 65 214 7 l 193 96 q 133 349 168 201 q 68 626 99 496 q 28 803 28 800 l 129 803 l 268 119 l 403 803 l 506 803 l 311 -57 q 239 -167 293 -133 q 82 -200 185 -200 l 56 -200 l 56 -121 m 350 961 q 307 971 326 961 q 260 999 288 981 q 222 1021 236 1014 q 192 1028 207 1028 q 147 972 147 1028 l 85 972 q 106 1056 85 1018 q 181 1094 128 1094 q 225 1085 204 1094 q 271 1058 246 1076 q 309 1036 294 1043 q 339 1029 324 1029 q 374 1043 363 1029 q 385 1089 385 1057 l 446 1089 q 426 999 446 1038 q 350 961 406 961 z "},"z":{"ha":463,"x_min":44,"x_max":425,"o":"m 44 71 l 318 725 l 74 725 l 74 803 l 425 803 l 425 742 l 153 78 l 421 78 l 421 0 l 44 0 l 44 71 z "},"ź":{"ha":463,"x_min":44,"x_max":425,"o":"m 44 71 l 318 725 l 74 725 l 74 803 l 425 803 l 425 742 l 153 78 l 421 78 l 421 0 l 44 0 l 44 71 m 293 1142 l 394 1142 l 258 869 l 206 869 l 293 1142 z "},"ž":{"ha":463,"x_min":44,"x_max":425,"o":"m 44 71 l 318 725 l 74 725 l 74 803 l 425 803 l 425 742 l 153 78 l 421 78 l 421 0 l 44 0 l 44 71 m 68 1125 l 150 1125 l 232 958 l 314 1125 l 396 1125 l 276 893 l 188 893 l 68 1125 z "},"ż":{"ha":463,"x_min":44,"x_max":425,"o":"m 44 71 l 318 725 l 74 725 l 74 803 l 425 803 l 425 742 l 153 78 l 421 78 l 421 0 l 44 0 l 44 71 m 178 1089 l 286 1089 l 286 936 l 178 936 l 178 1089 z "},"ﬁ":{"ha":628,"x_min":25,"x_max":536,"o":"m 128 729 l 25 729 l 25 803 l 128 803 l 128 886 q 160 1039 128 989 q 283 1089 193 1089 q 357 1082 319 1089 l 357 1006 q 301 1011 321 1011 q 244 988 257 1011 q 231 896 231 964 l 231 803 l 535 803 l 535 0 l 433 0 l 433 729 l 231 729 l 231 0 l 128 0 l 128 729 m 442 1051 l 536 1051 l 536 914 l 442 914 l 442 1051 z "},"ﬂ":{"ha":654,"x_min":25,"x_max":567,"o":"m 128 729 l 25 729 l 25 803 l 128 803 l 128 886 q 142 998 128 951 q 206 1076 156 1044 q 356 1108 256 1108 q 567 1082 439 1108 l 567 0 l 464 0 l 464 1025 q 368 1031 414 1031 q 274 1013 304 1031 q 238 965 244 994 q 231 885 231 936 l 231 803 l 360 803 l 360 729 l 231 729 l 231 0 l 128 0 l 128 729 z "},"ª":{"ha":571,"x_min":101,"x_max":474,"o":"m 243 472 q 140 512 179 472 q 101 615 101 551 q 130 715 101 676 q 214 781 158 753 q 385 856 269 810 l 385 915 q 367 1034 385 999 q 303 1069 349 1069 q 233 1039 258 1069 q 207 944 207 1008 l 122 946 q 172 1090 125 1040 q 303 1140 218 1140 q 437 1083 400 1140 q 474 896 474 1025 l 474 481 l 394 481 l 392 565 q 331 498 371 524 q 243 472 292 472 m 269 547 q 337 569 307 547 q 385 628 367 592 l 385 810 q 267 750 304 772 q 211 701 231 728 q 192 632 192 674 q 214 568 192 589 q 269 547 236 547 z "},"º":{"ha":571,"x_min":90,"x_max":481,"o":"m 286 471 q 133 528 176 471 q 90 694 90 585 l 90 917 q 135 1083 90 1025 q 286 1140 179 1140 q 435 1081 390 1140 q 481 917 481 1022 l 481 694 q 436 530 481 589 q 286 471 392 471 m 283 540 q 372 582 349 540 q 394 701 394 624 l 394 910 q 372 1029 394 988 q 283 1071 349 1071 q 196 1028 219 1071 q 172 910 172 986 l 172 701 q 196 583 172 625 q 283 540 219 540 z "},"А":{"ha":653,"x_min":33,"x_max":621,"o":"m 271 1125 l 382 1125 l 621 0 l 517 0 l 461 301 l 193 301 l 136 0 l 33 0 l 271 1125 m 447 378 l 326 985 l 207 378 l 447 378 z "},"Б":{"ha":665,"x_min":97,"x_max":618,"o":"m 97 1125 l 549 1125 l 549 1046 l 204 1046 l 204 653 l 294 653 q 540 574 461 653 q 618 322 618 496 q 541 83 618 165 q 299 0 464 0 l 97 0 l 97 1125 m 300 81 q 465 137 415 81 q 514 324 514 193 q 465 511 514 450 q 299 572 417 572 l 204 572 l 204 81 l 300 81 z "},"В":{"ha":697,"x_min":99,"x_max":642,"o":"m 99 1125 l 340 1125 q 551 1052 488 1125 q 615 844 615 979 q 582 688 615 753 q 472 607 549 622 q 603 506 564 582 q 642 325 642 429 q 583 87 642 174 q 376 0 524 0 l 99 0 l 99 1125 m 357 640 q 483 692 447 640 q 519 844 519 744 q 501 958 519 915 q 435 1022 482 1001 q 304 1043 389 1043 l 204 1043 l 204 640 l 357 640 m 356 79 q 467 105 428 79 q 523 183 507 131 q 539 325 539 236 q 358 558 539 558 l 204 558 l 204 79 l 356 79 z "},"Г":{"ha":521,"x_min":99,"x_max":497,"o":"m 99 1125 l 497 1125 l 497 1043 l 204 1043 l 204 0 l 99 0 l 99 1125 z "},"Ѓ":{"ha":521,"x_min":99,"x_max":497,"o":"m 99 1125 l 497 1125 l 497 1043 l 204 1043 l 204 0 l 99 0 l 99 1125 z "},"Ґ":{"ha":521,"x_min":97,"x_max":501,"o":"m 97 1125 l 433 1125 l 433 1257 l 501 1257 l 501 1044 l 204 1044 l 204 0 l 97 0 l 97 1125 z "},"Д":{"ha":817,"x_min":14,"x_max":779,"o":"m 14 79 l 58 79 q 142 167 113 118 q 197 353 172 217 q 239 761 221 489 l 264 1125 l 688 1125 l 688 79 l 779 79 l 779 -193 l 696 -193 l 686 0 l 107 0 l 97 -193 l 14 -193 l 14 79 m 582 79 l 582 1044 l 357 1044 l 336 738 q 295 340 319 472 q 243 163 271 208 q 165 79 215 118 l 582 79 z "},"Е":{"ha":543,"x_min":97,"x_max":507,"o":"m 97 1125 l 504 1125 l 504 1043 l 204 1043 l 204 621 l 449 621 l 449 543 l 204 543 l 204 79 l 507 79 l 507 0 l 97 0 l 97 1125 z "},"Ѐ":{"ha":543,"x_min":97,"x_max":507,"o":"m 97 1125 l 504 1125 l 504 1043 l 204 1043 l 204 621 l 449 621 l 449 543 l 204 543 l 204 79 l 507 79 l 507 0 l 97 0 l 97 1125 m 157 1464 l 260 1464 l 336 1192 l 285 1192 l 157 1464 z "},"Ё":{"ha":543,"x_min":97,"x_max":507,"o":"m 97 1125 l 504 1125 l 504 1043 l 204 1043 l 204 621 l 449 621 l 449 543 l 204 543 l 204 79 l 507 79 l 507 0 l 97 0 l 97 1125 z "},"Ж":{"ha":885,"x_min":21,"x_max":865,"o":"m 299 583 l 47 1125 l 150 1125 l 386 588 l 396 588 l 396 1125 l 489 1125 l 489 588 l 499 588 l 736 1125 l 839 1125 l 586 583 l 865 0 l 761 0 l 503 568 l 489 568 l 489 0 l 396 0 l 396 568 l 383 568 l 125 0 l 21 0 l 299 583 z "},"З":{"ha":650,"x_min":67,"x_max":599,"o":"m 332 -14 q 142 58 204 -14 q 81 260 81 129 l 81 288 l 179 288 q 181 256 179 263 q 217 117 182 164 q 332 69 253 69 q 455 125 414 69 q 496 306 496 181 q 303 546 496 539 q 243 547 297 547 l 243 626 l 301 626 q 451 685 407 631 q 496 856 496 740 q 458 1001 496 949 q 336 1054 419 1054 q 210 1008 253 1054 q 167 865 168 963 l 167 839 l 67 839 l 67 865 q 132 1065 67 994 q 332 1136 197 1136 q 530 1059 461 1136 q 599 854 599 982 q 554 674 599 742 q 436 589 510 606 q 552 500 506 569 q 599 307 599 431 q 534 71 599 156 q 332 -14 469 -14 z "},"И":{"ha":735,"x_min":97,"x_max":638,"o":"m 97 1125 l 192 1125 l 192 233 l 556 1125 l 638 1125 l 638 0 l 543 0 l 543 896 l 181 0 l 97 0 l 97 1125 z "},"Й":{"ha":735,"x_min":97,"x_max":638,"o":"m 97 1125 l 192 1125 l 192 233 l 556 1125 l 638 1125 l 638 0 l 543 0 l 543 896 l 181 0 l 97 0 l 97 1125 z "},"Ѝ":{"ha":735,"x_min":97,"x_max":638,"o":"m 97 1125 l 192 1125 l 192 233 l 556 1125 l 638 1125 l 638 0 l 543 0 l 543 896 l 181 0 l 97 0 l 97 1125 m 221 1464 l 324 1464 l 400 1192 l 349 1192 l 221 1464 z "},"К":{"ha":672,"x_min":97,"x_max":658,"o":"m 97 1125 l 204 1125 l 204 608 l 283 608 l 514 1125 l 621 1125 l 376 583 l 658 0 l 551 0 l 285 551 l 204 551 l 204 0 l 97 0 l 97 1125 z "},"Ќ":{"ha":672,"x_min":97,"x_max":658,"o":"m 97 1125 l 204 1125 l 204 608 l 283 608 l 514 1125 l 621 1125 l 376 583 l 658 0 l 551 0 l 285 551 l 204 551 l 204 0 l 97 0 l 97 1125 z "},"Л":{"ha":786,"x_min":22,"x_max":689,"o":"m 22 79 q 128 110 97 82 q 178 249 158 139 q 218 639 197 360 l 251 1125 l 689 1125 l 689 0 l 582 0 l 582 1044 l 346 1044 l 319 639 q 273 217 296 340 q 197 45 250 94 q 22 -1 143 -4 l 22 79 z "},"М":{"ha":893,"x_min":89,"x_max":804,"o":"m 117 1125 l 214 1125 l 444 174 l 676 1125 l 776 1125 l 804 0 l 718 0 l 697 863 l 479 0 l 411 0 l 196 861 l 176 0 l 89 0 l 117 1125 z "},"Н":{"ha":763,"x_min":97,"x_max":664,"o":"m 97 1125 l 204 1125 l 204 626 l 558 626 l 558 1125 l 664 1125 l 664 0 l 558 0 l 558 547 l 204 547 l 204 0 l 97 0 l 97 1125 z "},"О":{"ha":735,"x_min":75,"x_max":660,"o":"m 367 -14 q 142 76 208 -14 q 75 332 75 167 l 75 799 q 143 1049 75 961 q 367 1136 211 1136 q 592 1049 524 1136 q 660 799 660 961 l 660 331 q 592 76 660 167 q 367 -14 525 -14 m 367 71 q 512 131 471 71 q 553 308 553 192 l 553 818 q 513 993 553 935 q 367 1051 472 1051 q 222 993 263 1051 q 182 818 182 935 l 182 308 q 222 131 182 192 q 367 71 263 71 z "},"П":{"ha":771,"x_min":99,"x_max":674,"o":"m 99 1125 l 674 1125 l 674 0 l 568 0 l 568 1046 l 204 1046 l 204 0 l 99 0 l 99 1125 z "},"Р":{"ha":664,"x_min":99,"x_max":635,"o":"m 99 1125 l 368 1125 q 573 1047 511 1125 q 635 826 635 969 q 570 614 635 696 q 369 532 506 532 l 204 532 l 204 0 l 99 0 l 99 1125 m 339 611 q 487 659 443 611 q 531 826 531 707 q 514 960 531 914 q 457 1026 497 1007 q 340 1046 417 1046 l 204 1046 l 204 611 l 339 611 z "},"С":{"ha":690,"x_min":75,"x_max":626,"o":"m 360 -14 q 138 79 201 -14 q 75 338 75 172 l 75 785 q 138 1045 75 954 q 360 1136 201 1136 q 565 1054 504 1136 q 626 817 626 972 l 626 749 l 526 749 l 526 814 q 514 945 526 894 q 465 1024 501 996 q 361 1051 429 1051 q 249 1021 288 1051 q 196 937 210 990 q 182 800 182 883 l 182 321 q 222 131 182 190 q 361 71 261 71 q 493 131 460 71 q 526 315 526 192 l 526 389 l 626 389 l 626 322 q 567 74 626 161 q 360 -14 507 -14 z "},"Т":{"ha":535,"x_min":4,"x_max":556,"o":"m 229 1043 l 4 1043 l 4 1125 l 556 1125 l 556 1043 l 336 1043 l 336 0 l 229 0 l 229 1043 z "},"У":{"ha":628,"x_min":39,"x_max":603,"o":"m 82 -62 l 119 -64 q 226 -45 193 -64 q 267 13 258 -26 q 279 142 276 53 l 39 1125 l 142 1125 l 257 621 l 332 258 l 397 621 l 500 1125 l 603 1125 l 388 136 l 379 97 q 339 -55 357 -10 q 274 -123 321 -100 q 126 -146 226 -146 l 81 -144 l 82 -62 z "},"Ў":{"ha":628,"x_min":39,"x_max":603,"o":"m 82 -62 l 119 -64 q 226 -45 193 -64 q 267 13 258 -26 q 279 142 276 53 l 39 1125 l 142 1125 l 257 621 l 332 258 l 397 621 l 500 1125 l 603 1125 l 388 136 l 379 97 q 339 -55 357 -10 q 274 -123 321 -100 q 126 -146 226 -146 l 81 -144 l 82 -62 z "},"Ф":{"ha":860,"x_min":75,"x_max":785,"o":"m 375 131 q 315 126 329 126 q 135 194 194 126 q 75 415 75 263 l 75 725 q 135 950 75 878 q 315 1022 196 1022 q 375 1019 344 1022 l 375 1226 l 482 1226 l 482 1021 l 549 1024 q 726 951 667 1024 q 785 725 785 878 l 785 415 q 727 195 785 264 q 558 126 669 126 q 482 131 522 126 l 482 -68 l 375 -68 l 375 131 m 325 194 q 375 197 361 194 l 375 951 q 325 954 358 954 q 208 901 242 954 q 174 725 174 847 l 174 415 q 187 285 174 332 q 233 216 200 238 q 325 194 265 194 m 538 194 q 626 216 594 194 q 672 285 658 238 q 686 415 686 333 l 686 725 q 653 901 686 849 q 533 954 619 954 l 482 951 l 482 197 q 538 194 497 194 z "},"Х":{"ha":643,"x_min":19,"x_max":625,"o":"m 263 586 l 22 1125 l 121 1125 l 322 676 l 515 1125 l 617 1125 l 368 574 l 625 0 l 524 0 l 310 475 l 121 0 l 19 0 l 263 586 z "},"Ч":{"ha":718,"x_min":74,"x_max":621,"o":"m 514 521 q 349 497 422 497 q 74 747 74 497 l 74 1125 l 172 1125 l 172 747 q 222 611 172 651 q 367 571 271 571 q 514 594 439 571 l 514 1125 l 621 1125 l 621 0 l 514 0 l 514 521 z "},"Ц":{"ha":806,"x_min":97,"x_max":769,"o":"m 675 0 l 97 0 l 97 1125 l 204 1125 l 204 79 l 574 79 l 574 1125 l 681 1125 l 681 79 l 769 79 l 769 -193 l 685 -193 l 675 0 z "},"Ш":{"ha":1000,"x_min":99,"x_max":903,"o":"m 99 1125 l 204 1125 l 204 79 l 451 79 l 451 1125 l 558 1125 l 558 79 l 796 79 l 796 1125 l 903 1125 l 903 0 l 99 0 l 99 1125 z "},"Щ":{"ha":1029,"x_min":97,"x_max":993,"o":"m 899 0 l 97 0 l 97 1125 l 204 1125 l 204 79 l 451 79 l 451 1125 l 557 1125 l 557 79 l 796 79 l 796 1125 l 903 1125 l 903 79 l 993 79 l 993 -193 l 910 -193 l 899 0 z "},"Џ":{"ha":729,"x_min":99,"x_max":631,"o":"m 324 0 l 99 0 l 99 1125 l 204 1125 l 204 79 l 525 79 l 525 1125 l 631 1125 l 631 0 l 421 0 l 413 -193 l 332 -193 l 324 0 z "},"Ь":{"ha":657,"x_min":99,"x_max":622,"o":"m 99 1125 l 204 1125 l 204 653 l 300 653 q 544 574 467 653 q 622 322 622 496 q 546 83 622 165 q 304 0 469 0 l 99 0 l 99 1125 m 306 81 q 471 137 422 81 q 519 324 519 193 q 471 511 519 450 q 304 572 422 572 l 204 572 l 204 81 l 306 81 z "},"Ъ":{"ha":765,"x_min":8,"x_max":731,"o":"m 206 1043 l 8 1043 l 8 1125 l 313 1125 l 313 653 l 407 653 q 653 575 575 653 q 731 322 731 497 q 653 83 731 165 q 411 0 576 0 l 206 0 l 206 1043 m 414 81 q 578 137 529 81 q 628 324 628 193 q 578 511 628 450 q 411 572 529 572 l 313 572 l 313 81 l 414 81 z "},"Ы":{"ha":960,"x_min":97,"x_max":863,"o":"m 97 1125 l 204 1125 l 204 653 l 300 653 q 544 574 467 653 q 622 322 622 496 q 546 83 622 165 q 304 0 469 0 l 97 0 l 97 1125 m 757 1125 l 863 1125 l 863 0 l 757 0 l 757 1125 m 304 81 q 470 137 421 81 q 519 324 519 193 q 470 511 519 450 q 304 572 421 572 l 204 572 l 204 81 l 304 81 z "},"Љ":{"ha":1139,"x_min":25,"x_max":1097,"o":"m 25 -1 l 25 79 q 128 110 94 76 q 179 226 163 143 q 210 488 196 310 l 253 1125 l 690 1125 l 690 653 l 774 653 q 1019 575 942 653 q 1097 322 1097 497 q 1020 83 1097 165 q 778 0 943 0 l 585 0 l 585 1044 l 349 1044 l 308 488 q 272 194 294 296 q 197 44 249 92 q 49 -3 146 -4 l 25 -1 m 781 81 q 945 137 896 81 q 994 324 994 193 q 945 511 994 450 q 778 572 896 572 l 690 572 l 690 81 l 781 81 z "},"Њ":{"ha":1057,"x_min":99,"x_max":1021,"o":"m 99 1125 l 204 1125 l 204 650 l 508 650 l 508 1125 l 615 1125 l 615 653 l 699 653 q 943 574 865 653 q 1021 322 1021 496 q 944 83 1021 165 q 703 0 868 0 l 508 0 l 508 572 l 204 572 l 204 0 l 99 0 l 99 1125 m 704 81 q 869 137 821 81 q 918 324 918 193 q 869 511 918 450 q 703 572 821 572 l 615 572 l 615 81 l 704 81 z "},"Ѕ":{"ha":629,"x_min":57,"x_max":596,"o":"m 338 -14 q 136 67 206 -14 q 57 292 67 149 l 150 319 q 203 136 163 200 q 339 72 244 72 q 497 235 497 72 q 465 356 497 304 q 360 478 432 408 l 161 668 q 83 774 108 719 q 58 894 58 829 q 128 1073 58 1010 q 317 1136 197 1136 q 506 1069 440 1136 q 582 851 571 1003 l 492 828 q 445 997 483 940 q 321 1053 407 1053 q 199 1016 244 1053 q 154 904 154 979 q 172 821 154 858 q 233 740 190 783 l 432 553 q 552 404 508 479 q 596 242 596 329 q 525 53 596 119 q 338 -14 454 -14 z "}}}
